STARTFONT 2.1
COMMENT
COMMENT Converted from OpenType font "JF-Dot-Kaname12.ttf" by "otf2bdf 3.0".
COMMENT
FONT -FreeType-JF Dot Kanamecho 12-Medium-R-Normal--17-120-100-100-P-121-ISO10646-1
SIZE 12 100 100
FONTBOUNDINGBOX 12 12 0 -2
STARTPROPERTIES 19
FOUNDRY "FreeType"
FAMILY_NAME "JF Dot Kanamecho 12"
WEIGHT_NAME "Medium"
SLANT "R"
SETWIDTH_NAME "Normal"
ADD_STYLE_NAME ""
PIXEL_SIZE 17
POINT_SIZE 120
RESOLUTION_X 100
RESOLUTION_Y 100
SPACING "P"
AVERAGE_WIDTH 121
CHARSET_REGISTRY "ISO10646"
CHARSET_ENCODING "1"
FONT_ASCENT 10
FONT_DESCENT 1
COPYRIGHT "-FreeType-JF Dot Kanamecho 12-Medium-R-Normal--17-120-100-100-P-121-ISO10646-1"
_OTF_FONTFILE "JF-Dot-Kaname12.ttf"
_OTF_PSNAME "JF-Dot-Kanamecho-12"
ENDPROPERTIES
CHARS 7367
STARTCHAR 0020
ENCODING 32
SWIDTH 360 0
DWIDTH 6 0
BBX 5 10 0 -2
BITMAP
00
00
00
00
00
00
00
00
00
00
ENDCHAR
STARTCHAR 0021
ENCODING 33
SWIDTH 360 0
DWIDTH 6 0
BBX 5 10 0 -2
BITMAP
30
30
30
30
20
20
00
20
20
00
ENDCHAR
STARTCHAR 0022
ENCODING 34
SWIDTH 360 0
DWIDTH 6 0
BBX 5 10 0 -2
BITMAP
D8
48
90
00
00
00
00
00
00
00
ENDCHAR
STARTCHAR 0023
ENCODING 35
SWIDTH 360 0
DWIDTH 6 0
BBX 5 10 0 -2
BITMAP
10
50
78
D0
50
78
D0
50
40
00
ENDCHAR
STARTCHAR 0024
ENCODING 36
SWIDTH 360 0
DWIDTH 6 0
BBX 5 10 0 -2
BITMAP
20
70
A8
A0
70
28
A8
70
20
00
ENDCHAR
STARTCHAR 0025
ENCODING 37
SWIDTH 360 0
DWIDTH 6 0
BBX 5 10 0 -2
BITMAP
40
A0
48
10
20
40
90
28
10
00
ENDCHAR
STARTCHAR 0026
ENCODING 38
SWIDTH 360 0
DWIDTH 6 0
BBX 5 10 0 -2
BITMAP
60
90
90
60
40
A8
90
90
68
00
ENDCHAR
STARTCHAR 0027
ENCODING 39
SWIDTH 360 0
DWIDTH 6 0
BBX 5 10 0 -2
BITMAP
30
10
20
00
00
00
00
00
00
00
ENDCHAR
STARTCHAR 0028
ENCODING 40
SWIDTH 360 0
DWIDTH 6 0
BBX 5 10 0 -2
BITMAP
08
08
10
10
10
10
10
08
08
00
ENDCHAR
STARTCHAR 0029
ENCODING 41
SWIDTH 360 0
DWIDTH 6 0
BBX 5 10 0 -2
BITMAP
40
40
20
20
20
20
20
40
40
00
ENDCHAR
STARTCHAR 002A
ENCODING 42
SWIDTH 360 0
DWIDTH 6 0
BBX 5 10 0 -2
BITMAP
00
20
A8
70
A8
20
00
00
00
00
ENDCHAR
STARTCHAR 002B
ENCODING 43
SWIDTH 360 0
DWIDTH 6 0
BBX 5 10 0 -2
BITMAP
00
20
20
F8
20
20
00
00
00
00
ENDCHAR
STARTCHAR 002C
ENCODING 44
SWIDTH 360 0
DWIDTH 6 0
BBX 5 10 0 -2
BITMAP
00
00
00
00
00
00
00
60
20
40
ENDCHAR
STARTCHAR 002D
ENCODING 45
SWIDTH 360 0
DWIDTH 6 0
BBX 5 10 0 -2
BITMAP
00
00
00
F8
00
00
00
00
00
00
ENDCHAR
STARTCHAR 002E
ENCODING 46
SWIDTH 360 0
DWIDTH 6 0
BBX 5 10 0 -2
BITMAP
00
00
00
00
00
00
00
60
60
00
ENDCHAR
STARTCHAR 002F
ENCODING 47
SWIDTH 360 0
DWIDTH 6 0
BBX 5 10 0 -2
BITMAP
08
08
10
10
20
40
40
80
80
00
ENDCHAR
STARTCHAR 0030
ENCODING 48
SWIDTH 360 0
DWIDTH 6 0
BBX 5 10 0 -2
BITMAP
70
88
88
98
A8
C8
88
88
70
00
ENDCHAR
STARTCHAR 0031
ENCODING 49
SWIDTH 360 0
DWIDTH 6 0
BBX 5 10 0 -2
BITMAP
20
60
20
20
20
20
20
20
70
00
ENDCHAR
STARTCHAR 0032
ENCODING 50
SWIDTH 360 0
DWIDTH 6 0
BBX 5 10 0 -2
BITMAP
70
88
08
08
10
20
40
80
F8
00
ENDCHAR
STARTCHAR 0033
ENCODING 51
SWIDTH 360 0
DWIDTH 6 0
BBX 5 10 0 -2
BITMAP
70
88
08
08
30
08
08
88
70
00
ENDCHAR
STARTCHAR 0034
ENCODING 52
SWIDTH 360 0
DWIDTH 6 0
BBX 5 10 0 -2
BITMAP
10
30
30
50
50
90
F8
10
10
00
ENDCHAR
STARTCHAR 0035
ENCODING 53
SWIDTH 360 0
DWIDTH 6 0
BBX 5 10 0 -2
BITMAP
F8
80
80
F0
08
08
08
88
70
00
ENDCHAR
STARTCHAR 0036
ENCODING 54
SWIDTH 360 0
DWIDTH 6 0
BBX 5 10 0 -2
BITMAP
70
88
80
80
F0
88
88
88
70
00
ENDCHAR
STARTCHAR 0037
ENCODING 55
SWIDTH 360 0
DWIDTH 6 0
BBX 5 10 0 -2
BITMAP
F8
88
08
10
20
20
20
20
20
00
ENDCHAR
STARTCHAR 0038
ENCODING 56
SWIDTH 360 0
DWIDTH 6 0
BBX 5 10 0 -2
BITMAP
70
88
88
88
70
88
88
88
70
00
ENDCHAR
STARTCHAR 0039
ENCODING 57
SWIDTH 360 0
DWIDTH 6 0
BBX 5 10 0 -2
BITMAP
70
88
88
88
78
08
88
88
70
00
ENDCHAR
STARTCHAR 003A
ENCODING 58
SWIDTH 360 0
DWIDTH 6 0
BBX 5 10 0 -2
BITMAP
00
30
30
00
00
30
30
00
00
00
ENDCHAR
STARTCHAR 003B
ENCODING 59
SWIDTH 360 0
DWIDTH 6 0
BBX 5 10 0 -2
BITMAP
00
30
30
00
00
30
10
20
00
00
ENDCHAR
STARTCHAR 003C
ENCODING 60
SWIDTH 360 0
DWIDTH 6 0
BBX 5 10 0 -2
BITMAP
08
10
20
40
20
10
08
00
00
00
ENDCHAR
STARTCHAR 003D
ENCODING 61
SWIDTH 360 0
DWIDTH 6 0
BBX 5 10 0 -2
BITMAP
00
00
F8
00
F8
00
00
00
00
00
ENDCHAR
STARTCHAR 003E
ENCODING 62
SWIDTH 360 0
DWIDTH 6 0
BBX 5 10 0 -2
BITMAP
40
20
10
08
10
20
40
00
00
00
ENDCHAR
STARTCHAR 003F
ENCODING 63
SWIDTH 360 0
DWIDTH 6 0
BBX 5 10 0 -2
BITMAP
70
88
88
10
20
20
00
20
20
00
ENDCHAR
STARTCHAR 0040
ENCODING 64
SWIDTH 360 0
DWIDTH 6 0
BBX 5 10 0 -2
BITMAP
70
88
A8
A8
A8
A8
90
88
70
00
ENDCHAR
STARTCHAR 0041
ENCODING 65
SWIDTH 360 0
DWIDTH 6 0
BBX 5 10 0 -2
BITMAP
20
50
88
88
88
F8
88
88
88
00
ENDCHAR
STARTCHAR 0042
ENCODING 66
SWIDTH 360 0
DWIDTH 6 0
BBX 5 10 0 -2
BITMAP
F0
88
88
88
F0
88
88
88
F0
00
ENDCHAR
STARTCHAR 0043
ENCODING 67
SWIDTH 360 0
DWIDTH 6 0
BBX 5 10 0 -2
BITMAP
30
48
80
80
80
80
80
48
30
00
ENDCHAR
STARTCHAR 0044
ENCODING 68
SWIDTH 360 0
DWIDTH 6 0
BBX 5 10 0 -2
BITMAP
E0
90
88
88
88
88
88
90
E0
00
ENDCHAR
STARTCHAR 0045
ENCODING 69
SWIDTH 360 0
DWIDTH 6 0
BBX 5 10 0 -2
BITMAP
F8
80
80
80
F0
80
80
80
F8
00
ENDCHAR
STARTCHAR 0046
ENCODING 70
SWIDTH 360 0
DWIDTH 6 0
BBX 5 10 0 -2
BITMAP
F8
80
80
80
F0
80
80
80
80
00
ENDCHAR
STARTCHAR 0047
ENCODING 71
SWIDTH 360 0
DWIDTH 6 0
BBX 5 10 0 -2
BITMAP
30
48
80
80
B8
88
88
58
28
00
ENDCHAR
STARTCHAR 0048
ENCODING 72
SWIDTH 360 0
DWIDTH 6 0
BBX 5 10 0 -2
BITMAP
88
88
88
88
F8
88
88
88
88
00
ENDCHAR
STARTCHAR 0049
ENCODING 73
SWIDTH 360 0
DWIDTH 6 0
BBX 5 10 0 -2
BITMAP
70
20
20
20
20
20
20
20
70
00
ENDCHAR
STARTCHAR 004A
ENCODING 74
SWIDTH 360 0
DWIDTH 6 0
BBX 5 10 0 -2
BITMAP
38
10
10
10
10
10
90
90
60
00
ENDCHAR
STARTCHAR 004B
ENCODING 75
SWIDTH 360 0
DWIDTH 6 0
BBX 5 10 0 -2
BITMAP
88
90
90
A0
C0
E0
90
88
88
00
ENDCHAR
STARTCHAR 004C
ENCODING 76
SWIDTH 360 0
DWIDTH 6 0
BBX 5 10 0 -2
BITMAP
80
80
80
80
80
80
80
80
F8
00
ENDCHAR
STARTCHAR 004D
ENCODING 77
SWIDTH 360 0
DWIDTH 6 0
BBX 5 10 0 -2
BITMAP
88
88
D8
D8
F8
A8
A8
88
88
00
ENDCHAR
STARTCHAR 004E
ENCODING 78
SWIDTH 360 0
DWIDTH 6 0
BBX 5 10 0 -2
BITMAP
88
C8
C8
A8
A8
A8
98
98
88
00
ENDCHAR
STARTCHAR 004F
ENCODING 79
SWIDTH 360 0
DWIDTH 6 0
BBX 5 10 0 -2
BITMAP
70
88
88
88
88
88
88
88
70
00
ENDCHAR
STARTCHAR 0050
ENCODING 80
SWIDTH 360 0
DWIDTH 6 0
BBX 5 10 0 -2
BITMAP
F0
88
88
88
F0
80
80
80
80
00
ENDCHAR
STARTCHAR 0051
ENCODING 81
SWIDTH 360 0
DWIDTH 6 0
BBX 5 10 0 -2
BITMAP
70
88
88
88
88
88
A8
70
08
00
ENDCHAR
STARTCHAR 0052
ENCODING 82
SWIDTH 360 0
DWIDTH 6 0
BBX 5 10 0 -2
BITMAP
F0
88
88
88
F0
90
88
88
88
00
ENDCHAR
STARTCHAR 0053
ENCODING 83
SWIDTH 360 0
DWIDTH 6 0
BBX 5 10 0 -2
BITMAP
70
88
80
80
70
08
08
88
70
00
ENDCHAR
STARTCHAR 0054
ENCODING 84
SWIDTH 360 0
DWIDTH 6 0
BBX 5 10 0 -2
BITMAP
F8
20
20
20
20
20
20
20
20
00
ENDCHAR
STARTCHAR 0055
ENCODING 85
SWIDTH 360 0
DWIDTH 6 0
BBX 5 10 0 -2
BITMAP
88
88
88
88
88
88
88
88
70
00
ENDCHAR
STARTCHAR 0056
ENCODING 86
SWIDTH 360 0
DWIDTH 6 0
BBX 5 10 0 -2
BITMAP
88
88
88
88
88
88
50
50
20
00
ENDCHAR
STARTCHAR 0057
ENCODING 87
SWIDTH 360 0
DWIDTH 6 0
BBX 5 10 0 -2
BITMAP
A8
A8
A8
A8
A8
A8
A8
50
50
00
ENDCHAR
STARTCHAR 0058
ENCODING 88
SWIDTH 360 0
DWIDTH 6 0
BBX 5 10 0 -2
BITMAP
88
88
50
50
20
50
50
88
88
00
ENDCHAR
STARTCHAR 0059
ENCODING 89
SWIDTH 360 0
DWIDTH 6 0
BBX 5 10 0 -2
BITMAP
88
88
50
50
20
20
20
20
20
00
ENDCHAR
STARTCHAR 005A
ENCODING 90
SWIDTH 360 0
DWIDTH 6 0
BBX 5 10 0 -2
BITMAP
F8
08
10
10
20
40
40
80
F8
00
ENDCHAR
STARTCHAR 005B
ENCODING 91
SWIDTH 360 0
DWIDTH 6 0
BBX 5 10 0 -2
BITMAP
38
20
20
20
20
20
20
20
38
00
ENDCHAR
STARTCHAR 005C
ENCODING 92
SWIDTH 360 0
DWIDTH 6 0
BBX 5 10 0 -2
BITMAP
88
50
20
F8
20
F8
20
20
20
00
ENDCHAR
STARTCHAR 005D
ENCODING 93
SWIDTH 360 0
DWIDTH 6 0
BBX 5 10 0 -2
BITMAP
70
10
10
10
10
10
10
10
70
00
ENDCHAR
STARTCHAR 005E
ENCODING 94
SWIDTH 360 0
DWIDTH 6 0
BBX 5 10 0 -2
BITMAP
20
50
88
00
00
00
00
00
00
00
ENDCHAR
STARTCHAR 005F
ENCODING 95
SWIDTH 360 0
DWIDTH 6 0
BBX 5 10 0 -2
BITMAP
00
00
00
00
00
00
00
00
F8
00
ENDCHAR
STARTCHAR 0060
ENCODING 96
SWIDTH 360 0
DWIDTH 6 0
BBX 5 10 0 -2
BITMAP
40
20
10
00
00
00
00
00
00
00
ENDCHAR
STARTCHAR 0061
ENCODING 97
SWIDTH 360 0
DWIDTH 6 0
BBX 5 10 0 -2
BITMAP
00
00
00
70
88
78
88
98
68
00
ENDCHAR
STARTCHAR 0062
ENCODING 98
SWIDTH 360 0
DWIDTH 6 0
BBX 5 10 0 -2
BITMAP
80
80
80
B0
C8
88
88
C8
B0
00
ENDCHAR
STARTCHAR 0063
ENCODING 99
SWIDTH 360 0
DWIDTH 6 0
BBX 5 10 0 -2
BITMAP
00
00
00
70
88
80
80
88
70
00
ENDCHAR
STARTCHAR 0064
ENCODING 100
SWIDTH 360 0
DWIDTH 6 0
BBX 5 10 0 -2
BITMAP
08
08
08
68
98
88
88
98
68
00
ENDCHAR
STARTCHAR 0065
ENCODING 101
SWIDTH 360 0
DWIDTH 6 0
BBX 5 10 0 -2
BITMAP
00
00
00
70
88
F8
80
88
70
00
ENDCHAR
STARTCHAR 0066
ENCODING 102
SWIDTH 360 0
DWIDTH 6 0
BBX 5 10 0 -2
BITMAP
10
28
20
20
F8
20
20
20
20
00
ENDCHAR
STARTCHAR 0067
ENCODING 103
SWIDTH 360 0
DWIDTH 6 0
BBX 5 10 0 -2
BITMAP
00
00
00
78
88
88
88
78
88
70
ENDCHAR
STARTCHAR 0068
ENCODING 104
SWIDTH 360 0
DWIDTH 6 0
BBX 5 10 0 -2
BITMAP
80
80
80
B0
C8
88
88
88
88
00
ENDCHAR
STARTCHAR 0069
ENCODING 105
SWIDTH 360 0
DWIDTH 6 0
BBX 5 10 0 -2
BITMAP
00
20
00
60
20
20
20
20
70
00
ENDCHAR
STARTCHAR 006A
ENCODING 106
SWIDTH 360 0
DWIDTH 6 0
BBX 5 10 0 -2
BITMAP
00
08
00
18
08
08
08
08
88
70
ENDCHAR
STARTCHAR 006B
ENCODING 107
SWIDTH 360 0
DWIDTH 6 0
BBX 5 10 0 -2
BITMAP
80
80
80
88
90
A0
E0
90
88
00
ENDCHAR
STARTCHAR 006C
ENCODING 108
SWIDTH 360 0
DWIDTH 6 0
BBX 5 10 0 -2
BITMAP
60
20
20
20
20
20
20
20
20
00
ENDCHAR
STARTCHAR 006D
ENCODING 109
SWIDTH 360 0
DWIDTH 6 0
BBX 5 10 0 -2
BITMAP
00
00
00
F0
A8
A8
A8
A8
A8
00
ENDCHAR
STARTCHAR 006E
ENCODING 110
SWIDTH 360 0
DWIDTH 6 0
BBX 5 10 0 -2
BITMAP
00
00
00
B0
C8
88
88
88
88
00
ENDCHAR
STARTCHAR 006F
ENCODING 111
SWIDTH 360 0
DWIDTH 6 0
BBX 5 10 0 -2
BITMAP
00
00
00
70
88
88
88
88
70
00
ENDCHAR
STARTCHAR 0070
ENCODING 112
SWIDTH 360 0
DWIDTH 6 0
BBX 5 10 0 -2
BITMAP
00
00
00
B0
C8
88
C8
B0
80
80
ENDCHAR
STARTCHAR 0071
ENCODING 113
SWIDTH 360 0
DWIDTH 6 0
BBX 5 10 0 -2
BITMAP
00
00
00
68
98
88
98
68
08
08
ENDCHAR
STARTCHAR 0072
ENCODING 114
SWIDTH 360 0
DWIDTH 6 0
BBX 5 10 0 -2
BITMAP
00
00
00
B0
C8
80
80
80
80
00
ENDCHAR
STARTCHAR 0073
ENCODING 115
SWIDTH 360 0
DWIDTH 6 0
BBX 5 10 0 -2
BITMAP
00
00
00
70
88
60
10
88
70
00
ENDCHAR
STARTCHAR 0074
ENCODING 116
SWIDTH 360 0
DWIDTH 6 0
BBX 5 10 0 -2
BITMAP
00
20
20
F8
20
20
20
28
30
00
ENDCHAR
STARTCHAR 0075
ENCODING 117
SWIDTH 360 0
DWIDTH 6 0
BBX 5 10 0 -2
BITMAP
00
00
00
88
88
88
88
98
68
00
ENDCHAR
STARTCHAR 0076
ENCODING 118
SWIDTH 360 0
DWIDTH 6 0
BBX 5 10 0 -2
BITMAP
00
00
00
88
88
50
50
20
20
00
ENDCHAR
STARTCHAR 0077
ENCODING 119
SWIDTH 360 0
DWIDTH 6 0
BBX 5 10 0 -2
BITMAP
00
00
00
88
A8
A8
A8
A8
50
00
ENDCHAR
STARTCHAR 0078
ENCODING 120
SWIDTH 360 0
DWIDTH 6 0
BBX 5 10 0 -2
BITMAP
00
00
00
88
50
20
20
50
88
00
ENDCHAR
STARTCHAR 0079
ENCODING 121
SWIDTH 360 0
DWIDTH 6 0
BBX 5 10 0 -2
BITMAP
00
00
00
88
88
88
78
08
88
70
ENDCHAR
STARTCHAR 007A
ENCODING 122
SWIDTH 360 0
DWIDTH 6 0
BBX 5 10 0 -2
BITMAP
00
00
00
F8
10
20
40
80
F8
00
ENDCHAR
STARTCHAR 007B
ENCODING 123
SWIDTH 360 0
DWIDTH 6 0
BBX 5 10 0 -2
BITMAP
08
10
10
10
20
10
10
10
08
00
ENDCHAR
STARTCHAR 007C
ENCODING 124
SWIDTH 360 0
DWIDTH 6 0
BBX 5 10 0 -2
BITMAP
20
20
20
20
20
20
20
20
20
00
ENDCHAR
STARTCHAR 007D
ENCODING 125
SWIDTH 360 0
DWIDTH 6 0
BBX 5 10 0 -2
BITMAP
40
20
20
20
10
20
20
20
40
00
ENDCHAR
STARTCHAR 00A0
ENCODING 160
SWIDTH 360 0
DWIDTH 6 0
BBX 5 10 0 -2
BITMAP
00
00
00
00
00
00
00
00
00
00
ENDCHAR
STARTCHAR 00A2
ENCODING 162
SWIDTH 720 0
DWIDTH 12 0
BBX 6 9 3 -2
BITMAP
08
38
54
90
A0
A4
64
38
40
ENDCHAR
STARTCHAR 00A3
ENCODING 163
SWIDTH 720 0
DWIDTH 12 0
BBX 10 10 1 -1
BITMAP
0F00
1080
2000
2000
1000
FE00
1000
7000
9840
6780
ENDCHAR
STARTCHAR 00A5
ENCODING 165
SWIDTH 360 0
DWIDTH 6 0
BBX 5 9 0 -1
BITMAP
88
50
20
F8
20
F8
20
20
20
ENDCHAR
STARTCHAR 00A7
ENCODING 167
SWIDTH 720 0
DWIDTH 12 0
BBX 12 12 0 -2
BITMAP
0F00
1080
1080
0C00
0B00
1080
1080
0D00
0300
1080
1080
0F00
ENDCHAR
STARTCHAR 00A8
ENCODING 168
SWIDTH 720 0
DWIDTH 12 0
BBX 12 12 0 -2
BITMAP
1980
1980
0000
0000
0000
0000
0000
0000
0000
0000
0000
0000
ENDCHAR
STARTCHAR 00AC
ENCODING 172
SWIDTH 720 0
DWIDTH 12 0
BBX 12 12 0 -2
BITMAP
0000
0000
0000
0000
0000
7FE0
0020
0020
0020
0000
0000
0000
ENDCHAR
STARTCHAR 00B0
ENCODING 176
SWIDTH 720 0
DWIDTH 12 0
BBX 12 12 0 -2
BITMAP
0000
3000
4800
4800
3000
0000
0000
0000
0000
0000
0000
0000
ENDCHAR
STARTCHAR 00B1
ENCODING 177
SWIDTH 720 0
DWIDTH 12 0
BBX 12 12 0 -2
BITMAP
0000
0400
0400
0400
0400
7FC0
0400
0400
0400
0000
7FC0
0000
ENDCHAR
STARTCHAR 00B4
ENCODING 180
SWIDTH 720 0
DWIDTH 12 0
BBX 12 12 0 -2
BITMAP
0200
0400
0800
0000
0000
0000
0000
0000
0000
0000
0000
0000
ENDCHAR
STARTCHAR 00B6
ENCODING 182
SWIDTH 720 0
DWIDTH 12 0
BBX 12 12 0 -2
BITMAP
1FC0
3C80
3C80
3C80
1C80
0480
0480
0480
0480
0480
0480
0480
ENDCHAR
STARTCHAR 00D7
ENCODING 215
SWIDTH 720 0
DWIDTH 12 0
BBX 12 12 0 -2
BITMAP
0000
0000
2040
1080
0900
0600
0600
0900
1080
2040
0000
0000
ENDCHAR
STARTCHAR 00F7
ENCODING 247
SWIDTH 720 0
DWIDTH 12 0
BBX 12 12 0 -2
BITMAP
0000
0000
0600
0600
0000
0000
7FE0
0000
0000
0600
0600
0000
ENDCHAR
STARTCHAR 0391
ENCODING 913
SWIDTH 720 0
DWIDTH 12 0
BBX 12 12 0 -2
BITMAP
0000
0400
0400
0A00
0A00
1100
1100
1F00
2080
2080
71C0
0000
ENDCHAR
STARTCHAR 0392
ENCODING 914
SWIDTH 720 0
DWIDTH 12 0
BBX 12 12 0 -2
BITMAP
0000
3F00
1080
1040
1080
1F00
1080
1040
1040
1080
3F00
0000
ENDCHAR
STARTCHAR 0393
ENCODING 915
SWIDTH 720 0
DWIDTH 12 0
BBX 12 12 0 -2
BITMAP
0000
3F80
1040
1040
1000
1000
1000
1000
1000
1000
3800
0000
ENDCHAR
STARTCHAR 0394
ENCODING 916
SWIDTH 720 0
DWIDTH 12 0
BBX 12 12 0 -2
BITMAP
0000
0400
0600
0600
0900
0900
1080
1080
2040
3FC0
7FE0
0000
ENDCHAR
STARTCHAR 0395
ENCODING 917
SWIDTH 720 0
DWIDTH 12 0
BBX 12 12 0 -2
BITMAP
0000
7F80
2040
2000
2100
3F00
2100
2000
2040
2040
7F80
0000
ENDCHAR
STARTCHAR 0396
ENCODING 918
SWIDTH 720 0
DWIDTH 12 0
BBX 12 12 0 -2
BITMAP
0000
3FE0
2040
4080
0100
0200
0400
0800
1020
2020
7FC0
0000
ENDCHAR
STARTCHAR 0397
ENCODING 919
SWIDTH 720 0
DWIDTH 12 0
BBX 12 12 0 -2
BITMAP
0000
70E0
2040
2040
2040
3FC0
2040
2040
2040
2040
70E0
0000
ENDCHAR
STARTCHAR 0398
ENCODING 920
SWIDTH 720 0
DWIDTH 12 0
BBX 12 12 0 -2
BITMAP
0000
0F00
1080
2040
4920
4F20
4920
4920
2040
1080
0F00
0000
ENDCHAR
STARTCHAR 0399
ENCODING 921
SWIDTH 720 0
DWIDTH 12 0
BBX 12 12 0 -2
BITMAP
0000
0E00
0400
0400
0400
0400
0400
0400
0400
0400
0E00
0000
ENDCHAR
STARTCHAR 039A
ENCODING 922
SWIDTH 720 0
DWIDTH 12 0
BBX 12 12 0 -2
BITMAP
0000
39C0
1080
1100
1200
1C00
1200
1100
1080
1040
38E0
0000
ENDCHAR
STARTCHAR 039B
ENCODING 923
SWIDTH 720 0
DWIDTH 12 0
BBX 12 12 0 -2
BITMAP
0000
0400
0400
0A00
0A00
1100
1100
1100
2080
2080
71C0
0000
ENDCHAR
STARTCHAR 039C
ENCODING 924
SWIDTH 720 0
DWIDTH 12 0
BBX 12 12 0 -2
BITMAP
0000
C060
4040
60C0
60C0
5140
5140
4A40
4A40
4440
E4E0
0000
ENDCHAR
STARTCHAR 039D
ENCODING 925
SWIDTH 720 0
DWIDTH 12 0
BBX 12 12 0 -2
BITMAP
0000
61C0
3080
2880
2880
2480
2280
2280
2180
2080
7080
0000
ENDCHAR
STARTCHAR 039E
ENCODING 926
SWIDTH 720 0
DWIDTH 12 0
BBX 12 12 0 -2
BITMAP
0000
3FC0
2040
0000
1080
1F80
1080
0000
2040
2040
3FC0
0000
ENDCHAR
STARTCHAR 039F
ENCODING 927
SWIDTH 720 0
DWIDTH 12 0
BBX 12 12 0 -2
BITMAP
0000
0F00
1080
2040
4020
4020
4020
4020
2040
1080
0F00
0000
ENDCHAR
STARTCHAR 03A0
ENCODING 928
SWIDTH 720 0
DWIDTH 12 0
BBX 12 12 0 -2
BITMAP
0000
7FC0
2080
2080
2080
2080
2080
2080
2080
2080
71C0
0000
ENDCHAR
STARTCHAR 03A1
ENCODING 929
SWIDTH 720 0
DWIDTH 12 0
BBX 12 12 0 -2
BITMAP
0000
3F00
1080
1040
1040
1080
1F00
1000
1000
1000
3800
0000
ENDCHAR
STARTCHAR 03A3
ENCODING 931
SWIDTH 720 0
DWIDTH 12 0
BBX 12 12 0 -2
BITMAP
0000
7F80
2080
1040
0800
0400
0400
0800
1020
2020
7FC0
0000
ENDCHAR
STARTCHAR 03A4
ENCODING 932
SWIDTH 720 0
DWIDTH 12 0
BBX 12 12 0 -2
BITMAP
0000
7FC0
4440
4440
0400
0400
0400
0400
0400
0400
0E00
0000
ENDCHAR
STARTCHAR 03A5
ENCODING 933
SWIDTH 720 0
DWIDTH 12 0
BBX 12 12 0 -2
BITMAP
0000
3B80
4440
4440
0400
0400
0400
0400
0400
0400
0E00
0000
ENDCHAR
STARTCHAR 03A6
ENCODING 934
SWIDTH 720 0
DWIDTH 12 0
BBX 12 12 0 -2
BITMAP
0000
0E00
0400
1F00
2480
4440
4440
2480
1F00
0400
0E00
0000
ENDCHAR
STARTCHAR 03A7
ENCODING 935
SWIDTH 720 0
DWIDTH 12 0
BBX 12 12 0 -2
BITMAP
0000
70E0
2040
1080
0900
0600
0600
0900
1080
2040
70E0
0000
ENDCHAR
STARTCHAR 03A8
ENCODING 936
SWIDTH 720 0
DWIDTH 12 0
BBX 12 12 0 -2
BITMAP
0000
0E00
44C0
A4A0
2480
2480
2480
1F00
0400
0400
0E00
0000
ENDCHAR
STARTCHAR 03A9
ENCODING 937
SWIDTH 720 0
DWIDTH 12 0
BBX 12 12 0 -2
BITMAP
0000
0F00
1080
2040
2040
2040
2040
1080
4920
4920
79E0
0000
ENDCHAR
STARTCHAR 03B1
ENCODING 945
SWIDTH 720 0
DWIDTH 12 0
BBX 12 12 0 -2
BITMAP
0000
0000
0000
0000
0E40
1140
2180
2100
2200
2500
18C0
0000
ENDCHAR
STARTCHAR 03B2
ENCODING 946
SWIDTH 720 0
DWIDTH 12 0
BBX 12 12 0 -2
BITMAP
0000
0300
0480
0440
0880
0F00
1100
1080
2080
3100
2E00
4000
ENDCHAR
STARTCHAR 03B3
ENCODING 947
SWIDTH 720 0
DWIDTH 12 0
BBX 12 12 0 -2
BITMAP
0000
0000
0000
0000
18C0
2500
0200
0400
0400
0800
0800
1000
ENDCHAR
STARTCHAR 03B4
ENCODING 948
SWIDTH 720 0
DWIDTH 12 0
BBX 12 12 0 -2
BITMAP
0000
0700
0880
0440
0200
0D00
1080
2080
2100
1200
0C00
0000
ENDCHAR
STARTCHAR 03B5
ENCODING 949
SWIDTH 720 0
DWIDTH 12 0
BBX 12 12 0 -2
BITMAP
0000
0000
0000
0000
0F00
1080
1000
1E00
2080
2100
1E00
0000
ENDCHAR
STARTCHAR 03B6
ENCODING 950
SWIDTH 720 0
DWIDTH 12 0
BBX 12 12 0 -2
BITMAP
0000
0800
08C0
0780
0200
0C00
1000
2000
2000
1E00
0100
1E00
ENDCHAR
STARTCHAR 03B7
ENCODING 951
SWIDTH 720 0
DWIDTH 12 0
BBX 12 12 0 -2
BITMAP
0000
0000
0000
0000
1380
2C40
0840
1040
1080
2080
0100
0100
ENDCHAR
STARTCHAR 03B8
ENCODING 952
SWIDTH 720 0
DWIDTH 12 0
BBX 12 12 0 -2
BITMAP
0000
0380
0440
0840
1040
1FC0
2080
2080
2100
1200
0C00
0000
ENDCHAR
STARTCHAR 03B9
ENCODING 953
SWIDTH 720 0
DWIDTH 12 0
BBX 12 12 0 -2
BITMAP
0000
0000
0000
0000
0400
0800
0800
1000
1080
1300
0C00
0000
ENDCHAR
STARTCHAR 03BA
ENCODING 954
SWIDTH 720 0
DWIDTH 12 0
BBX 12 12 0 -2
BITMAP
0000
0000
0000
0000
08C0
0900
1E00
1400
2480
2480
4300
0000
ENDCHAR
STARTCHAR 03BB
ENCODING 955
SWIDTH 720 0
DWIDTH 12 0
BBX 12 12 0 -2
BITMAP
0000
0C00
0200
0200
0200
0200
0600
0A00
1100
2100
20C0
0000
ENDCHAR
STARTCHAR 03BC
ENCODING 956
SWIDTH 720 0
DWIDTH 12 0
BBX 12 12 0 -2
BITMAP
0000
0000
0000
0000
0880
0880
1080
1100
2100
3300
4CC0
4000
ENDCHAR
STARTCHAR 03BD
ENCODING 957
SWIDTH 720 0
DWIDTH 12 0
BBX 12 12 0 -2
BITMAP
0000
0000
0000
0000
1080
0880
0900
1100
1200
1400
3800
0000
ENDCHAR
STARTCHAR 03BE
ENCODING 958
SWIDTH 720 0
DWIDTH 12 0
BBX 12 12 0 -2
BITMAP
0000
0800
0F00
1000
1000
1E00
2000
2000
1F00
0080
1080
0F00
ENDCHAR
STARTCHAR 03BF
ENCODING 959
SWIDTH 720 0
DWIDTH 12 0
BBX 12 12 0 -2
BITMAP
0000
0000
0000
0000
0F00
1080
2080
2080
2080
2100
1E00
0000
ENDCHAR
STARTCHAR 03C0
ENCODING 960
SWIDTH 720 0
DWIDTH 12 0
BBX 12 12 0 -2
BITMAP
0000
0000
0000
0040
1F80
2900
0A00
1200
1480
2480
4300
0000
ENDCHAR
STARTCHAR 03C1
ENCODING 961
SWIDTH 720 0
DWIDTH 12 0
BBX 12 12 0 -2
BITMAP
0000
0000
0000
0000
0780
0840
1040
1040
1880
2700
2000
2000
ENDCHAR
STARTCHAR 03C3
ENCODING 963
SWIDTH 720 0
DWIDTH 12 0
BBX 12 12 0 -2
BITMAP
0000
0000
0000
0020
07E0
1900
2080
2080
2080
1100
0E00
0000
ENDCHAR
STARTCHAR 03C4
ENCODING 964
SWIDTH 720 0
DWIDTH 12 0
BBX 12 12 0 -2
BITMAP
0000
0000
0000
0040
1F80
2400
0800
0800
1000
1100
0E00
0000
ENDCHAR
STARTCHAR 03C5
ENCODING 965
SWIDTH 720 0
DWIDTH 12 0
BBX 12 12 0 -2
BITMAP
0000
0000
0000
0000
2080
5040
1040
1080
2080
2300
1C00
0000
ENDCHAR
STARTCHAR 03C6
ENCODING 966
SWIDTH 720 0
DWIDTH 12 0
BBX 12 12 0 -2
BITMAP
0000
0100
0100
0200
0F00
1280
2240
2440
2480
1F00
0800
0800
ENDCHAR
STARTCHAR 03C7
ENCODING 967
SWIDTH 720 0
DWIDTH 12 0
BBX 12 12 0 -2
BITMAP
0000
0000
0000
0080
1080
2900
2600
0400
0C00
1400
2280
2100
ENDCHAR
STARTCHAR 03C8
ENCODING 968
SWIDTH 720 0
DWIDTH 12 0
BBX 12 12 0 -2
BITMAP
0000
0100
0100
0100
2280
1240
1240
2440
2480
1F00
0800
0800
ENDCHAR
STARTCHAR 03C9
ENCODING 969
SWIDTH 720 0
DWIDTH 12 0
BBX 12 12 0 -2
BITMAP
0000
0000
0000
0000
0840
1020
1020
2220
2220
2640
1980
0000
ENDCHAR
STARTCHAR 0401
ENCODING 1025
SWIDTH 720 0
DWIDTH 12 0
BBX 12 12 0 -2
BITMAP
3300
1200
7F80
2040
2000
2100
3F00
2100
2040
2040
7F80
0000
ENDCHAR
STARTCHAR 0410
ENCODING 1040
SWIDTH 720 0
DWIDTH 12 0
BBX 12 12 0 -2
BITMAP
0000
0400
0400
0A00
0A00
1100
1100
1F00
2080
2080
71C0
0000
ENDCHAR
STARTCHAR 0411
ENCODING 1041
SWIDTH 720 0
DWIDTH 12 0
BBX 12 12 0 -2
BITMAP
0000
3FC0
1040
1040
1000
1F00
1080
1040
1040
1080
3F00
0000
ENDCHAR
STARTCHAR 0412
ENCODING 1042
SWIDTH 720 0
DWIDTH 12 0
BBX 12 12 0 -2
BITMAP
0000
3F00
1080
1040
1080
1F00
1080
1040
1040
1080
3F00
0000
ENDCHAR
STARTCHAR 0413
ENCODING 1043
SWIDTH 720 0
DWIDTH 12 0
BBX 12 12 0 -2
BITMAP
0000
3FC0
1040
1040
1000
1000
1000
1000
1000
1000
3800
0000
ENDCHAR
STARTCHAR 0414
ENCODING 1044
SWIDTH 720 0
DWIDTH 12 0
BBX 12 12 0 -2
BITMAP
0000
1FE0
0480
0480
0480
0480
0880
0880
0880
1080
7FE0
4020
ENDCHAR
STARTCHAR 0415
ENCODING 1045
SWIDTH 720 0
DWIDTH 12 0
BBX 12 12 0 -2
BITMAP
0000
7F80
2040
2000
2100
3F00
2100
2000
2040
2040
7F80
0000
ENDCHAR
STARTCHAR 0416
ENCODING 1046
SWIDTH 720 0
DWIDTH 12 0
BBX 12 12 0 -2
BITMAP
0000
4E40
A4A0
2480
2480
1F00
2480
2480
4440
4440
EEE0
0000
ENDCHAR
STARTCHAR 0417
ENCODING 1047
SWIDTH 720 0
DWIDTH 12 0
BBX 12 12 0 -2
BITMAP
0000
0F00
1080
2040
0080
0700
0080
0040
2040
3080
2F00
0000
ENDCHAR
STARTCHAR 0418
ENCODING 1048
SWIDTH 720 0
DWIDTH 12 0
BBX 12 12 0 -2
BITMAP
0000
71C0
2080
2080
2180
2280
2480
2880
3080
2080
71C0
0000
ENDCHAR
STARTCHAR 0419
ENCODING 1049
SWIDTH 720 0
DWIDTH 12 0
BBX 12 12 0 -2
BITMAP
0A00
64C0
2080
2080
2180
2280
2480
2880
3080
2080
71C0
0000
ENDCHAR
STARTCHAR 041A
ENCODING 1050
SWIDTH 720 0
DWIDTH 12 0
BBX 12 12 0 -2
BITMAP
0000
7080
2140
2200
2400
3800
2400
2200
2100
2080
70E0
0000
ENDCHAR
STARTCHAR 041B
ENCODING 1051
SWIDTH 720 0
DWIDTH 12 0
BBX 12 12 0 -2
BITMAP
0000
1FE0
0440
0440
0440
0440
0840
0840
0840
5040
20E0
0000
ENDCHAR
STARTCHAR 041C
ENCODING 1052
SWIDTH 720 0
DWIDTH 12 0
BBX 12 12 0 -2
BITMAP
0000
60C0
2080
3180
3180
2A80
4A40
4440
4440
4440
E0E0
0000
ENDCHAR
STARTCHAR 041D
ENCODING 1053
SWIDTH 720 0
DWIDTH 12 0
BBX 12 12 0 -2
BITMAP
0000
71C0
2080
2080
2080
3F80
2080
2080
2080
2080
71C0
0000
ENDCHAR
STARTCHAR 041E
ENCODING 1054
SWIDTH 720 0
DWIDTH 12 0
BBX 12 12 0 -2
BITMAP
0000
0F00
1080
2040
4020
4020
4020
4020
2040
1080
0F00
0000
ENDCHAR
STARTCHAR 041F
ENCODING 1055
SWIDTH 720 0
DWIDTH 12 0
BBX 12 12 0 -2
BITMAP
0000
7FC0
2080
2080
2080
2080
2080
2080
2080
2080
71C0
0000
ENDCHAR
STARTCHAR 0420
ENCODING 1056
SWIDTH 720 0
DWIDTH 12 0
BBX 12 12 0 -2
BITMAP
0000
3F00
1080
1040
1040
1080
1F00
1000
1000
1000
3800
0000
ENDCHAR
STARTCHAR 0421
ENCODING 1057
SWIDTH 720 0
DWIDTH 12 0
BBX 12 12 0 -2
BITMAP
0000
0F40
10C0
2040
4000
4000
4000
4000
2040
1080
0F00
0000
ENDCHAR
STARTCHAR 0422
ENCODING 1058
SWIDTH 720 0
DWIDTH 12 0
BBX 12 12 0 -2
BITMAP
0000
3F80
4440
4440
0400
0400
0400
0400
0400
0400
0E00
0000
ENDCHAR
STARTCHAR 0423
ENCODING 1059
SWIDTH 720 0
DWIDTH 12 0
BBX 12 12 0 -2
BITMAP
0000
70E0
2040
1080
1080
0900
0900
0600
0200
2400
1800
0000
ENDCHAR
STARTCHAR 0424
ENCODING 1060
SWIDTH 720 0
DWIDTH 12 0
BBX 12 12 0 -2
BITMAP
0000
0E00
0400
1F00
2480
4440
4440
2480
1F00
0400
0E00
0000
ENDCHAR
STARTCHAR 0425
ENCODING 1061
SWIDTH 720 0
DWIDTH 12 0
BBX 12 12 0 -2
BITMAP
0000
70E0
2040
1080
0900
0600
0600
0900
1080
2040
70E0
0000
ENDCHAR
STARTCHAR 0426
ENCODING 1062
SWIDTH 720 0
DWIDTH 12 0
BBX 12 12 0 -2
BITMAP
0000
71C0
2080
2080
2080
2080
2080
2080
2080
2080
7FE0
0020
ENDCHAR
STARTCHAR 0427
ENCODING 1063
SWIDTH 720 0
DWIDTH 12 0
BBX 12 12 0 -2
BITMAP
0000
71C0
2080
2080
2080
2080
1180
0E80
0080
0080
01C0
0000
ENDCHAR
STARTCHAR 0428
ENCODING 1064
SWIDTH 720 0
DWIDTH 12 0
BBX 12 12 0 -2
BITMAP
0000
EEE0
4440
4440
4440
4440
4440
4440
4440
4440
FFE0
0000
ENDCHAR
STARTCHAR 0429
ENCODING 1065
SWIDTH 720 0
DWIDTH 12 0
BBX 12 12 0 -2
BITMAP
0000
EEE0
4440
4440
4440
4440
4440
4440
4440
4440
FFF0
0010
ENDCHAR
STARTCHAR 042A
ENCODING 1066
SWIDTH 720 0
DWIDTH 12 0
BBX 12 12 0 -2
BITMAP
0000
7800
8800
0800
0F80
0840
0820
0820
0820
0840
1F80
0000
ENDCHAR
STARTCHAR 042B
ENCODING 1067
SWIDTH 720 0
DWIDTH 12 0
BBX 12 12 0 -2
BITMAP
0000
E0E0
4040
4040
7C40
4240
4140
4140
4140
4240
FCE0
0000
ENDCHAR
STARTCHAR 042C
ENCODING 1068
SWIDTH 720 0
DWIDTH 12 0
BBX 12 12 0 -2
BITMAP
0000
3800
1000
1000
1F00
1080
1040
1040
1040
1080
3F00
0000
ENDCHAR
STARTCHAR 042D
ENCODING 1069
SWIDTH 720 0
DWIDTH 12 0
BBX 12 12 0 -2
BITMAP
0000
2F00
3080
2040
0040
0CC0
1340
0040
2040
1080
0F00
0000
ENDCHAR
STARTCHAR 042E
ENCODING 1070
SWIDTH 720 0
DWIDTH 12 0
BBX 12 12 0 -2
BITMAP
0000
E3C0
4420
4810
4810
7810
4810
4810
4810
4420
E3C0
0000
ENDCHAR
STARTCHAR 042F
ENCODING 1071
SWIDTH 720 0
DWIDTH 12 0
BBX 12 12 0 -2
BITMAP
0000
0FE0
1040
2040
1040
0FC0
0440
0440
0840
1040
60E0
0000
ENDCHAR
STARTCHAR 0430
ENCODING 1072
SWIDTH 720 0
DWIDTH 12 0
BBX 12 12 0 -2
BITMAP
0000
0000
0000
0000
0F00
1080
0780
1880
2080
2120
1EC0
0000
ENDCHAR
STARTCHAR 0431
ENCODING 1073
SWIDTH 720 0
DWIDTH 12 0
BBX 12 12 0 -2
BITMAP
0080
0F00
1000
2000
2F00
3080
2040
2040
2040
1080
0F00
0000
ENDCHAR
STARTCHAR 0432
ENCODING 1074
SWIDTH 720 0
DWIDTH 12 0
BBX 12 12 0 -2
BITMAP
0000
0000
0000
0000
3F00
1080
1080
1F00
1080
1080
3F00
0000
ENDCHAR
STARTCHAR 0433
ENCODING 1075
SWIDTH 720 0
DWIDTH 12 0
BBX 12 12 0 -2
BITMAP
0000
0000
0000
0000
3F00
1080
1000
1000
1000
1000
3800
0000
ENDCHAR
STARTCHAR 0434
ENCODING 1076
SWIDTH 720 0
DWIDTH 12 0
BBX 12 12 0 -2
BITMAP
0000
0000
0000
0000
0FC0
0480
0480
0480
0880
0880
3FC0
2040
ENDCHAR
STARTCHAR 0435
ENCODING 1077
SWIDTH 720 0
DWIDTH 12 0
BBX 12 12 0 -2
BITMAP
0000
0000
0000
0000
0F00
1080
2040
3FC0
2000
1040
0F80
0000
ENDCHAR
STARTCHAR 0436
ENCODING 1078
SWIDTH 720 0
DWIDTH 12 0
BBX 12 12 0 -2
BITMAP
0000
0000
0000
0000
4E40
A4A0
1500
0E00
1F00
2480
EEE0
0000
ENDCHAR
STARTCHAR 0437
ENCODING 1079
SWIDTH 720 0
DWIDTH 12 0
BBX 12 12 0 -2
BITMAP
0000
0000
0000
0000
1700
1880
0080
0780
1080
1080
0F00
0000
ENDCHAR
STARTCHAR 0438
ENCODING 1080
SWIDTH 720 0
DWIDTH 12 0
BBX 12 12 0 -2
BITMAP
0000
0000
0000
0000
39C0
1180
1280
1480
1880
1080
39C0
0000
ENDCHAR
STARTCHAR 0439
ENCODING 1081
SWIDTH 720 0
DWIDTH 12 0
BBX 12 12 0 -2
BITMAP
0000
1080
0F00
0000
39C0
1180
1280
1480
1880
1080
39C0
0000
ENDCHAR
STARTCHAR 043A
ENCODING 1082
SWIDTH 720 0
DWIDTH 12 0
BBX 12 12 0 -2
BITMAP
0000
0000
0000
0000
3900
1280
1400
1C00
1200
1100
39C0
0000
ENDCHAR
STARTCHAR 043B
ENCODING 1083
SWIDTH 720 0
DWIDTH 12 0
BBX 12 12 0 -2
BITMAP
0000
0000
0000
0000
0FC0
0480
0480
0480
0880
2880
11C0
0000
ENDCHAR
STARTCHAR 043C
ENCODING 1084
SWIDTH 720 0
DWIDTH 12 0
BBX 12 12 0 -2
BITMAP
0000
0000
0000
0000
60C0
3180
3180
2A80
2A80
2480
75C0
0000
ENDCHAR
STARTCHAR 043D
ENCODING 1085
SWIDTH 720 0
DWIDTH 12 0
BBX 12 12 0 -2
BITMAP
0000
0000
0000
0000
39C0
1080
1080
1F80
1080
1080
39C0
0000
ENDCHAR
STARTCHAR 043E
ENCODING 1086
SWIDTH 720 0
DWIDTH 12 0
BBX 12 12 0 -2
BITMAP
0000
0000
0000
0000
0F00
1080
2040
2040
2040
1080
0F00
0000
ENDCHAR
STARTCHAR 043F
ENCODING 1087
SWIDTH 720 0
DWIDTH 12 0
BBX 12 12 0 -2
BITMAP
0000
0000
0000
0000
3FC0
1080
1080
1080
1080
1080
39C0
0000
ENDCHAR
STARTCHAR 0440
ENCODING 1088
SWIDTH 720 0
DWIDTH 12 0
BBX 12 12 0 -2
BITMAP
0000
0000
0000
0000
3700
1880
1040
1040
1880
1700
1000
3800
ENDCHAR
STARTCHAR 0441
ENCODING 1089
SWIDTH 720 0
DWIDTH 12 0
BBX 12 12 0 -2
BITMAP
0000
0000
0000
0000
0F00
1080
2000
2000
2000
1080
0F00
0000
ENDCHAR
STARTCHAR 0442
ENCODING 1090
SWIDTH 720 0
DWIDTH 12 0
BBX 12 12 0 -2
BITMAP
0000
0000
0000
0000
1F00
2480
0400
0400
0400
0400
0E00
0000
ENDCHAR
STARTCHAR 0443
ENCODING 1091
SWIDTH 720 0
DWIDTH 12 0
BBX 12 12 0 -2
BITMAP
0000
0000
0000
0000
39C0
1080
0880
0500
0300
0200
1200
0C00
ENDCHAR
STARTCHAR 0444
ENCODING 1092
SWIDTH 720 0
DWIDTH 12 0
BBX 12 12 0 -2
BITMAP
0000
0E00
0400
1F00
2E80
4440
4440
4440
2E80
1F00
0400
0E00
ENDCHAR
STARTCHAR 0445
ENCODING 1093
SWIDTH 720 0
DWIDTH 12 0
BBX 12 12 0 -2
BITMAP
0000
0000
0000
0000
3B80
1100
0A00
0400
0A00
1100
3B80
0000
ENDCHAR
STARTCHAR 0446
ENCODING 1094
SWIDTH 720 0
DWIDTH 12 0
BBX 12 12 0 -2
BITMAP
0000
0000
0000
0000
39C0
1080
1080
1080
1080
1080
3FC0
0040
ENDCHAR
STARTCHAR 0447
ENCODING 1095
SWIDTH 720 0
DWIDTH 12 0
BBX 12 12 0 -2
BITMAP
0000
0000
0000
0000
39C0
1080
1080
0F80
0080
0080
01C0
0000
ENDCHAR
STARTCHAR 0448
ENCODING 1096
SWIDTH 720 0
DWIDTH 12 0
BBX 12 12 0 -2
BITMAP
0000
0000
0000
0000
2480
2480
2480
2480
2480
2480
3F80
0000
ENDCHAR
STARTCHAR 0449
ENCODING 1097
SWIDTH 720 0
DWIDTH 12 0
BBX 12 12 0 -2
BITMAP
0000
0000
0000
0000
2480
2480
2480
2480
2480
2480
3FE0
0020
ENDCHAR
STARTCHAR 044A
ENCODING 1098
SWIDTH 720 0
DWIDTH 12 0
BBX 12 12 0 -2
BITMAP
0000
0000
0000
0000
3C00
4400
07C0
0420
0420
0420
0FC0
0000
ENDCHAR
STARTCHAR 044B
ENCODING 1099
SWIDTH 720 0
DWIDTH 12 0
BBX 12 12 0 -2
BITMAP
0000
0000
0000
0000
70E0
2040
2040
3C40
2240
2240
7CE0
0000
ENDCHAR
STARTCHAR 044C
ENCODING 1100
SWIDTH 720 0
DWIDTH 12 0
BBX 12 12 0 -2
BITMAP
0000
0000
0000
0000
3800
1000
1F00
1080
1080
1080
3F00
0000
ENDCHAR
STARTCHAR 044D
ENCODING 1101
SWIDTH 720 0
DWIDTH 12 0
BBX 12 12 0 -2
BITMAP
0000
0000
0000
0000
1F00
2080
0980
1680
0080
2080
1F00
0000
ENDCHAR
STARTCHAR 044E
ENCODING 1102
SWIDTH 720 0
DWIDTH 12 0
BBX 12 12 0 -2
BITMAP
0000
0000
0000
0000
7380
2440
2820
3820
2820
2440
7380
0000
ENDCHAR
STARTCHAR 044F
ENCODING 1103
SWIDTH 720 0
DWIDTH 12 0
BBX 12 12 0 -2
BITMAP
0000
0000
0000
0000
0FC0
1080
1080
0F80
0880
1080
39C0
0000
ENDCHAR
STARTCHAR 0451
ENCODING 1105
SWIDTH 720 0
DWIDTH 12 0
BBX 12 12 0 -2
BITMAP
0000
1980
1980
0000
0F00
1080
2040
3FC0
2000
1040
0F80
0000
ENDCHAR
STARTCHAR 2000
ENCODING 8192
SWIDTH 720 0
DWIDTH 12 0
BBX 12 12 0 -2
BITMAP
0000
0000
0000
0000
0000
0000
0000
0000
0000
0000
0000
0000
ENDCHAR
STARTCHAR 2001
ENCODING 8193
SWIDTH 720 0
DWIDTH 12 0
BBX 12 12 0 -2
BITMAP
0000
0000
0000
0000
0000
0000
0000
0000
0000
0000
0000
0000
ENDCHAR
STARTCHAR 2002
ENCODING 8194
SWIDTH 720 0
DWIDTH 12 0
BBX 12 12 0 -2
BITMAP
0000
0000
0000
0000
0000
0000
0000
0000
0000
0000
0000
0000
ENDCHAR
STARTCHAR 2003
ENCODING 8195
SWIDTH 720 0
DWIDTH 12 0
BBX 12 12 0 -2
BITMAP
0000
0000
0000
0000
0000
0000
0000
0000
0000
0000
0000
0000
ENDCHAR
STARTCHAR 2004
ENCODING 8196
SWIDTH 720 0
DWIDTH 12 0
BBX 12 12 0 -2
BITMAP
0000
0000
0000
0000
0000
0000
0000
0000
0000
0000
0000
0000
ENDCHAR
STARTCHAR 2005
ENCODING 8197
SWIDTH 720 0
DWIDTH 12 0
BBX 12 12 0 -2
BITMAP
0000
0000
0000
0000
0000
0000
0000
0000
0000
0000
0000
0000
ENDCHAR
STARTCHAR 2006
ENCODING 8198
SWIDTH 720 0
DWIDTH 12 0
BBX 12 12 0 -2
BITMAP
0000
0000
0000
0000
0000
0000
0000
0000
0000
0000
0000
0000
ENDCHAR
STARTCHAR 2007
ENCODING 8199
SWIDTH 720 0
DWIDTH 12 0
BBX 12 12 0 -2
BITMAP
0000
0000
0000
0000
0000
0000
0000
0000
0000
0000
0000
0000
ENDCHAR
STARTCHAR 2008
ENCODING 8200
SWIDTH 720 0
DWIDTH 12 0
BBX 12 12 0 -2
BITMAP
0000
0000
0000
0000
0000
0000
0000
0000
0000
0000
0000
0000
ENDCHAR
STARTCHAR 2009
ENCODING 8201
SWIDTH 720 0
DWIDTH 12 0
BBX 12 12 0 -2
BITMAP
0000
0000
0000
0000
0000
0000
0000
0000
0000
0000
0000
0000
ENDCHAR
STARTCHAR 200A
ENCODING 8202
SWIDTH 720 0
DWIDTH 12 0
BBX 12 12 0 -2
BITMAP
0000
0000
0000
0000
0000
0000
0000
0000
0000
0000
0000
0000
ENDCHAR
STARTCHAR 200B
ENCODING 8203
SWIDTH 360 0
DWIDTH 6 0
BBX 1 1 0 0
BITMAP
00
ENDCHAR
STARTCHAR 200C
ENCODING 8204
SWIDTH 360 0
DWIDTH 6 0
BBX 1 1 0 0
BITMAP
00
ENDCHAR
STARTCHAR 200D
ENCODING 8205
SWIDTH 360 0
DWIDTH 6 0
BBX 1 1 0 0
BITMAP
00
ENDCHAR
STARTCHAR 200E
ENCODING 8206
SWIDTH 360 0
DWIDTH 6 0
BBX 1 1 0 0
BITMAP
00
ENDCHAR
STARTCHAR 200F
ENCODING 8207
SWIDTH 360 0
DWIDTH 6 0
BBX 1 1 0 0
BITMAP
00
ENDCHAR
STARTCHAR 2010
ENCODING 8208
SWIDTH 720 0
DWIDTH 12 0
BBX 4 1 4 3
BITMAP
F0
ENDCHAR
STARTCHAR 2015
ENCODING 8213
SWIDTH 720 0
DWIDTH 12 0
BBX 12 1 0 3
BITMAP
FFF0
ENDCHAR
STARTCHAR 2016
ENCODING 8214
SWIDTH 720 0
DWIDTH 12 0
BBX 4 12 4 -2
BITMAP
90
90
90
90
90
90
90
90
90
90
90
90
ENDCHAR
STARTCHAR 2018
ENCODING 8216
SWIDTH 720 0
DWIDTH 12 0
BBX 3 3 8 7
BITMAP
60
C0
C0
ENDCHAR
STARTCHAR 2019
ENCODING 8217
SWIDTH 720 0
DWIDTH 12 0
BBX 3 3 1 7
BITMAP
60
60
C0
ENDCHAR
STARTCHAR 201C
ENCODING 8220
SWIDTH 720 0
DWIDTH 12 0
BBX 6 3 5 7
BITMAP
6C
D8
D8
ENDCHAR
STARTCHAR 201D
ENCODING 8221
SWIDTH 720 0
DWIDTH 12 0
BBX 6 3 1 7
BITMAP
6C
6C
D8
ENDCHAR
STARTCHAR 2020
ENCODING 8224
SWIDTH 720 0
DWIDTH 12 0
BBX 9 12 1 -2
BITMAP
1C00
1C00
4900
FF80
4900
1C00
1C00
1C00
1C00
0800
0800
0800
ENDCHAR
STARTCHAR 2021
ENCODING 8225
SWIDTH 720 0
DWIDTH 12 0
BBX 9 12 1 -2
BITMAP
1C00
1C00
4900
FF80
4900
0800
0800
4900
FF80
4900
1C00
1C00
ENDCHAR
STARTCHAR 2025
ENCODING 8229
SWIDTH 720 0
DWIDTH 12 0
BBX 8 2 2 3
BITMAP
C3
C3
ENDCHAR
STARTCHAR 2026
ENCODING 8230
SWIDTH 720 0
DWIDTH 12 0
BBX 10 2 1 3
BITMAP
CCC0
CCC0
ENDCHAR
STARTCHAR 2030
ENCODING 8240
SWIDTH 720 0
DWIDTH 12 0
BBX 12 12 0 -2
BITMAP
6200
9400
9400
9800
6800
1000
1000
2C60
3290
5290
5290
8C60
ENDCHAR
STARTCHAR 2032
ENCODING 8242
SWIDTH 720 0
DWIDTH 12 0
BBX 3 3 2 6
BITMAP
60
40
80
ENDCHAR
STARTCHAR 2033
ENCODING 8243
SWIDTH 720 0
DWIDTH 12 0
BBX 6 3 0 6
BITMAP
6C
48
90
ENDCHAR
STARTCHAR 203B
ENCODING 8251
SWIDTH 720 0
DWIDTH 12 0
BBX 10 10 1 -1
BITMAP
8C40
4C80
2100
1200
CCC0
CCC0
1200
2100
4C80
8C40
ENDCHAR
STARTCHAR 203E
ENCODING 8254
SWIDTH 360 0
DWIDTH 6 0
BBX 5 1 0 7
BITMAP
F8
ENDCHAR
STARTCHAR 2103
ENCODING 8451
SWIDTH 720 0
DWIDTH 12 0
BBX 12 12 0 -2
BITMAP
0000
43A0
A460
4820
1000
1000
1000
1000
1000
0820
0440
0380
ENDCHAR
STARTCHAR 212B
ENCODING 8491
SWIDTH 720 0
DWIDTH 12 0
BBX 12 12 0 -2
BITMAP
0400
0A00
0A00
0400
0A00
0A00
1100
1F00
2080
2080
71C0
0000
ENDCHAR
STARTCHAR 2190
ENCODING 8592
SWIDTH 720 0
DWIDTH 12 0
BBX 12 12 0 -2
BITMAP
0000
0000
0000
0C00
3000
FFF0
3000
0C00
0000
0000
0000
0000
ENDCHAR
STARTCHAR 2191
ENCODING 8593
SWIDTH 720 0
DWIDTH 12 0
BBX 12 12 0 -2
BITMAP
0400
0400
0E00
0E00
1500
1500
0400
0400
0400
0400
0400
0400
ENDCHAR
STARTCHAR 2192
ENCODING 8594
SWIDTH 720 0
DWIDTH 12 0
BBX 12 12 0 -2
BITMAP
0000
0000
0000
0300
00C0
FFF0
00C0
0300
0000
0000
0000
0000
ENDCHAR
STARTCHAR 2193
ENCODING 8595
SWIDTH 720 0
DWIDTH 12 0
BBX 12 12 0 -2
BITMAP
0400
0400
0400
0400
0400
0400
1500
1500
0E00
0E00
0400
0400
ENDCHAR
STARTCHAR 21D2
ENCODING 8658
SWIDTH 720 0
DWIDTH 12 0
BBX 12 12 0 -2
BITMAP
0000
0000
0080
0040
FFE0
0010
0010
FFE0
0040
0080
0000
0000
ENDCHAR
STARTCHAR 21D4
ENCODING 8660
SWIDTH 720 0
DWIDTH 12 0
BBX 12 12 0 -2
BITMAP
0000
0000
1080
2040
7FE0
8010
8010
7FE0
2040
1080
0000
0000
ENDCHAR
STARTCHAR 2200
ENCODING 8704
SWIDTH 720 0
DWIDTH 12 0
BBX 12 12 0 -2
BITMAP
0000
4040
4040
2080
3F80
1100
1100
0A00
0A00
0400
0400
0000
ENDCHAR
STARTCHAR 2202
ENCODING 8706
SWIDTH 720 0
DWIDTH 12 0
BBX 12 12 0 -2
BITMAP
0000
0780
0840
0040
0640
0940
1080
2080
2100
1200
0C00
0000
ENDCHAR
STARTCHAR 2203
ENCODING 8707
SWIDTH 720 0
DWIDTH 12 0
BBX 12 12 0 -2
BITMAP
0000
3FC0
0040
0040
0040
3FC0
0040
0040
0040
3FC0
0000
0000
ENDCHAR
STARTCHAR 2207
ENCODING 8711
SWIDTH 720 0
DWIDTH 12 0
BBX 12 12 0 -2
BITMAP
0000
FFE0
7FC0
6040
3080
3080
1900
1900
0E00
0E00
0400
0400
ENDCHAR
STARTCHAR 2208
ENCODING 8712
SWIDTH 720 0
DWIDTH 12 0
BBX 12 12 0 -2
BITMAP
0000
0000
0FC0
1000
2000
3FC0
2000
1000
0FC0
0000
0000
0000
ENDCHAR
STARTCHAR 220B
ENCODING 8715
SWIDTH 720 0
DWIDTH 12 0
BBX 12 12 0 -2
BITMAP
0000
0000
3F00
0080
0040
3FC0
0040
0080
3F00
0000
0000
0000
ENDCHAR
STARTCHAR 2212
ENCODING 8722
SWIDTH 720 0
DWIDTH 12 0
BBX 12 12 0 -2
BITMAP
0000
0000
0000
0000
0000
7FC0
0000
0000
0000
0000
0000
0000
ENDCHAR
STARTCHAR 221D
ENCODING 8733
SWIDTH 720 0
DWIDTH 12 0
BBX 12 12 0 -2
BITMAP
0000
0000
0000
3180
4A40
8400
8400
4A40
3180
0000
0000
0000
ENDCHAR
STARTCHAR 221E
ENCODING 8734
SWIDTH 720 0
DWIDTH 12 0
BBX 12 12 0 -2
BITMAP
0000
0000
0000
3180
4A40
8420
8420
4A40
3180
0000
0000
0000
ENDCHAR
STARTCHAR 2227
ENCODING 8743
SWIDTH 720 0
DWIDTH 12 0
BBX 12 12 0 -2
BITMAP
0000
0400
0400
0A00
0A00
1100
1100
2080
2080
4040
4040
0000
ENDCHAR
STARTCHAR 2228
ENCODING 8744
SWIDTH 720 0
DWIDTH 12 0
BBX 12 12 0 -2
BITMAP
0000
4040
4040
2080
2080
1100
1100
0A00
0A00
0400
0400
0000
ENDCHAR
STARTCHAR 222C
ENCODING 8748
SWIDTH 720 0
DWIDTH 12 0
BBX 12 12 0 -2
BITMAP
0880
1540
1100
1100
1100
1100
0880
0880
0880
0880
2A80
1100
ENDCHAR
STARTCHAR 2234
ENCODING 8756
SWIDTH 720 0
DWIDTH 12 0
BBX 12 12 0 -2
BITMAP
0000
0000
0600
0600
0000
0000
0000
0000
30C0
30C0
0000
0000
ENDCHAR
STARTCHAR 223D
ENCODING 8765
SWIDTH 720 0
DWIDTH 12 0
BBX 12 12 0 -2
BITMAP
0000
0000
0000
3180
4240
8420
8420
4840
3180
0000
0000
0000
ENDCHAR
STARTCHAR 2260
ENCODING 8800
SWIDTH 720 0
DWIDTH 12 0
BBX 12 12 0 -2
BITMAP
0000
0080
0100
0100
7FE0
0200
0400
7FE0
0800
0800
1000
0000
ENDCHAR
STARTCHAR 2266
ENCODING 8806
SWIDTH 720 0
DWIDTH 12 0
BBX 12 12 0 -2
BITMAP
0000
0060
0380
1C00
6000
1C00
0380
0060
0000
7FE0
0000
7FE0
ENDCHAR
STARTCHAR 2267
ENCODING 8807
SWIDTH 720 0
DWIDTH 12 0
BBX 12 12 0 -2
BITMAP
0000
6000
1C00
0380
0060
0380
1C00
6000
0000
7FE0
0000
7FE0
ENDCHAR
STARTCHAR 226A
ENCODING 8810
SWIDTH 720 0
DWIDTH 12 0
BBX 12 12 0 -2
BITMAP
0000
0000
0440
0880
1100
2200
4400
2200
1100
0880
0440
0000
ENDCHAR
STARTCHAR 226B
ENCODING 8811
SWIDTH 720 0
DWIDTH 12 0
BBX 12 12 0 -2
BITMAP
0000
0000
2200
1100
0880
0440
0220
0440
0880
1100
2200
0000
ENDCHAR
STARTCHAR 2282
ENCODING 8834
SWIDTH 720 0
DWIDTH 12 0
BBX 12 12 0 -2
BITMAP
0000
0000
1FE0
2000
4000
4000
4000
4000
2000
1FE0
0000
0000
ENDCHAR
STARTCHAR 2283
ENCODING 8835
SWIDTH 720 0
DWIDTH 12 0
BBX 12 12 0 -2
BITMAP
0000
0000
7F80
0040
0020
0020
0020
0020
0040
7F80
0000
0000
ENDCHAR
STARTCHAR 2286
ENCODING 8838
SWIDTH 720 0
DWIDTH 12 0
BBX 12 12 0 -2
BITMAP
0000
0000
1FE0
2000
4000
4000
2000
1FE0
0000
0000
3FE0
0000
ENDCHAR
STARTCHAR 2287
ENCODING 8839
SWIDTH 720 0
DWIDTH 12 0
BBX 12 12 0 -2
BITMAP
0000
0000
7F80
0040
0020
0020
0040
7F80
0000
0000
7FC0
0000
ENDCHAR
STARTCHAR 2312
ENCODING 8978
SWIDTH 720 0
DWIDTH 12 0
BBX 12 12 0 -2
BITMAP
0F00
30C0
4020
0000
0000
0000
0000
0000
0000
0000
0000
0000
ENDCHAR
STARTCHAR 2583
ENCODING 9603
SWIDTH 720 0
DWIDTH 12 0
BBX 12 12 0 -2
BITMAP
0000
4400
2400
1400
0800
7400
7400
0800
1400
2400
4400
0000
ENDCHAR
STARTCHAR 2584
ENCODING 9604
SWIDTH 720 0
DWIDTH 12 0
BBX 12 12 0 -2
BITMAP
0000
4400
2400
1400
0800
7400
7400
0800
1400
2400
4400
0000
ENDCHAR
STARTCHAR 2585
ENCODING 9605
SWIDTH 720 0
DWIDTH 12 0
BBX 12 12 0 -2
BITMAP
0000
4400
2400
1400
0800
7400
7400
0800
1400
2400
4400
0000
ENDCHAR
STARTCHAR 2586
ENCODING 9606
SWIDTH 720 0
DWIDTH 12 0
BBX 12 12 0 -2
BITMAP
0000
4400
2400
1400
0800
7400
7400
0800
1400
2400
4400
0000
ENDCHAR
STARTCHAR 2587
ENCODING 9607
SWIDTH 720 0
DWIDTH 12 0
BBX 12 12 0 -2
BITMAP
0000
4400
2400
1400
0800
7400
7400
0800
1400
2400
4400
0000
ENDCHAR
STARTCHAR 2588
ENCODING 9608
SWIDTH 720 0
DWIDTH 12 0
BBX 12 12 0 -2
BITMAP
0000
4400
2400
1400
0800
7400
7400
0800
1400
2400
4400
0000
ENDCHAR
STARTCHAR 2589
ENCODING 9609
SWIDTH 720 0
DWIDTH 12 0
BBX 12 12 0 -2
BITMAP
0000
4400
2400
1400
0800
7400
7400
0800
1400
2400
4400
0000
ENDCHAR
STARTCHAR 258A
ENCODING 9610
SWIDTH 720 0
DWIDTH 12 0
BBX 12 12 0 -2
BITMAP
0000
4400
2400
1400
0800
7400
7400
0800
1400
2400
4400
0000
ENDCHAR
STARTCHAR 258B
ENCODING 9611
SWIDTH 720 0
DWIDTH 12 0
BBX 12 12 0 -2
BITMAP
0000
4400
2400
1400
0800
7400
7400
0800
1400
2400
4400
0000
ENDCHAR
STARTCHAR 258C
ENCODING 9612
SWIDTH 720 0
DWIDTH 12 0
BBX 12 12 0 -2
BITMAP
0000
4400
2400
1400
0800
7400
7400
0800
1400
2400
4400
0000
ENDCHAR
STARTCHAR 258D
ENCODING 9613
SWIDTH 720 0
DWIDTH 12 0
BBX 12 12 0 -2
BITMAP
0000
4400
2400
1400
0800
7400
7400
0800
1400
2400
4400
0000
ENDCHAR
STARTCHAR 258E
ENCODING 9614
SWIDTH 720 0
DWIDTH 12 0
BBX 12 12 0 -2
BITMAP
0000
4400
2400
1400
0800
7400
7400
0800
1400
2400
4400
0000
ENDCHAR
STARTCHAR 258F
ENCODING 9615
SWIDTH 720 0
DWIDTH 12 0
BBX 12 12 0 -2
BITMAP
0000
4400
2400
1400
0800
7400
7400
0800
1400
2400
4400
0000
ENDCHAR
STARTCHAR 25A0
ENCODING 9632
SWIDTH 720 0
DWIDTH 12 0
BBX 12 12 0 -2
BITMAP
FFF0
FFF0
FFF0
FFF0
FFF0
FFF0
FFF0
FFF0
FFF0
FFF0
FFF0
FFF0
ENDCHAR
STARTCHAR 25A1
ENCODING 9633
SWIDTH 720 0
DWIDTH 12 0
BBX 12 12 0 -2
BITMAP
FFF0
8010
8010
8010
8010
8010
8010
8010
8010
8010
8010
FFF0
ENDCHAR
STARTCHAR 25B2
ENCODING 9650
SWIDTH 720 0
DWIDTH 12 0
BBX 12 12 0 -2
BITMAP
0000
0400
0400
0E00
0E00
1F00
1F00
3F80
3F80
7FC0
7FC0
FFE0
ENDCHAR
STARTCHAR 25B3
ENCODING 9651
SWIDTH 720 0
DWIDTH 12 0
BBX 12 12 0 -2
BITMAP
0000
0400
0400
0A00
0A00
1100
1100
2080
2080
4040
4040
FFE0
ENDCHAR
STARTCHAR 25BC
ENCODING 9660
SWIDTH 720 0
DWIDTH 12 0
BBX 12 12 0 -2
BITMAP
0000
FFE0
7FC0
7FC0
3F80
3F80
1F00
1F00
0E00
0E00
0400
0400
ENDCHAR
STARTCHAR 25BD
ENCODING 9661
SWIDTH 720 0
DWIDTH 12 0
BBX 12 12 0 -2
BITMAP
0000
FFE0
4040
4040
2080
2080
1100
1100
0A00
0A00
0400
0400
ENDCHAR
STARTCHAR 25C6
ENCODING 9670
SWIDTH 720 0
DWIDTH 12 0
BBX 12 12 0 -2
BITMAP
0600
0F00
1F80
3FC0
7FE0
FFF0
FFF0
7FE0
3FC0
1F80
0F00
0600
ENDCHAR
STARTCHAR 25C7
ENCODING 9671
SWIDTH 720 0
DWIDTH 12 0
BBX 12 12 0 -2
BITMAP
0600
0900
1080
2040
4020
8010
8010
4020
2040
1080
0900
0600
ENDCHAR
STARTCHAR 25CB
ENCODING 9675
SWIDTH 720 0
DWIDTH 12 0
BBX 12 12 0 -2
BITMAP
0F00
30C0
4020
4020
8010
8010
8010
8010
4020
4020
30C0
0F00
ENDCHAR
STARTCHAR 25CE
ENCODING 9678
SWIDTH 720 0
DWIDTH 12 0
BBX 12 12 0 -2
BITMAP
0F00
30C0
4F20
50A0
A050
A050
A050
A050
50A0
4F20
30C0
0F00
ENDCHAR
STARTCHAR 25CF
ENCODING 9679
SWIDTH 720 0
DWIDTH 12 0
BBX 12 12 0 -2
BITMAP
0F00
3FC0
7FE0
7FE0
FFF0
FFF0
FFF0
FFF0
7FE0
7FE0
3FC0
0F00
ENDCHAR
STARTCHAR 25EF
ENCODING 9711
SWIDTH 720 0
DWIDTH 12 0
BBX 12 12 0 -2
BITMAP
1F80
2040
4020
8010
8010
8010
8010
8010
8010
4020
2040
1F80
ENDCHAR
STARTCHAR 2605
ENCODING 9733
SWIDTH 720 0
DWIDTH 12 0
BBX 12 12 0 -2
BITMAP
0000
0400
0400
0E00
FFE0
7FC0
3F80
1F00
3F80
3B80
60C0
0000
ENDCHAR
STARTCHAR 2606
ENCODING 9734
SWIDTH 720 0
DWIDTH 12 0
BBX 12 12 0 -2
BITMAP
0000
0400
0400
0A00
FBE0
4040
2080
1100
2480
3B80
60C0
0000
ENDCHAR
STARTCHAR 2640
ENCODING 9792
SWIDTH 720 0
DWIDTH 12 0
BBX 12 12 0 -2
BITMAP
0000
0E00
1100
1100
1100
0E00
0400
0400
3F80
0400
0400
0400
ENDCHAR
STARTCHAR 2642
ENCODING 9794
SWIDTH 720 0
DWIDTH 12 0
BBX 12 12 0 -2
BITMAP
0000
03E0
0060
00A0
0120
0220
3C00
4400
4400
4400
3800
0000
ENDCHAR
STARTCHAR 266A
ENCODING 9834
SWIDTH 720 0
DWIDTH 12 0
BBX 12 12 0 -2
BITMAP
0200
0300
0380
02C0
0240
0240
0240
0280
0200
1E00
3E00
3C00
ENDCHAR
STARTCHAR 266D
ENCODING 9837
SWIDTH 720 0
DWIDTH 12 0
BBX 12 12 0 -2
BITMAP
0800
0800
0800
0800
0B00
0C80
0880
0880
0880
0900
0A00
0C00
ENDCHAR
STARTCHAR 266F
ENCODING 9839
SWIDTH 720 0
DWIDTH 12 0
BBX 12 12 0 -2
BITMAP
0000
0100
0900
09C0
0F00
3900
0900
09C0
0F00
3900
0900
0800
ENDCHAR
STARTCHAR 3000
ENCODING 12288
SWIDTH 720 0
DWIDTH 12 0
BBX 12 12 0 -2
BITMAP
0000
0000
0000
0000
0000
0000
0000
0000
0000
0000
0000
0000
ENDCHAR
STARTCHAR 3001
ENCODING 12289
SWIDTH 720 0
DWIDTH 12 0
BBX 12 12 0 -2
BITMAP
0000
0000
0000
0000
0000
0000
0000
0000
0000
4000
3000
3000
ENDCHAR
STARTCHAR 3002
ENCODING 12290
SWIDTH 720 0
DWIDTH 12 0
BBX 12 12 0 -2
BITMAP
0000
0000
0000
0000
0000
0000
0000
0000
0000
3000
4800
3000
ENDCHAR
STARTCHAR 3003
ENCODING 12291
SWIDTH 720 0
DWIDTH 12 0
BBX 12 12 0 -2
BITMAP
0000
0000
0000
0900
0900
0900
0900
0900
1200
1200
0000
0000
ENDCHAR
STARTCHAR 3005
ENCODING 12293
SWIDTH 720 0
DWIDTH 12 0
BBX 12 12 0 -2
BITMAP
0000
0000
0800
0F80
0880
1080
2080
0D00
0200
0100
0100
0000
ENDCHAR
STARTCHAR 3006
ENCODING 12294
SWIDTH 720 0
DWIDTH 12 0
BBX 12 12 0 -2
BITMAP
0000
0060
0080
0100
1A00
2400
4A00
5100
5000
6000
0000
0000
ENDCHAR
STARTCHAR 3007
ENCODING 12295
SWIDTH 720 0
DWIDTH 12 0
BBX 12 12 0 -2
BITMAP
0000
0F00
30C0
4020
8010
8010
8010
8010
4020
30C0
0F00
0000
ENDCHAR
STARTCHAR 3008
ENCODING 12296
SWIDTH 720 0
DWIDTH 12 0
BBX 12 12 0 -2
BITMAP
0040
0080
0080
0100
0100
0200
0200
0100
0100
0080
0080
0040
ENDCHAR
STARTCHAR 3009
ENCODING 12297
SWIDTH 720 0
DWIDTH 12 0
BBX 12 12 0 -2
BITMAP
2000
1000
1000
0800
0800
0400
0400
0800
0800
1000
1000
2000
ENDCHAR
STARTCHAR 300A
ENCODING 12298
SWIDTH 720 0
DWIDTH 12 0
BBX 12 12 0 -2
BITMAP
0120
0240
0240
0480
0480
0900
0900
0480
0480
0240
0240
0120
ENDCHAR
STARTCHAR 300B
ENCODING 12299
SWIDTH 720 0
DWIDTH 12 0
BBX 12 12 0 -2
BITMAP
4800
2400
2400
1200
1200
0900
0900
1200
1200
2400
2400
4800
ENDCHAR
STARTCHAR 300C
ENCODING 12300
SWIDTH 720 0
DWIDTH 12 0
BBX 12 12 0 -2
BITMAP
03C0
0200
0200
0200
0200
0200
0200
0200
0000
0000
0000
0000
ENDCHAR
STARTCHAR 300D
ENCODING 12301
SWIDTH 720 0
DWIDTH 12 0
BBX 12 12 0 -2
BITMAP
0000
0000
0000
0000
0400
0400
0400
0400
0400
0400
0400
3C00
ENDCHAR
STARTCHAR 300E
ENCODING 12302
SWIDTH 720 0
DWIDTH 12 0
BBX 12 12 0 -2
BITMAP
03E0
0220
02E0
0280
0280
0280
0280
0380
0000
0000
0000
0000
ENDCHAR
STARTCHAR 300F
ENCODING 12303
SWIDTH 720 0
DWIDTH 12 0
BBX 12 12 0 -2
BITMAP
0000
0000
0000
0000
1C00
1400
1400
1400
1400
7400
4400
7C00
ENDCHAR
STARTCHAR 3010
ENCODING 12304
SWIDTH 720 0
DWIDTH 12 0
BBX 12 12 0 -2
BITMAP
03C0
0380
0380
0300
0300
0300
0300
0300
0300
0380
0380
03C0
ENDCHAR
STARTCHAR 3011
ENCODING 12305
SWIDTH 720 0
DWIDTH 12 0
BBX 12 12 0 -2
BITMAP
3C00
1C00
1C00
0C00
0C00
0C00
0C00
0C00
0C00
1C00
1C00
3C00
ENDCHAR
STARTCHAR 3012
ENCODING 12306
SWIDTH 720 0
DWIDTH 12 0
BBX 12 12 0 -2
BITMAP
0000
7FE0
7FE0
0000
FFF0
FFF0
0600
0600
0600
0600
0600
0600
ENDCHAR
STARTCHAR 3013
ENCODING 12307
SWIDTH 720 0
DWIDTH 12 0
BBX 12 12 0 -2
BITMAP
0000
0000
FFF0
FFF0
FFF0
0000
0000
FFF0
FFF0
FFF0
0000
0000
ENDCHAR
STARTCHAR 3014
ENCODING 12308
SWIDTH 720 0
DWIDTH 12 0
BBX 12 12 0 -2
BITMAP
00C0
0300
0200
0200
0200
0200
0200
0200
0200
0200
0300
00C0
ENDCHAR
STARTCHAR 3015
ENCODING 12309
SWIDTH 720 0
DWIDTH 12 0
BBX 12 12 0 -2
BITMAP
3000
0C00
0400
0400
0400
0400
0400
0400
0400
0400
0C00
3000
ENDCHAR
STARTCHAR 301C
ENCODING 12316
SWIDTH 720 0
DWIDTH 12 0
BBX 12 12 0 -2
BITMAP
0000
0000
0000
0000
7000
8C00
0310
00E0
0000
0000
0000
0000
ENDCHAR
STARTCHAR 3041
ENCODING 12353
SWIDTH 720 0
DWIDTH 12 0
BBX 12 12 0 -2
BITMAP
0000
0000
0000
0800
0800
3F80
0900
1F00
2980
2A40
2440
1980
ENDCHAR
STARTCHAR 3042
ENCODING 12354
SWIDTH 720 0
DWIDTH 12 0
BBX 12 12 0 -2
BITMAP
0800
0800
7F80
0800
0900
1F80
2940
4A20
8A20
8C20
9820
6440
ENDCHAR
STARTCHAR 3043
ENCODING 12355
SWIDTH 720 0
DWIDTH 12 0
BBX 12 12 0 -2
BITMAP
0000
0000
0000
0000
0000
2000
2080
2040
2040
2040
2840
1000
ENDCHAR
STARTCHAR 3044
ENCODING 12356
SWIDTH 720 0
DWIDTH 12 0
BBX 12 12 0 -2
BITMAP
0000
8000
8080
8040
8040
8020
8020
80E0
4020
4000
2800
1000
ENDCHAR
STARTCHAR 3045
ENCODING 12357
SWIDTH 720 0
DWIDTH 12 0
BBX 12 12 0 -2
BITMAP
0000
0000
0000
0600
0100
0000
1F00
0080
0080
0080
0100
0600
ENDCHAR
STARTCHAR 3046
ENCODING 12358
SWIDTH 720 0
DWIDTH 12 0
BBX 12 12 0 -2
BITMAP
1800
0700
0000
0F00
3080
0080
0080
0080
0080
0100
0200
0C00
ENDCHAR
STARTCHAR 3047
ENCODING 12359
SWIDTH 720 0
DWIDTH 12 0
BBX 12 12 0 -2
BITMAP
0000
0000
0000
0800
0600
0000
0F00
0200
0400
0C00
1240
2180
ENDCHAR
STARTCHAR 3048
ENCODING 12360
SWIDTH 720 0
DWIDTH 12 0
BBX 12 12 0 -2
BITMAP
0C00
0300
0000
1F00
0100
0200
0400
0800
1800
2400
4220
01C0
ENDCHAR
STARTCHAR 3049
ENCODING 12361
SWIDTH 720 0
DWIDTH 12 0
BBX 12 12 0 -2
BITMAP
0000
0000
0000
0800
0880
3E40
0800
0F80
3840
4840
4840
3980
ENDCHAR
STARTCHAR 304A
ENCODING 12362
SWIDTH 720 0
DWIDTH 12 0
BBX 12 12 0 -2
BITMAP
1000
1000
10C0
7C20
1000
1F00
3080
5040
9040
9040
5080
3300
ENDCHAR
STARTCHAR 304B
ENCODING 12363
SWIDTH 720 0
DWIDTH 12 0
BBX 12 12 0 -2
BITMAP
0800
0800
0800
FE40
1120
1110
1110
2130
2100
4200
8A00
0400
ENDCHAR
STARTCHAR 304C
ENCODING 12364
SWIDTH 720 0
DWIDTH 12 0
BBX 12 12 0 -2
BITMAP
0820
0850
0820
FE40
1120
1110
1110
2130
2100
4200
8A00
0400
ENDCHAR
STARTCHAR 304D
ENCODING 12365
SWIDTH 720 0
DWIDTH 12 0
BBX 12 12 0 -2
BITMAP
0400
0400
3F80
0200
1FC0
0200
0100
1F00
2080
2000
1000
0F00
ENDCHAR
STARTCHAR 304E
ENCODING 12366
SWIDTH 720 0
DWIDTH 12 0
BBX 12 12 0 -2
BITMAP
0420
0410
3FA0
0210
1FC0
0200
0100
1F00
2080
2000
1000
0F00
ENDCHAR
STARTCHAR 304F
ENCODING 12367
SWIDTH 720 0
DWIDTH 12 0
BBX 12 12 0 -2
BITMAP
0100
0100
0200
0400
0800
1000
0800
0400
0200
0200
0100
0100
ENDCHAR
STARTCHAR 3050
ENCODING 12368
SWIDTH 720 0
DWIDTH 12 0
BBX 12 12 0 -2
BITMAP
0020
0110
0140
0220
0400
0800
1000
0800
0400
0200
0100
0080
ENDCHAR
STARTCHAR 3051
ENCODING 12369
SWIDTH 720 0
DWIDTH 12 0
BBX 12 12 0 -2
BITMAP
4040
4040
4040
47F0
4040
4040
4040
4040
5040
5040
2080
2080
ENDCHAR
STARTCHAR 3052
ENCODING 12370
SWIDTH 720 0
DWIDTH 12 0
BBX 12 12 0 -2
BITMAP
80A0
8090
80A0
8FD0
8080
8080
8080
8080
A080
A080
4100
4100
ENDCHAR
STARTCHAR 3053
ENCODING 12371
SWIDTH 720 0
DWIDTH 12 0
BBX 12 12 0 -2
BITMAP
0000
1F00
0080
0100
0000
0000
0000
2000
4000
4000
2040
1F80
ENDCHAR
STARTCHAR 3054
ENCODING 12372
SWIDTH 720 0
DWIDTH 12 0
BBX 12 12 0 -2
BITMAP
0020
3E10
0140
0220
0000
0000
0000
4000
8000
8000
4080
3F00
ENDCHAR
STARTCHAR 3055
ENCODING 12373
SWIDTH 720 0
DWIDTH 12 0
BBX 12 12 0 -2
BITMAP
0400
0400
3FC0
0200
0100
0100
0F80
1080
2000
2000
1000
0F00
ENDCHAR
STARTCHAR 3056
ENCODING 12374
SWIDTH 720 0
DWIDTH 12 0
BBX 12 12 0 -2
BITMAP
0820
0810
7F40
0420
0200
0200
1F00
2100
4000
4000
2000
1E00
ENDCHAR
STARTCHAR 3057
ENCODING 12375
SWIDTH 720 0
DWIDTH 12 0
BBX 12 12 0 -2
BITMAP
2000
2000
2000
2000
2000
2000
2000
2000
2000
2080
1100
0E00
ENDCHAR
STARTCHAR 3058
ENCODING 12376
SWIDTH 720 0
DWIDTH 12 0
BBX 12 12 0 -2
BITMAP
1040
1120
1080
1000
1000
1000
1000
1000
1000
1040
0880
0700
ENDCHAR
STARTCHAR 3059
ENCODING 12377
SWIDTH 720 0
DWIDTH 12 0
BBX 12 12 0 -2
BITMAP
0200
0200
FFE0
0200
1E00
2200
2200
2200
1E00
0400
0400
0800
ENDCHAR
STARTCHAR 305A
ENCODING 12378
SWIDTH 720 0
DWIDTH 12 0
BBX 12 12 0 -2
BITMAP
02A0
0250
FFE0
0200
1E00
2200
2200
2200
1E00
0400
0400
0800
ENDCHAR
STARTCHAR 305B
ENCODING 12379
SWIDTH 720 0
DWIDTH 12 0
BBX 12 12 0 -2
BITMAP
0100
2100
2100
2100
FFF0
2100
2100
2100
2300
2000
1000
0FC0
ENDCHAR
STARTCHAR 305C
ENCODING 12380
SWIDTH 720 0
DWIDTH 12 0
BBX 12 12 0 -2
BITMAP
01A0
2150
2100
2100
FFF0
2100
2100
2100
2300
2000
1000
0FC0
ENDCHAR
STARTCHAR 305D
ENCODING 12381
SWIDTH 720 0
DWIDTH 12 0
BBX 12 12 0 -2
BITMAP
1F80
0200
0400
0800
1000
7FE0
0400
0800
0800
0800
0400
0380
ENDCHAR
STARTCHAR 305E
ENCODING 12382
SWIDTH 720 0
DWIDTH 12 0
BBX 12 12 0 -2
BITMAP
1F80
0220
0490
0840
1000
7FE0
0400
0800
0800
0800
0400
0380
ENDCHAR
STARTCHAR 305F
ENCODING 12383
SWIDTH 720 0
DWIDTH 12 0
BBX 12 12 0 -2
BITMAP
0800
0800
7E00
1000
1000
21C0
2020
4000
4000
0000
0400
03E0
ENDCHAR
STARTCHAR 3060
ENCODING 12384
SWIDTH 720 0
DWIDTH 12 0
BBX 12 12 0 -2
BITMAP
0820
0890
7E40
1000
1000
21C0
2020
4000
4000
0000
0400
03E0
ENDCHAR
STARTCHAR 3061
ENCODING 12385
SWIDTH 720 0
DWIDTH 12 0
BBX 12 12 0 -2
BITMAP
0800
0800
7F00
0800
0800
1000
1780
3840
2040
0040
0080
0700
ENDCHAR
STARTCHAR 3062
ENCODING 12386
SWIDTH 720 0
DWIDTH 12 0
BBX 12 12 0 -2
BITMAP
0820
0890
7F40
0800
0800
1000
1780
3840
2040
0040
0080
0700
ENDCHAR
STARTCHAR 3063
ENCODING 12387
SWIDTH 720 0
DWIDTH 12 0
BBX 12 12 0 -2
BITMAP
0000
0000
0000
0000
0000
0000
0F00
3080
0040
0040
0080
0300
ENDCHAR
STARTCHAR 3064
ENCODING 12388
SWIDTH 720 0
DWIDTH 12 0
BBX 12 12 0 -2
BITMAP
0000
0000
0F80
7040
0020
0020
0020
0040
0080
0300
1C00
0000
ENDCHAR
STARTCHAR 3065
ENCODING 12389
SWIDTH 720 0
DWIDTH 12 0
BBX 12 12 0 -2
BITMAP
00A0
0050
0F80
7040
0020
0020
0020
0040
0080
0300
1C00
0000
ENDCHAR
STARTCHAR 3066
ENCODING 12390
SWIDTH 720 0
DWIDTH 12 0
BBX 12 12 0 -2
BITMAP
0000
01E0
FF00
0200
0400
0800
0800
0800
0800
0400
0600
0180
ENDCHAR
STARTCHAR 3067
ENCODING 12391
SWIDTH 720 0
DWIDTH 12 0
BBX 12 12 0 -2
BITMAP
0000
01E0
FF00
0220
0490
0840
0800
0800
0800
0400
0600
0180
ENDCHAR
STARTCHAR 3068
ENCODING 12392
SWIDTH 720 0
DWIDTH 12 0
BBX 12 12 0 -2
BITMAP
1000
1000
1000
1000
09C0
0E00
1000
1000
2000
2000
1000
0FC0
ENDCHAR
STARTCHAR 3069
ENCODING 12393
SWIDTH 720 0
DWIDTH 12 0
BBX 12 12 0 -2
BITMAP
1020
1090
1040
1000
09C0
0E00
1000
1000
2000
2000
1000
0FC0
ENDCHAR
STARTCHAR 306A
ENCODING 12394
SWIDTH 720 0
DWIDTH 12 0
BBX 12 12 0 -2
BITMAP
1000
1000
FE00
20C0
2020
4100
4100
8100
0100
0F80
1140
0E00
ENDCHAR
STARTCHAR 306B
ENCODING 12395
SWIDTH 720 0
DWIDTH 12 0
BBX 12 12 0 -2
BITMAP
0000
47E0
4840
8080
8000
8000
8000
8000
8800
A800
4400
43E0
ENDCHAR
STARTCHAR 306C
ENCODING 12396
SWIDTH 720 0
DWIDTH 12 0
BBX 12 12 0 -2
BITMAP
0400
0400
4400
47C0
5C20
6410
A410
A810
99E0
8A20
71D0
0000
ENDCHAR
STARTCHAR 306D
ENCODING 12397
SWIDTH 720 0
DWIDTH 12 0
BBX 12 12 0 -2
BITMAP
1000
1000
1000
F380
1440
1820
3020
3020
51A0
5260
91B0
1000
ENDCHAR
STARTCHAR 306E
ENCODING 12398
SWIDTH 720 0
DWIDTH 12 0
BBX 12 12 0 -2
BITMAP
0000
0700
1AC0
2220
4210
4210
8410
8410
9820
6020
01C0
0000
ENDCHAR
STARTCHAR 306F
ENCODING 12399
SWIDTH 720 0
DWIDTH 12 0
BBX 12 12 0 -2
BITMAP
8100
8100
8100
8FE0
8100
8100
8100
8100
8780
8940
A920
4600
ENDCHAR
STARTCHAR 3070
ENCODING 12400
SWIDTH 720 0
DWIDTH 12 0
BBX 12 12 0 -2
BITMAP
8120
8110
8120
8FD0
8100
8100
8100
8100
8780
8940
A920
4600
ENDCHAR
STARTCHAR 3071
ENCODING 12401
SWIDTH 720 0
DWIDTH 12 0
BBX 12 12 0 -2
BITMAP
8120
8150
8120
8FC0
8100
8100
8100
8100
8780
8940
A920
4600
ENDCHAR
STARTCHAR 3072
ENCODING 12402
SWIDTH 720 0
DWIDTH 12 0
BBX 12 12 0 -2
BITMAP
0000
1000
F000
2080
20C0
40A0
4090
4080
4100
4100
2200
1C00
ENDCHAR
STARTCHAR 3073
ENCODING 12403
SWIDTH 720 0
DWIDTH 12 0
BBX 12 12 0 -2
BITMAP
00A0
1050
F000
2080
20C0
40A0
4090
4080
4100
4100
2200
1C00
ENDCHAR
STARTCHAR 3074
ENCODING 12404
SWIDTH 720 0
DWIDTH 12 0
BBX 12 12 0 -2
BITMAP
0060
1090
F060
2080
20C0
40A0
4090
4080
4100
4100
2200
1C00
ENDCHAR
STARTCHAR 3075
ENCODING 12405
SWIDTH 720 0
DWIDTH 12 0
BBX 12 12 0 -2
BITMAP
0800
0400
0200
0200
0000
0800
0400
0220
8210
8210
4210
4C20
ENDCHAR
STARTCHAR 3076
ENCODING 12406
SWIDTH 720 0
DWIDTH 12 0
BBX 12 12 0 -2
BITMAP
0820
0490
0240
0200
0000
0800
0400
0220
8210
8210
4210
4C20
ENDCHAR
STARTCHAR 3077
ENCODING 12407
SWIDTH 720 0
DWIDTH 12 0
BBX 12 12 0 -2
BITMAP
0860
0490
0260
0200
0000
0800
0400
0220
8210
8210
4210
4C20
ENDCHAR
STARTCHAR 3078
ENCODING 12408
SWIDTH 720 0
DWIDTH 12 0
BBX 12 12 0 -2
BITMAP
0000
0000
0800
1400
2200
4100
8080
0040
0030
0000
0000
0000
ENDCHAR
STARTCHAR 3079
ENCODING 12409
SWIDTH 720 0
DWIDTH 12 0
BBX 12 12 0 -2
BITMAP
0040
0120
0880
1400
2200
4100
8080
0040
0030
0000
0000
0000
ENDCHAR
STARTCHAR 307A
ENCODING 12410
SWIDTH 720 0
DWIDTH 12 0
BBX 12 12 0 -2
BITMAP
0040
00A0
08A0
1440
2200
4100
8080
0040
0030
0000
0000
0000
ENDCHAR
STARTCHAR 307B
ENCODING 12411
SWIDTH 720 0
DWIDTH 12 0
BBX 12 12 0 -2
BITMAP
4FC0
4100
8100
8900
87C0
8100
8100
8100
8780
A940
4920
4600
ENDCHAR
STARTCHAR 307C
ENCODING 12412
SWIDTH 720 0
DWIDTH 12 0
BBX 12 12 0 -2
BITMAP
4FA0
4110
8140
8920
87C0
8100
8100
8100
8780
A940
4920
4600
ENDCHAR
STARTCHAR 307D
ENCODING 12413
SWIDTH 720 0
DWIDTH 12 0
BBX 12 12 0 -2
BITMAP
4FA0
4150
8150
8920
87C0
8100
8100
8100
8780
A940
4920
4600
ENDCHAR
STARTCHAR 307E
ENCODING 12414
SWIDTH 720 0
DWIDTH 12 0
BBX 12 12 0 -2
BITMAP
0200
0200
3FC0
0200
2200
1F80
0200
0200
3F00
42C0
4220
3C00
ENDCHAR
STARTCHAR 307F
ENCODING 12415
SWIDTH 720 0
DWIDTH 12 0
BBX 12 12 0 -2
BITMAP
0000
3E00
0200
0200
0440
0440
3FF0
4840
8840
9080
6080
0000
ENDCHAR
STARTCHAR 3080
ENCODING 12416
SWIDTH 720 0
DWIDTH 12 0
BBX 12 12 0 -2
BITMAP
1000
1000
1060
FC10
1000
3000
5000
5030
3040
1040
1040
0F80
ENDCHAR
STARTCHAR 3081
ENCODING 12417
SWIDTH 720 0
DWIDTH 12 0
BBX 12 12 0 -2
BITMAP
0400
0400
4400
47C0
5C20
6410
A410
A810
9810
8820
71C0
0000
ENDCHAR
STARTCHAR 3082
ENCODING 12418
SWIDTH 720 0
DWIDTH 12 0
BBX 12 12 0 -2
BITMAP
0400
0400
3F00
0400
0800
0800
7E00
1000
1020
1020
0840
0780
ENDCHAR
STARTCHAR 3083
ENCODING 12419
SWIDTH 720 0
DWIDTH 12 0
BBX 12 12 0 -2
BITMAP
0000
0000
0000
0400
2200
1380
1C40
6840
0880
0400
0400
0400
ENDCHAR
STARTCHAR 3084
ENCODING 12420
SWIDTH 720 0
DWIDTH 12 0
BBX 12 12 0 -2
BITMAP
0400
2200
21C0
1620
3810
C810
0860
0400
0400
0200
0200
0100
ENDCHAR
STARTCHAR 3085
ENCODING 12421
SWIDTH 720 0
DWIDTH 12 0
BBX 12 12 0 -2
BITMAP
0000
0000
0000
0400
0200
4780
4A40
3240
2240
2780
0200
0400
ENDCHAR
STARTCHAR 3086
ENCODING 12422
SWIDTH 720 0
DWIDTH 12 0
BBX 12 12 0 -2
BITMAP
0100
4100
47C0
8920
9110
9110
A110
A120
4140
4780
0100
0200
ENDCHAR
STARTCHAR 3087
ENCODING 12423
SWIDTH 720 0
DWIDTH 12 0
BBX 12 12 0 -2
BITMAP
0000
0000
0000
0000
0400
0400
0780
0400
0400
1E00
2580
1800
ENDCHAR
STARTCHAR 3088
ENCODING 12424
SWIDTH 720 0
DWIDTH 12 0
BBX 12 12 0 -2
BITMAP
0400
0400
0400
07C0
0400
0400
0400
0400
3E00
4580
4440
3800
ENDCHAR
STARTCHAR 3089
ENCODING 12425
SWIDTH 720 0
DWIDTH 12 0
BBX 12 12 0 -2
BITMAP
0C00
0200
0200
0000
2000
2000
27C0
3820
2020
0020
00C0
0700
ENDCHAR
STARTCHAR 308A
ENCODING 12426
SWIDTH 720 0
DWIDTH 12 0
BBX 12 12 0 -2
BITMAP
0040
1040
1040
1040
1040
1040
1040
0840
0080
0080
0100
0600
ENDCHAR
STARTCHAR 308B
ENCODING 12427
SWIDTH 720 0
DWIDTH 12 0
BBX 12 12 0 -2
BITMAP
0F80
0100
0200
0400
0F80
1040
2020
0020
0C20
1220
11C0
0F00
ENDCHAR
STARTCHAR 308C
ENCODING 12428
SWIDTH 720 0
DWIDTH 12 0
BBX 12 12 0 -2
BITMAP
2000
2000
2300
A480
6880
3080
3080
2080
6080
A090
2060
2000
ENDCHAR
STARTCHAR 308D
ENCODING 12429
SWIDTH 720 0
DWIDTH 12 0
BBX 12 12 0 -2
BITMAP
0F80
0100
0200
0400
0F80
1040
2020
0020
0020
0020
00C0
0F00
ENDCHAR
STARTCHAR 308E
ENCODING 12430
SWIDTH 720 0
DWIDTH 12 0
BBX 12 12 0 -2
BITMAP
0000
0000
0000
0000
0800
0800
2B00
1C80
0840
0840
1840
2980
ENDCHAR
STARTCHAR 308F
ENCODING 12431
SWIDTH 720 0
DWIDTH 12 0
BBX 12 12 0 -2
BITMAP
1000
1000
1000
9380
5440
3820
1020
3020
3020
5040
9180
1000
ENDCHAR
STARTCHAR 3090
ENCODING 12432
SWIDTH 720 0
DWIDTH 12 0
BBX 12 12 0 -2
BITMAP
0000
1E00
0200
0200
0F80
1440
2420
4820
4B20
54A0
23C0
0000
ENDCHAR
STARTCHAR 3091
ENCODING 12433
SWIDTH 720 0
DWIDTH 12 0
BBX 12 12 0 -2
BITMAP
1F00
0100
0200
0F80
1040
2640
0980
0600
0000
24C0
4220
4220
ENDCHAR
STARTCHAR 3092
ENCODING 12434
SWIDTH 720 0
DWIDTH 12 0
BBX 12 12 0 -2
BITMAP
0800
3F00
0800
1000
2180
3A00
4400
0A00
1200
2000
2000
1F80
ENDCHAR
STARTCHAR 3093
ENCODING 12435
SWIDTH 720 0
DWIDTH 12 0
BBX 12 12 0 -2
BITMAP
0400
0400
0400
0800
0800
1000
1000
2C00
2210
4210
4220
81C0
ENDCHAR
STARTCHAR 309B
ENCODING 12443
SWIDTH 720 0
DWIDTH 12 0
BBX 12 12 0 -2
BITMAP
2000
9000
5000
4000
0000
0000
0000
0000
0000
0000
0000
0000
ENDCHAR
STARTCHAR 309C
ENCODING 12444
SWIDTH 720 0
DWIDTH 12 0
BBX 12 12 0 -2
BITMAP
0000
4000
A000
A000
4000
0000
0000
0000
0000
0000
0000
0000
ENDCHAR
STARTCHAR 309D
ENCODING 12445
SWIDTH 720 0
DWIDTH 12 0
BBX 12 12 0 -2
BITMAP
0000
0000
0000
0800
0400
0200
0200
0600
0800
0000
0000
0000
ENDCHAR
STARTCHAR 309E
ENCODING 12446
SWIDTH 720 0
DWIDTH 12 0
BBX 12 12 0 -2
BITMAP
0000
0080
0240
0900
0400
0200
0200
0600
0800
0000
0000
0000
ENDCHAR
STARTCHAR 30A1
ENCODING 12449
SWIDTH 720 0
DWIDTH 12 0
BBX 12 12 0 -2
BITMAP
0000
0000
0000
0000
3FC0
0040
0480
0500
0400
0400
0800
0800
ENDCHAR
STARTCHAR 30A2
ENCODING 12450
SWIDTH 720 0
DWIDTH 12 0
BBX 12 12 0 -2
BITMAP
0000
7FE0
0020
0020
0440
0440
0580
0400
0400
0800
0800
1000
ENDCHAR
STARTCHAR 30A3
ENCODING 12451
SWIDTH 720 0
DWIDTH 12 0
BBX 12 12 0 -2
BITMAP
0000
0000
0000
0100
0100
0200
0400
0C00
3400
0400
0400
0400
ENDCHAR
STARTCHAR 30A4
ENCODING 12452
SWIDTH 720 0
DWIDTH 12 0
BBX 12 12 0 -2
BITMAP
0100
0100
0200
0400
1C00
6400
0400
0400
0400
0400
0400
0400
ENDCHAR
STARTCHAR 30A5
ENCODING 12453
SWIDTH 720 0
DWIDTH 12 0
BBX 12 12 0 -2
BITMAP
0000
0000
0000
0200
0200
1FC0
1040
1040
0080
0080
0100
0600
ENDCHAR
STARTCHAR 30A6
ENCODING 12454
SWIDTH 720 0
DWIDTH 12 0
BBX 12 12 0 -2
BITMAP
0400
0400
7FC0
4040
4040
0040
0040
0080
0080
0100
0200
0C00
ENDCHAR
STARTCHAR 30A7
ENCODING 12455
SWIDTH 720 0
DWIDTH 12 0
BBX 12 12 0 -2
BITMAP
0000
0000
0000
0000
0000
3F80
0400
0400
0400
0400
7FC0
0000
ENDCHAR
STARTCHAR 30A8
ENCODING 12456
SWIDTH 720 0
DWIDTH 12 0
BBX 12 12 0 -2
BITMAP
0000
7FC0
0400
0400
0400
0400
0400
0400
0400
0400
FFE0
0000
ENDCHAR
STARTCHAR 30A9
ENCODING 12457
SWIDTH 720 0
DWIDTH 12 0
BBX 12 12 0 -2
BITMAP
0000
0000
0000
0200
0200
3FC0
0200
0600
0600
0A00
1200
2200
ENDCHAR
STARTCHAR 30AA
ENCODING 12458
SWIDTH 720 0
DWIDTH 12 0
BBX 12 12 0 -2
BITMAP
0200
0200
0200
FFE0
0600
0600
0A00
0A00
1200
2200
4200
8200
ENDCHAR
STARTCHAR 30AB
ENCODING 12459
SWIDTH 720 0
DWIDTH 12 0
BBX 12 12 0 -2
BITMAP
0800
0800
0800
7FC0
0840
0840
0840
1040
1040
2040
2080
4380
ENDCHAR
STARTCHAR 30AC
ENCODING 12460
SWIDTH 720 0
DWIDTH 12 0
BBX 12 12 0 -2
BITMAP
0820
0890
0840
7FC0
0840
0840
0840
1040
1040
2040
2080
4380
ENDCHAR
STARTCHAR 30AD
ENCODING 12461
SWIDTH 720 0
DWIDTH 12 0
BBX 12 12 0 -2
BITMAP
0800
0800
0800
7F80
0800
0800
7FC0
0400
0400
0400
0400
0400
ENDCHAR
STARTCHAR 30AE
ENCODING 12462
SWIDTH 720 0
DWIDTH 12 0
BBX 12 12 0 -2
BITMAP
08A0
0850
0800
7F80
0800
0800
7FC0
0400
0400
0400
0400
0400
ENDCHAR
STARTCHAR 30AF
ENCODING 12463
SWIDTH 720 0
DWIDTH 12 0
BBX 12 12 0 -2
BITMAP
0400
0400
07C0
0C40
1040
6080
0080
0100
0200
0400
1800
6000
ENDCHAR
STARTCHAR 30B0
ENCODING 12464
SWIDTH 720 0
DWIDTH 12 0
BBX 12 12 0 -2
BITMAP
08A0
0850
0F80
1880
2080
C100
0100
0200
0400
0800
3000
C000
ENDCHAR
STARTCHAR 30B1
ENCODING 12465
SWIDTH 720 0
DWIDTH 12 0
BBX 12 12 0 -2
BITMAP
1000
1000
1000
1FE0
2080
4080
0080
0100
0100
0200
0400
1800
ENDCHAR
STARTCHAR 30B2
ENCODING 12466
SWIDTH 720 0
DWIDTH 12 0
BBX 12 12 0 -2
BITMAP
10A0
1050
1000
1FE0
2080
4080
0080
0100
0100
0200
0400
1800
ENDCHAR
STARTCHAR 30B3
ENCODING 12467
SWIDTH 720 0
DWIDTH 12 0
BBX 12 12 0 -2
BITMAP
0000
7FC0
0040
0040
0040
0040
0040
0040
0040
0040
7FC0
0000
ENDCHAR
STARTCHAR 30B4
ENCODING 12468
SWIDTH 720 0
DWIDTH 12 0
BBX 12 12 0 -2
BITMAP
0020
FF90
00C0
00A0
0080
0080
0080
0080
0080
0080
FF80
0000
ENDCHAR
STARTCHAR 30B5
ENCODING 12469
SWIDTH 720 0
DWIDTH 12 0
BBX 12 12 0 -2
BITMAP
0100
1100
1100
FFF0
1100
1100
1100
1100
0100
0200
0400
1800
ENDCHAR
STARTCHAR 30B6
ENCODING 12470
SWIDTH 720 0
DWIDTH 12 0
BBX 12 12 0 -2
BITMAP
01A0
1150
1100
FFF0
1100
1100
1100
1100
0100
0200
0400
1800
ENDCHAR
STARTCHAR 30B7
ENCODING 12471
SWIDTH 720 0
DWIDTH 12 0
BBX 12 12 0 -2
BITMAP
0000
3000
0800
0020
6020
1040
0080
0100
0200
0C00
3000
0000
ENDCHAR
STARTCHAR 30B8
ENCODING 12472
SWIDTH 720 0
DWIDTH 12 0
BBX 12 12 0 -2
BITMAP
00A0
3050
0800
0020
6020
1040
0080
0100
0200
0C00
3000
0000
ENDCHAR
STARTCHAR 30B9
ENCODING 12473
SWIDTH 720 0
DWIDTH 12 0
BBX 12 12 0 -2
BITMAP
0000
0000
3FC0
0080
0080
0100
0200
0500
0880
3040
C020
0000
ENDCHAR
STARTCHAR 30BA
ENCODING 12474
SWIDTH 720 0
DWIDTH 12 0
BBX 12 12 0 -2
BITMAP
00A0
0050
3FC0
0080
0080
0100
0200
0500
0880
3040
C020
0000
ENDCHAR
STARTCHAR 30BB
ENCODING 12475
SWIDTH 720 0
DWIDTH 12 0
BBX 12 12 0 -2
BITMAP
1000
1000
1000
FFE0
1040
1080
1000
1000
1000
1000
0FC0
0000
ENDCHAR
STARTCHAR 30BC
ENCODING 12476
SWIDTH 720 0
DWIDTH 12 0
BBX 12 12 0 -2
BITMAP
10A0
1050
1000
FFE0
1040
1080
1000
1000
1000
1000
0FC0
0000
ENDCHAR
STARTCHAR 30BD
ENCODING 12477
SWIDTH 720 0
DWIDTH 12 0
BBX 12 12 0 -2
BITMAP
0000
0040
4040
2040
1080
0080
0100
0100
0200
0400
0800
1000
ENDCHAR
STARTCHAR 30BE
ENCODING 12478
SWIDTH 720 0
DWIDTH 12 0
BBX 12 12 0 -2
BITMAP
0020
0090
80A0
4090
2100
0100
0200
0200
0400
0800
1000
2000
ENDCHAR
STARTCHAR 30BF
ENCODING 12479
SWIDTH 720 0
DWIDTH 12 0
BBX 12 12 0 -2
BITMAP
0400
0400
0FC0
0840
1040
6880
0580
0500
0200
0400
1800
6000
ENDCHAR
STARTCHAR 30C0
ENCODING 12480
SWIDTH 720 0
DWIDTH 12 0
BBX 12 12 0 -2
BITMAP
04A0
0450
0FC0
0840
1040
6880
0580
0500
0200
0400
1800
6000
ENDCHAR
STARTCHAR 30C1
ENCODING 12481
SWIDTH 720 0
DWIDTH 12 0
BBX 12 12 0 -2
BITMAP
0080
0300
3E00
0200
0200
FFF0
0200
0200
0200
0400
0800
3000
ENDCHAR
STARTCHAR 30C2
ENCODING 12482
SWIDTH 720 0
DWIDTH 12 0
BBX 12 12 0 -2
BITMAP
00A0
0310
3E40
0220
0200
FFF0
0200
0200
0200
0400
0800
3000
ENDCHAR
STARTCHAR 30C3
ENCODING 12483
SWIDTH 720 0
DWIDTH 12 0
BBX 12 12 0 -2
BITMAP
0000
0000
0000
0000
0440
2440
2240
1080
0080
0100
0200
0C00
ENDCHAR
STARTCHAR 30C4
ENCODING 12484
SWIDTH 720 0
DWIDTH 12 0
BBX 12 12 0 -2
BITMAP
0000
0840
8840
8440
4440
4040
0080
0080
0100
0200
0400
1800
ENDCHAR
STARTCHAR 30C5
ENCODING 12485
SWIDTH 720 0
DWIDTH 12 0
BBX 12 12 0 -2
BITMAP
0020
0890
88C0
84A0
4480
4080
0100
0100
0200
0400
0800
3000
ENDCHAR
STARTCHAR 30C6
ENCODING 12486
SWIDTH 720 0
DWIDTH 12 0
BBX 12 12 0 -2
BITMAP
0000
7FC0
0000
0000
FFE0
0400
0400
0400
0400
0800
0800
1000
ENDCHAR
STARTCHAR 30C7
ENCODING 12487
SWIDTH 720 0
DWIDTH 12 0
BBX 12 12 0 -2
BITMAP
0020
7F90
0040
0020
FFE0
0400
0400
0400
0400
0800
0800
1000
ENDCHAR
STARTCHAR 30C8
ENCODING 12488
SWIDTH 720 0
DWIDTH 12 0
BBX 12 12 0 -2
BITMAP
0800
0800
0800
0800
0800
0E00
0900
0880
0800
0800
0800
0800
ENDCHAR
STARTCHAR 30C9
ENCODING 12489
SWIDTH 720 0
DWIDTH 12 0
BBX 12 12 0 -2
BITMAP
0820
0890
0840
0800
0800
0E00
0900
0880
0800
0800
0800
0800
ENDCHAR
STARTCHAR 30CA
ENCODING 12490
SWIDTH 720 0
DWIDTH 12 0
BBX 12 12 0 -2
BITMAP
0200
0200
0200
0200
FFF0
0200
0200
0200
0400
0400
0800
1000
ENDCHAR
STARTCHAR 30CB
ENCODING 12491
SWIDTH 720 0
DWIDTH 12 0
BBX 12 12 0 -2
BITMAP
0000
0000
3F80
0000
0000
0000
0000
0000
0000
FFE0
0000
0000
ENDCHAR
STARTCHAR 30CC
ENCODING 12492
SWIDTH 720 0
DWIDTH 12 0
BBX 12 12 0 -2
BITMAP
0000
0000
7FC0
0080
0080
1900
0500
0200
0500
0880
1080
6000
ENDCHAR
STARTCHAR 30CD
ENCODING 12493
SWIDTH 720 0
DWIDTH 12 0
BBX 12 12 0 -2
BITMAP
0400
0200
0200
3F80
0100
0300
06C0
1A20
6220
0200
0200
0200
ENDCHAR
STARTCHAR 30CE
ENCODING 12494
SWIDTH 720 0
DWIDTH 12 0
BBX 12 12 0 -2
BITMAP
0000
0080
0080
0080
0100
0100
0200
0400
0800
1000
6000
0000
ENDCHAR
STARTCHAR 30CF
ENCODING 12495
SWIDTH 720 0
DWIDTH 12 0
BBX 12 12 0 -2
BITMAP
0000
0000
0880
0840
0840
1020
1020
2010
4010
8010
0000
0000
ENDCHAR
STARTCHAR 30D0
ENCODING 12496
SWIDTH 720 0
DWIDTH 12 0
BBX 12 12 0 -2
BITMAP
00A0
0050
0800
0840
0840
1020
1020
2010
4010
8010
0000
0000
ENDCHAR
STARTCHAR 30D1
ENCODING 12497
SWIDTH 720 0
DWIDTH 12 0
BBX 12 12 0 -2
BITMAP
0060
0090
0860
0840
0840
1020
1020
2010
4010
8010
0000
0000
ENDCHAR
STARTCHAR 30D2
ENCODING 12498
SWIDTH 720 0
DWIDTH 12 0
BBX 12 12 0 -2
BITMAP
2000
2000
2000
2000
23C0
3E00
2000
2000
2000
2000
1000
0FC0
ENDCHAR
STARTCHAR 30D3
ENCODING 12499
SWIDTH 720 0
DWIDTH 12 0
BBX 12 12 0 -2
BITMAP
2020
2090
2040
2000
23C0
3E00
2000
2000
2000
2000
1000
0FC0
ENDCHAR
STARTCHAR 30D4
ENCODING 12500
SWIDTH 720 0
DWIDTH 12 0
BBX 12 12 0 -2
BITMAP
2060
2090
2060
2000
23C0
3E00
2000
2000
2000
2000
1000
0FC0
ENDCHAR
STARTCHAR 30D5
ENCODING 12501
SWIDTH 720 0
DWIDTH 12 0
BBX 12 12 0 -2
BITMAP
0000
7FC0
0040
0040
0040
0080
0080
0100
0200
0400
1800
0000
ENDCHAR
STARTCHAR 30D6
ENCODING 12502
SWIDTH 720 0
DWIDTH 12 0
BBX 12 12 0 -2
BITMAP
0020
FF90
00C0
00A0
0080
0100
0100
0200
0400
0800
3000
0000
ENDCHAR
STARTCHAR 30D7
ENCODING 12503
SWIDTH 720 0
DWIDTH 12 0
BBX 12 12 0 -2
BITMAP
0020
FFD0
00D0
00A0
0080
0100
0100
0200
0400
0800
3000
0000
ENDCHAR
STARTCHAR 30D8
ENCODING 12504
SWIDTH 720 0
DWIDTH 12 0
BBX 12 12 0 -2
BITMAP
0000
0000
0800
1400
2200
C100
0080
0040
0030
0000
0000
0000
ENDCHAR
STARTCHAR 30D9
ENCODING 12505
SWIDTH 720 0
DWIDTH 12 0
BBX 12 12 0 -2
BITMAP
0040
0120
0880
1400
2200
C100
0080
0040
0030
0000
0000
0000
ENDCHAR
STARTCHAR 30DA
ENCODING 12506
SWIDTH 720 0
DWIDTH 12 0
BBX 12 12 0 -2
BITMAP
0040
00A0
08A0
1440
2200
C100
0080
0040
0030
0000
0000
0000
ENDCHAR
STARTCHAR 30DB
ENCODING 12507
SWIDTH 720 0
DWIDTH 12 0
BBX 12 12 0 -2
BITMAP
0400
0400
0400
7FC0
0400
0400
0400
4440
4440
4440
8420
8420
ENDCHAR
STARTCHAR 30DC
ENCODING 12508
SWIDTH 720 0
DWIDTH 12 0
BBX 12 12 0 -2
BITMAP
04A0
0450
0400
7FC0
0400
0400
0400
4440
4440
4440
8420
8420
ENDCHAR
STARTCHAR 30DD
ENCODING 12509
SWIDTH 720 0
DWIDTH 12 0
BBX 12 12 0 -2
BITMAP
0460
0490
0460
7FC0
0400
0400
0400
4440
4440
4440
8420
8420
ENDCHAR
STARTCHAR 30DE
ENCODING 12510
SWIDTH 720 0
DWIDTH 12 0
BBX 12 12 0 -2
BITMAP
0000
0000
0000
FFE0
0040
0080
0100
1A00
0400
0200
0100
0000
ENDCHAR
STARTCHAR 30DF
ENCODING 12511
SWIDTH 720 0
DWIDTH 12 0
BBX 12 12 0 -2
BITMAP
1000
0C00
0300
1080
0C00
0300
0000
3000
0C00
0300
0080
0040
ENDCHAR
STARTCHAR 30E0
ENCODING 12512
SWIDTH 720 0
DWIDTH 12 0
BBX 12 12 0 -2
BITMAP
0000
0400
0400
0400
0400
0800
0880
0840
1040
10E0
1F20
E020
ENDCHAR
STARTCHAR 30E1
ENCODING 12513
SWIDTH 720 0
DWIDTH 12 0
BBX 12 12 0 -2
BITMAP
0000
0080
0080
1080
0900
0500
0200
0500
0880
1080
E000
0000
ENDCHAR
STARTCHAR 30E2
ENCODING 12514
SWIDTH 720 0
DWIDTH 12 0
BBX 12 12 0 -2
BITMAP
0000
3F80
0400
0400
0400
7FE0
0400
0400
0400
0400
03C0
0000
ENDCHAR
STARTCHAR 30E3
ENCODING 12515
SWIDTH 720 0
DWIDTH 12 0
BBX 12 12 0 -2
BITMAP
0000
0000
0000
0000
0800
09E0
0E40
7480
0400
0200
0200
0200
ENDCHAR
STARTCHAR 30E4
ENCODING 12516
SWIDTH 720 0
DWIDTH 12 0
BBX 12 12 0 -2
BITMAP
2000
2000
2000
11E0
1E20
F020
0840
0880
0800
0400
0400
0400
ENDCHAR
STARTCHAR 30E5
ENCODING 12517
SWIDTH 720 0
DWIDTH 12 0
BBX 12 12 0 -2
BITMAP
0000
0000
0000
0000
0000
0000
1F00
0100
0100
0200
7FC0
0000
ENDCHAR
STARTCHAR 30E6
ENCODING 12518
SWIDTH 720 0
DWIDTH 12 0
BBX 12 12 0 -2
BITMAP
0000
0000
3F00
0100
0100
0100
0200
0200
0200
FFF0
0000
0000
ENDCHAR
STARTCHAR 30E7
ENCODING 12519
SWIDTH 720 0
DWIDTH 12 0
BBX 12 12 0 -2
BITMAP
0000
0000
0000
0000
0000
1F80
0080
0080
0F80
0080
0080
1F80
ENDCHAR
STARTCHAR 30E8
ENCODING 12520
SWIDTH 720 0
DWIDTH 12 0
BBX 12 12 0 -2
BITMAP
0000
3F80
0080
0080
0080
1F80
0080
0080
0080
0080
3F80
0000
ENDCHAR
STARTCHAR 30E9
ENCODING 12521
SWIDTH 720 0
DWIDTH 12 0
BBX 12 12 0 -2
BITMAP
0000
3FC0
0000
0000
7FC0
0040
0040
0080
0080
0100
0600
1800
ENDCHAR
STARTCHAR 30EA
ENCODING 12522
SWIDTH 720 0
DWIDTH 12 0
BBX 12 12 0 -2
BITMAP
0080
2080
2080
2080
2080
2080
2080
0080
0100
0100
0200
0C00
ENDCHAR
STARTCHAR 30EB
ENCODING 12523
SWIDTH 720 0
DWIDTH 12 0
BBX 12 12 0 -2
BITMAP
0200
0200
2200
2200
2200
2200
2200
2220
2220
4240
4280
8300
ENDCHAR
STARTCHAR 30EC
ENCODING 12524
SWIDTH 720 0
DWIDTH 12 0
BBX 12 12 0 -2
BITMAP
2000
2000
2000
2000
2000
2000
2000
2000
2080
2100
2600
3800
ENDCHAR
STARTCHAR 30ED
ENCODING 12525
SWIDTH 720 0
DWIDTH 12 0
BBX 12 12 0 -2
BITMAP
0000
0000
7FC0
4040
4040
4040
4040
4040
4040
7FC0
0000
0000
ENDCHAR
STARTCHAR 30EE
ENCODING 12526
SWIDTH 720 0
DWIDTH 12 0
BBX 12 12 0 -2
BITMAP
0000
0000
0000
0000
1FC0
1040
1040
0040
0080
0080
0100
0600
ENDCHAR
STARTCHAR 30EF
ENCODING 12527
SWIDTH 720 0
DWIDTH 12 0
BBX 12 12 0 -2
BITMAP
0000
3FE0
2020
2020
0020
0020
0020
0040
0040
0080
0100
0600
ENDCHAR
STARTCHAR 30F0
ENCODING 12528
SWIDTH 720 0
DWIDTH 12 0
BBX 12 12 0 -2
BITMAP
0100
0100
0100
7FC0
1100
1100
1100
FFF0
0100
0100
0100
0100
ENDCHAR
STARTCHAR 30F1
ENCODING 12529
SWIDTH 720 0
DWIDTH 12 0
BBX 12 12 0 -2
BITMAP
0000
0000
7F80
0080
0100
0600
0400
0400
0400
0400
FFE0
0000
ENDCHAR
STARTCHAR 30F2
ENCODING 12530
SWIDTH 720 0
DWIDTH 12 0
BBX 12 12 0 -2
BITMAP
0000
3FC0
0040
0040
0040
3FC0
0080
0080
0100
0200
0C00
0000
ENDCHAR
STARTCHAR 30F3
ENCODING 12531
SWIDTH 720 0
DWIDTH 12 0
BBX 12 12 0 -2
BITMAP
0000
0000
3000
0820
0020
0040
0040
0080
0100
0600
3800
0000
ENDCHAR
STARTCHAR 30F4
ENCODING 12532
SWIDTH 720 0
DWIDTH 12 0
BBX 12 12 0 -2
BITMAP
08A0
0850
FF80
8080
8080
0080
0080
0100
0100
0200
0400
1800
ENDCHAR
STARTCHAR 30F5
ENCODING 12533
SWIDTH 720 0
DWIDTH 12 0
BBX 12 12 0 -2
BITMAP
0000
0000
0000
0200
0200
1FC0
0440
0440
0840
0840
1080
2380
ENDCHAR
STARTCHAR 30F6
ENCODING 12534
SWIDTH 720 0
DWIDTH 12 0
BBX 12 12 0 -2
BITMAP
0000
0000
0000
0800
0800
0800
1FC0
2100
0100
0200
0400
1800
ENDCHAR
STARTCHAR 30FB
ENCODING 12539
SWIDTH 720 0
DWIDTH 12 0
BBX 12 12 0 -2
BITMAP
0000
0000
0000
0000
0000
0600
0600
0000
0000
0000
0000
0000
ENDCHAR
STARTCHAR 30FC
ENCODING 12540
SWIDTH 720 0
DWIDTH 12 0
BBX 12 12 0 -2
BITMAP
0000
0000
0000
0000
0000
C000
3FE0
0000
0000
0000
0000
0000
ENDCHAR
STARTCHAR 30FD
ENCODING 12541
SWIDTH 720 0
DWIDTH 12 0
BBX 12 12 0 -2
BITMAP
0000
0000
0000
0000
0800
0400
0200
0200
0200
0000
0000
0000
ENDCHAR
STARTCHAR 30FE
ENCODING 12542
SWIDTH 720 0
DWIDTH 12 0
BBX 12 12 0 -2
BITMAP
0000
0000
0080
0240
0900
0400
0200
0200
0200
0000
0000
0000
ENDCHAR
STARTCHAR 4E00
ENCODING 19968
SWIDTH 720 0
DWIDTH 12 0
BBX 12 12 0 -2
BITMAP
0000
0000
0000
0000
0000
FFE0
0000
0000
0000
0000
0000
0000
ENDCHAR
STARTCHAR 4E01
ENCODING 19969
SWIDTH 720 0
DWIDTH 12 0
BBX 12 12 0 -2
BITMAP
0000
FFE0
0400
0400
0400
0400
0400
0400
0400
0400
0400
1C00
ENDCHAR
STARTCHAR 4E03
ENCODING 19971
SWIDTH 720 0
DWIDTH 12 0
BBX 12 12 0 -2
BITMAP
1000
1000
1000
1000
11F0
FF00
1000
1000
1000
1040
1040
0FC0
ENDCHAR
STARTCHAR 4E07
ENCODING 19975
SWIDTH 720 0
DWIDTH 12 0
BBX 12 12 0 -2
BITMAP
0000
FFF0
0800
0800
0FC0
0840
0840
0840
1040
1040
2080
C380
ENDCHAR
STARTCHAR 4E08
ENCODING 19976
SWIDTH 720 0
DWIDTH 12 0
BBX 12 12 0 -2
BITMAP
0400
0400
0400
FFE0
0400
0400
2400
1400
0C00
0A00
3180
C070
ENDCHAR
STARTCHAR 4E09
ENCODING 19977
SWIDTH 720 0
DWIDTH 12 0
BBX 12 12 0 -2
BITMAP
0000
7FE0
0000
0000
0000
3FC0
0000
0000
0000
0000
FFF0
0000
ENDCHAR
STARTCHAR 4E0A
ENCODING 19978
SWIDTH 720 0
DWIDTH 12 0
BBX 12 12 0 -2
BITMAP
0400
0400
0400
0400
0400
07E0
0400
0400
0400
0400
0400
FFF0
ENDCHAR
STARTCHAR 4E0B
ENCODING 19979
SWIDTH 720 0
DWIDTH 12 0
BBX 12 12 0 -2
BITMAP
0000
FFF0
0400
0600
0500
0480
0440
0400
0400
0400
0400
0400
ENDCHAR
STARTCHAR 4E0D
ENCODING 19981
SWIDTH 720 0
DWIDTH 12 0
BBX 12 12 0 -2
BITMAP
0000
FFF0
0400
0400
0D80
1440
2420
C420
0400
0400
0400
0400
ENDCHAR
STARTCHAR 4E0E
ENCODING 19982
SWIDTH 720 0
DWIDTH 12 0
BBX 12 12 0 -2
BITMAP
1000
1000
1FC0
1000
1000
1F80
2080
0080
FFF0
0100
0100
0E00
ENDCHAR
STARTCHAR 4E10
ENCODING 19984
SWIDTH 720 0
DWIDTH 12 0
BBX 12 12 0 -2
BITMAP
FFE0
0400
0400
27C0
2400
2400
7FE0
4020
0020
0020
0040
01C0
ENDCHAR
STARTCHAR 4E11
ENCODING 19985
SWIDTH 720 0
DWIDTH 12 0
BBX 12 12 0 -2
BITMAP
7F80
0880
0880
0880
0880
FFF0
1080
1080
1080
1080
1080
FFF0
ENDCHAR
STARTCHAR 4E14
ENCODING 19988
SWIDTH 720 0
DWIDTH 12 0
BBX 12 12 0 -2
BITMAP
3F80
2080
2080
2080
3F80
2080
2080
3F80
2080
2080
2080
FFE0
ENDCHAR
STARTCHAR 4E15
ENCODING 19989
SWIDTH 720 0
DWIDTH 12 0
BBX 12 12 0 -2
BITMAP
0000
FFE0
0200
0600
0D00
3480
C460
0400
0400
0400
0000
FFE0
ENDCHAR
STARTCHAR 4E16
ENCODING 19990
SWIDTH 720 0
DWIDTH 12 0
BBX 12 12 0 -2
BITMAP
2480
2480
2480
2480
FFF0
2480
2480
2780
2400
2000
2000
3FE0
ENDCHAR
STARTCHAR 4E17
ENCODING 19991
SWIDTH 720 0
DWIDTH 12 0
BBX 12 12 0 -2
BITMAP
4440
4440
4440
4440
4440
FFF0
4440
4440
4440
4440
4440
7FC0
ENDCHAR
STARTCHAR 4E18
ENCODING 19992
SWIDTH 720 0
DWIDTH 12 0
BBX 12 12 0 -2
BITMAP
0000
0180
3E00
2000
2000
3FC0
2100
2100
2100
2100
2100
FFF0
ENDCHAR
STARTCHAR 4E19
ENCODING 19993
SWIDTH 720 0
DWIDTH 12 0
BBX 12 12 0 -2
BITMAP
FFF0
0400
0400
7FE0
4420
4620
4920
50A0
60A0
4020
4020
4060
ENDCHAR
STARTCHAR 4E1E
ENCODING 19998
SWIDTH 720 0
DWIDTH 12 0
BBX 12 12 0 -2
BITMAP
1F80
0100
0220
F540
1580
1500
2480
C470
0400
0C00
0000
FFF0
ENDCHAR
STARTCHAR 4E21
ENCODING 20001
SWIDTH 720 0
DWIDTH 12 0
BBX 12 12 0 -2
BITMAP
FFE0
0400
0400
FFE0
8420
8420
A4A0
A4A0
A4A0
BFA0
A020
8060
ENDCHAR
STARTCHAR 4E26
ENCODING 20006
SWIDTH 720 0
DWIDTH 12 0
BBX 12 12 0 -2
BITMAP
2040
1080
0900
7FE0
0900
8920
4920
4920
4940
0900
0900
FFF0
ENDCHAR
STARTCHAR 4E2A
ENCODING 20010
SWIDTH 720 0
DWIDTH 12 0
BBX 12 12 0 -2
BITMAP
0400
0600
0900
1080
2440
C430
0400
0400
0400
0400
0400
0400
ENDCHAR
STARTCHAR 4E2D
ENCODING 20013
SWIDTH 720 0
DWIDTH 12 0
BBX 12 12 0 -2
BITMAP
0400
0400
0400
7FC0
4440
4440
4440
7FC0
4400
0400
0400
0400
ENDCHAR
STARTCHAR 4E31
ENCODING 20017
SWIDTH 720 0
DWIDTH 12 0
BBX 12 12 0 -2
BITMAP
0900
0900
4920
4920
4920
4920
4920
79E0
4920
0900
1100
6100
ENDCHAR
STARTCHAR 4E32
ENCODING 20018
SWIDTH 720 0
DWIDTH 12 0
BBX 12 12 0 -2
BITMAP
0400
0400
7FC0
4440
7FC0
0400
FFE0
8420
FFE0
8400
0400
0400
ENDCHAR
STARTCHAR 4E36
ENCODING 20022
SWIDTH 720 0
DWIDTH 12 0
BBX 12 12 0 -2
BITMAP
0000
0000
0000
0800
0400
0200
0200
0100
0100
0100
0000
0000
ENDCHAR
STARTCHAR 4E38
ENCODING 20024
SWIDTH 720 0
DWIDTH 12 0
BBX 12 12 0 -2
BITMAP
0800
0800
0800
FF80
0880
0880
2880
1880
0C80
1290
2290
C070
ENDCHAR
STARTCHAR 4E39
ENCODING 20025
SWIDTH 720 0
DWIDTH 12 0
BBX 12 12 0 -2
BITMAP
3FC0
2040
2440
2240
2240
2040
FFF0
2040
2040
4040
4040
80C0
ENDCHAR
STARTCHAR 4E3B
ENCODING 20027
SWIDTH 720 0
DWIDTH 12 0
BBX 12 12 0 -2
BITMAP
0800
0400
0400
FFE0
0400
0400
0400
7FC0
0400
0400
0400
FFE0
ENDCHAR
STARTCHAR 4E3C
ENCODING 20028
SWIDTH 720 0
DWIDTH 12 0
BBX 12 12 0 -2
BITMAP
1080
1080
7FE0
1080
1480
1280
1080
FFF0
1080
1080
2080
4080
ENDCHAR
STARTCHAR 4E3F
ENCODING 20031
SWIDTH 720 0
DWIDTH 12 0
BBX 12 12 0 -2
BITMAP
0200
0200
0200
0200
0200
0200
0200
0200
0400
0400
0800
1000
ENDCHAR
STARTCHAR 4E42
ENCODING 20034
SWIDTH 720 0
DWIDTH 12 0
BBX 12 12 0 -2
BITMAP
0040
2040
2040
5040
9080
0880
0500
0200
0500
0880
3040
C030
ENDCHAR
STARTCHAR 4E43
ENCODING 20035
SWIDTH 720 0
DWIDTH 12 0
BBX 12 12 0 -2
BITMAP
FF80
1080
1080
1080
1080
11F0
1010
1010
1010
2010
2020
C0E0
ENDCHAR
STARTCHAR 4E45
ENCODING 20037
SWIDTH 720 0
DWIDTH 12 0
BBX 12 12 0 -2
BITMAP
0800
0800
0F00
1100
1100
2200
C200
0500
0900
1080
2040
C030
ENDCHAR
STARTCHAR 4E4B
ENCODING 20043
SWIDTH 720 0
DWIDTH 12 0
BBX 12 12 0 -2
BITMAP
0400
0400
7FC0
0040
0080
0100
0200
2400
2800
5000
4C00
43F0
ENDCHAR
STARTCHAR 4E4D
ENCODING 20045
SWIDTH 720 0
DWIDTH 12 0
BBX 12 12 0 -2
BITMAP
2000
2000
3FE0
2400
4400
47C0
8400
0400
07C0
0400
0400
0400
ENDCHAR
STARTCHAR 4E4E
ENCODING 20046
SWIDTH 720 0
DWIDTH 12 0
BBX 12 12 0 -2
BITMAP
00E0
7F00
0440
4440
2440
2480
FFE0
0400
0400
0400
0400
0C00
ENDCHAR
STARTCHAR 4E4F
ENCODING 20047
SWIDTH 720 0
DWIDTH 12 0
BBX 12 12 0 -2
BITMAP
03C0
7E00
0400
0400
7FC0
0080
0100
4600
5800
6000
9800
87E0
ENDCHAR
STARTCHAR 4E55
ENCODING 20053
SWIDTH 720 0
DWIDTH 12 0
BBX 12 12 0 -2
BITMAP
01E0
7F00
4200
5FC0
4200
5FC0
4200
5FE0
5220
9220
9260
0200
ENDCHAR
STARTCHAR 4E56
ENCODING 20054
SWIDTH 720 0
DWIDTH 12 0
BBX 12 12 0 -2
BITMAP
03C0
7E00
0400
FFE0
0400
1500
F530
15C0
1510
F510
14F0
0400
ENDCHAR
STARTCHAR 4E57
ENCODING 20055
SWIDTH 720 0
DWIDTH 12 0
BBX 12 12 0 -2
BITMAP
0380
3E00
0400
FFE0
2480
7FC0
2480
FFE0
0400
0E00
3580
C460
ENDCHAR
STARTCHAR 4E58
ENCODING 20056
SWIDTH 720 0
DWIDTH 12 0
BBX 12 12 0 -2
BITMAP
03C0
3E00
0400
FFE0
1500
7530
15C0
3510
D4F0
0E00
3580
C470
ENDCHAR
STARTCHAR 4E59
ENCODING 20057
SWIDTH 720 0
DWIDTH 12 0
BBX 12 12 0 -2
BITMAP
0000
3F80
0100
0200
0400
0800
1000
2000
4000
4020
2020
1FC0
ENDCHAR
STARTCHAR 4E5D
ENCODING 20061
SWIDTH 720 0
DWIDTH 12 0
BBX 12 12 0 -2
BITMAP
0800
0800
0800
FF80
0880
0880
0880
0880
1080
1090
2090
C070
ENDCHAR
STARTCHAR 4E5E
ENCODING 20062
SWIDTH 720 0
DWIDTH 12 0
BBX 12 12 0 -2
BITMAP
1000
1000
1FE0
2000
DF80
0100
0200
0C00
1000
2020
2020
1FF0
ENDCHAR
STARTCHAR 4E5F
ENCODING 20063
SWIDTH 720 0
DWIDTH 12 0
BBX 12 12 0 -2
BITMAP
0400
2400
2400
25C0
3E40
E440
2440
2440
24C0
2010
2010
1FF0
ENDCHAR
STARTCHAR 4E62
ENCODING 20066
SWIDTH 720 0
DWIDTH 12 0
BBX 12 12 0 -2
BITMAP
2200
2200
2200
AA00
AA00
AA00
AA00
AA00
AA00
FA10
8210
01F0
ENDCHAR
STARTCHAR 4E71
ENCODING 20081
SWIDTH 720 0
DWIDTH 12 0
BBX 12 12 0 -2
BITMAP
1D00
F100
1100
1100
FD00
1100
1100
7D00
4500
4510
4510
7CF0
ENDCHAR
STARTCHAR 4E73
ENCODING 20083
SWIDTH 720 0
DWIDTH 12 0
BBX 12 12 0 -2
BITMAP
0E80
F280
9480
5480
0080
7C80
0880
1080
FE80
1090
1090
7070
ENDCHAR
STARTCHAR 4E7E
ENCODING 20094
SWIDTH 720 0
DWIDTH 12 0
BBX 12 12 0 -2
BITMAP
2100
F900
21F0
FA00
8800
FBE0
8840
F980
2210
FA10
2210
21F0
ENDCHAR
STARTCHAR 4E80
ENCODING 20096
SWIDTH 720 0
DWIDTH 12 0
BBX 12 12 0 -2
BITMAP
1F00
2200
FF80
2480
3F80
2480
7FC0
4440
7FC0
4450
7FD0
07F0
ENDCHAR
STARTCHAR 4E82
ENCODING 20098
SWIDTH 720 0
DWIDTH 12 0
BBX 12 12 0 -2
BITMAP
0E80
F480
5480
9280
7C80
2880
FE80
AA80
FA80
AA90
9290
EE70
ENDCHAR
STARTCHAR 4E85
ENCODING 20101
SWIDTH 720 0
DWIDTH 12 0
BBX 12 12 0 -2
BITMAP
0400
0400
0400
0400
0400
0400
0400
0400
0400
0400
0400
0C00
ENDCHAR
STARTCHAR 4E86
ENCODING 20102
SWIDTH 720 0
DWIDTH 12 0
BBX 12 12 0 -2
BITMAP
0000
7FE0
0040
0080
0300
0200
0200
0200
0200
0200
0200
0E00
ENDCHAR
STARTCHAR 4E88
ENCODING 20104
SWIDTH 720 0
DWIDTH 12 0
BBX 12 12 0 -2
BITMAP
7F80
0100
1A00
0400
FFE0
0440
0480
0400
0400
0400
0400
1C00
ENDCHAR
STARTCHAR 4E89
ENCODING 20105
SWIDTH 720 0
DWIDTH 12 0
BBX 12 12 0 -2
BITMAP
0800
0F00
3100
0200
7FC0
0440
FFF0
0440
7FC0
0400
0400
0C00
ENDCHAR
STARTCHAR 4E8A
ENCODING 20106
SWIDTH 720 0
DWIDTH 12 0
BBX 12 12 0 -2
BITMAP
0400
FFE0
2480
1500
7FE0
0420
FFF0
0420
7FE0
0400
0400
0C00
ENDCHAR
STARTCHAR 4E8B
ENCODING 20107
SWIDTH 720 0
DWIDTH 12 0
BBX 12 12 0 -2
BITMAP
0400
FFE0
0400
3F80
2480
7FC0
0440
FFF0
0440
7FC0
0400
0400
ENDCHAR
STARTCHAR 4E8C
ENCODING 20108
SWIDTH 720 0
DWIDTH 12 0
BBX 12 12 0 -2
BITMAP
0000
0000
7FE0
0000
0000
0000
0000
0000
0000
FFF0
0000
0000
ENDCHAR
STARTCHAR 4E8E
ENCODING 20110
SWIDTH 720 0
DWIDTH 12 0
BBX 12 12 0 -2
BITMAP
0000
7FC0
0400
0400
0400
FFE0
0400
0400
0400
0400
0400
1C00
ENDCHAR
STARTCHAR 4E91
ENCODING 20113
SWIDTH 720 0
DWIDTH 12 0
BBX 12 12 0 -2
BITMAP
0000
7FE0
0000
0000
FFF0
0400
0800
0840
1040
27E0
FC20
0020
ENDCHAR
STARTCHAR 4E92
ENCODING 20114
SWIDTH 720 0
DWIDTH 12 0
BBX 12 12 0 -2
BITMAP
0000
7FE0
0800
0800
0F80
1080
1080
1080
1F00
1100
0100
FFF0
ENDCHAR
STARTCHAR 4E94
ENCODING 20116
SWIDTH 720 0
DWIDTH 12 0
BBX 12 12 0 -2
BITMAP
0000
7FE0
0800
0800
0800
7F80
0880
0880
1080
1080
1080
FFF0
ENDCHAR
STARTCHAR 4E95
ENCODING 20117
SWIDTH 720 0
DWIDTH 12 0
BBX 12 12 0 -2
BITMAP
1080
1080
1080
FFF0
1080
1080
1080
FFF0
1080
1080
2080
4080
ENDCHAR
STARTCHAR 4E98
ENCODING 20120
SWIDTH 720 0
DWIDTH 12 0
BBX 12 12 0 -2
BITMAP
0000
7FC0
0000
3F80
2080
2080
3F80
2080
2080
3F80
0000
FFE0
ENDCHAR
STARTCHAR 4E99
ENCODING 20121
SWIDTH 720 0
DWIDTH 12 0
BBX 12 12 0 -2
BITMAP
0000
FFF0
0800
0FC0
0840
1640
1180
2080
2D00
0300
0100
FFF0
ENDCHAR
STARTCHAR 4E9B
ENCODING 20123
SWIDTH 720 0
DWIDTH 12 0
BBX 12 12 0 -2
BITMAP
1100
5100
5D60
51C0
5110
5D10
F0F0
0000
7FE0
0000
0000
FFF0
ENDCHAR
STARTCHAR 4E9C
ENCODING 20124
SWIDTH 720 0
DWIDTH 12 0
BBX 12 12 0 -2
BITMAP
FFF0
0900
0900
7FE0
4920
4920
4920
7FE0
0900
0900
0900
FFF0
ENDCHAR
STARTCHAR 4E9E
ENCODING 20126
SWIDTH 720 0
DWIDTH 12 0
BBX 12 12 0 -2
BITMAP
0000
FFF0
0900
0900
79E0
4020
4020
79E0
4920
0900
0900
FFF0
ENDCHAR
STARTCHAR 4E9F
ENCODING 20127
SWIDTH 720 0
DWIDTH 12 0
BBX 12 12 0 -2
BITMAP
0000
7FE0
0400
0400
E8F0
AE10
A250
A220
E250
8A90
0400
FFF0
ENDCHAR
STARTCHAR 4EA0
ENCODING 20128
SWIDTH 720 0
DWIDTH 12 0
BBX 12 12 0 -2
BITMAP
0000
0000
0000
0400
0400
0400
FFE0
0000
0000
0000
0000
0000
ENDCHAR
STARTCHAR 4EA1
ENCODING 20129
SWIDTH 720 0
DWIDTH 12 0
BBX 12 12 0 -2
BITMAP
0200
0200
0200
FFF0
2000
2000
2000
2000
2000
2000
2000
1FE0
ENDCHAR
STARTCHAR 4EA2
ENCODING 20130
SWIDTH 720 0
DWIDTH 12 0
BBX 12 12 0 -2
BITMAP
0400
0400
FFF0
0000
1F00
1100
1100
1100
1100
2110
2110
C0F0
ENDCHAR
STARTCHAR 4EA4
ENCODING 20132
SWIDTH 720 0
DWIDTH 12 0
BBX 12 12 0 -2
BITMAP
0400
0400
FFE0
1100
1100
2080
D160
0A00
0400
0A00
3180
C070
ENDCHAR
STARTCHAR 4EA5
ENCODING 20133
SWIDTH 720 0
DWIDTH 12 0
BBX 12 12 0 -2
BITMAP
0400
FFF0
0400
0800
3080
0900
0640
0C80
7100
0300
0C80
7060
ENDCHAR
STARTCHAR 4EA6
ENCODING 20134
SWIDTH 720 0
DWIDTH 12 0
BBX 12 12 0 -2
BITMAP
0400
0400
FFF0
0900
0900
4940
4920
4920
8920
1100
1100
2300
ENDCHAR
STARTCHAR 4EA8
ENCODING 20136
SWIDTH 720 0
DWIDTH 12 0
BBX 12 12 0 -2
BITMAP
0400
7FC0
0000
3F80
2080
3F80
0000
7FC0
0180
0600
0400
1C00
ENDCHAR
STARTCHAR 4EAB
ENCODING 20139
SWIDTH 720 0
DWIDTH 12 0
BBX 12 12 0 -2
BITMAP
0400
FFE0
0000
3F80
2080
3F80
0000
3F80
0100
FFE0
0400
0C00
ENDCHAR
STARTCHAR 4EAC
ENCODING 20140
SWIDTH 720 0
DWIDTH 12 0
BBX 12 12 0 -2
BITMAP
0400
0400
FFE0
0000
3F80
2080
2080
3F80
0400
2480
2440
4C40
ENDCHAR
STARTCHAR 4EAD
ENCODING 20141
SWIDTH 720 0
DWIDTH 12 0
BBX 12 12 0 -2
BITMAP
0400
FFE0
0000
3F80
2080
FFE0
8020
7FC0
0400
0400
0400
0C00
ENDCHAR
STARTCHAR 4EAE
ENCODING 20142
SWIDTH 720 0
DWIDTH 12 0
BBX 12 12 0 -2
BITMAP
0400
FFE0
0000
7FC0
4040
7FC0
0000
FFE0
9120
1100
2110
C0F0
ENDCHAR
STARTCHAR 4EB0
ENCODING 20144
SWIDTH 720 0
DWIDTH 12 0
BBX 12 12 0 -2
BITMAP
0400
FFE0
0000
3F80
2080
3F80
2080
3F80
0400
4480
4440
8C40
ENDCHAR
STARTCHAR 4EB3
ENCODING 20147
SWIDTH 720 0
DWIDTH 12 0
BBX 12 12 0 -2
BITMAP
0400
FFE0
0000
3F80
2080
FFE0
8020
3F80
0400
7F80
0420
03E0
ENDCHAR
STARTCHAR 4EB6
ENCODING 20150
SWIDTH 720 0
DWIDTH 12 0
BBX 12 12 0 -2
BITMAP
0600
FFF0
2F40
2940
2F40
3FC0
0000
1F80
1080
1F80
1080
FFF0
ENDCHAR
STARTCHAR 4EBA
ENCODING 20154
SWIDTH 720 0
DWIDTH 12 0
BBX 12 12 0 -2
BITMAP
0400
0400
0400
0400
0400
0400
0A00
0A00
1100
1100
2080
C070
ENDCHAR
STARTCHAR 4EC0
ENCODING 20160
SWIDTH 720 0
DWIDTH 12 0
BBX 12 12 0 -2
BITMAP
1100
1100
2100
2100
6FE0
6100
A100
2100
2100
2100
2100
2100
ENDCHAR
STARTCHAR 4EC1
ENCODING 20161
SWIDTH 720 0
DWIDTH 12 0
BBX 12 12 0 -2
BITMAP
1000
1000
27E0
2000
6000
A000
2000
2000
2000
2000
2FF0
2000
ENDCHAR
STARTCHAR 4EC2
ENCODING 20162
SWIDTH 720 0
DWIDTH 12 0
BBX 12 12 0 -2
BITMAP
2100
2100
2100
4FF0
4110
C110
4110
4110
4110
4210
4210
4C60
ENDCHAR
STARTCHAR 4EC4
ENCODING 20164
SWIDTH 720 0
DWIDTH 12 0
BBX 12 12 0 -2
BITMAP
7FF0
4200
4200
4200
4200
4200
4200
4500
4500
8880
1040
6030
ENDCHAR
STARTCHAR 4EC6
ENCODING 20166
SWIDTH 720 0
DWIDTH 12 0
BBX 12 12 0 -2
BITMAP
1100
1100
1100
2100
2180
6140
A120
2120
2100
2100
2100
2100
ENDCHAR
STARTCHAR 4EC7
ENCODING 20167
SWIDTH 720 0
DWIDTH 12 0
BBX 12 12 0 -2
BITMAP
2200
2200
2200
4FC0
4240
C240
4240
4240
4240
4450
4450
5830
ENDCHAR
STARTCHAR 4ECA
ENCODING 20170
SWIDTH 720 0
DWIDTH 12 0
BBX 12 12 0 -2
BITMAP
0400
0400
0A00
3180
C060
3F80
0000
7FC0
0040
0080
0300
1C00
ENDCHAR
STARTCHAR 4ECB
ENCODING 20171
SWIDTH 720 0
DWIDTH 12 0
BBX 12 12 0 -2
BITMAP
0400
0600
0900
1080
2040
D0B0
1080
1080
1080
2080
2080
4080
ENDCHAR
STARTCHAR 4ECD
ENCODING 20173
SWIDTH 720 0
DWIDTH 12 0
BBX 12 12 0 -2
BITMAP
2FC0
2440
2440
4440
4480
C480
44F0
4410
4410
4810
4820
5060
ENDCHAR
STARTCHAR 4ECE
ENCODING 20174
SWIDTH 720 0
DWIDTH 12 0
BBX 12 12 0 -2
BITMAP
1080
1080
1080
1080
1080
1080
1080
2940
2940
4620
4220
8410
ENDCHAR
STARTCHAR 4ECF
ENCODING 20175
SWIDTH 720 0
DWIDTH 12 0
BBX 12 12 0 -2
BITMAP
1100
1100
1100
2100
2200
6200
A200
2240
2420
2460
2590
2E10
ENDCHAR
STARTCHAR 4ED4
ENCODING 20180
SWIDTH 720 0
DWIDTH 12 0
BBX 12 12 0 -2
BITMAP
2000
27E0
2040
4080
4100
C100
4FF0
4100
4100
4100
4100
4700
ENDCHAR
STARTCHAR 4ED5
ENCODING 20181
SWIDTH 720 0
DWIDTH 12 0
BBX 12 12 0 -2
BITMAP
2100
2100
2100
4100
5FF0
C100
4100
4100
4100
4100
4100
4FE0
ENDCHAR
STARTCHAR 4ED6
ENCODING 20182
SWIDTH 720 0
DWIDTH 12 0
BBX 12 12 0 -2
BITMAP
1080
1480
2480
25F0
6E90
A490
2490
24B0
2480
2410
2410
23F0
ENDCHAR
STARTCHAR 4ED7
ENCODING 20183
SWIDTH 720 0
DWIDTH 12 0
BBX 12 12 0 -2
BITMAP
2080
2080
2080
5FF0
4080
C480
4480
4A80
4100
4180
4640
5830
ENDCHAR
STARTCHAR 4ED8
ENCODING 20184
SWIDTH 720 0
DWIDTH 12 0
BBX 12 12 0 -2
BITMAP
1040
1040
1040
27F0
6040
A040
2440
2240
2240
2040
2040
21C0
ENDCHAR
STARTCHAR 4ED9
ENCODING 20185
SWIDTH 720 0
DWIDTH 12 0
BBX 12 12 0 -2
BITMAP
1080
1080
2080
2490
6490
A490
2490
2490
2490
2490
27F0
2400
ENDCHAR
STARTCHAR 4EDD
ENCODING 20189
SWIDTH 720 0
DWIDTH 12 0
BBX 12 12 0 -2
BITMAP
0400
0400
0A00
1100
2080
C070
3F80
0400
0400
0400
0400
FFE0
ENDCHAR
STARTCHAR 4EDE
ENCODING 20190
SWIDTH 720 0
DWIDTH 12 0
BBX 12 12 0 -2
BITMAP
2000
2FF0
2110
4110
4110
C910
4910
4910
5110
4210
4210
4C60
ENDCHAR
STARTCHAR 4EDF
ENCODING 20191
SWIDTH 720 0
DWIDTH 12 0
BBX 12 12 0 -2
BITMAP
20E0
2780
2080
4080
4080
CFF0
4080
4080
4080
4080
4080
4080
ENDCHAR
STARTCHAR 4EE3
ENCODING 20195
SWIDTH 720 0
DWIDTH 12 0
BBX 12 12 0 -2
BITMAP
1120
1110
2100
2FF0
6100
A100
2100
2100
2080
2080
2050
2030
ENDCHAR
STARTCHAR 4EE4
ENCODING 20196
SWIDTH 720 0
DWIDTH 12 0
BBX 12 12 0 -2
BITMAP
0400
0A00
1100
2080
DF60
0000
7FC0
0440
0440
0440
05C0
0400
ENDCHAR
STARTCHAR 4EE5
ENCODING 20197
SWIDTH 720 0
DWIDTH 12 0
BBX 12 12 0 -2
BITMAP
4040
4040
4840
4440
4440
4240
4040
4040
5040
60A0
8310
0C00
ENDCHAR
STARTCHAR 4EED
ENCODING 20205
SWIDTH 720 0
DWIDTH 12 0
BBX 12 12 0 -2
BITMAP
2000
2FF0
2220
4220
4A20
D620
4220
4320
44E0
4430
4840
50C0
ENDCHAR
STARTCHAR 4EEE
ENCODING 20206
SWIDTH 720 0
DWIDTH 12 0
BBX 12 12 0 -2
BITMAP
1000
17F0
1400
2400
2400
67E0
A420
2620
2540
2480
2940
2630
ENDCHAR
STARTCHAR 4EF0
ENCODING 20208
SWIDTH 720 0
DWIDTH 12 0
BBX 12 12 0 -2
BITMAP
2300
2C00
29F0
4910
4910
C910
4910
4910
4B10
5D70
4100
4100
ENDCHAR
STARTCHAR 4EF2
ENCODING 20210
SWIDTH 720 0
DWIDTH 12 0
BBX 12 12 0 -2
BITMAP
2100
2100
2100
4FE0
4920
C920
4920
4FE0
4900
4100
4100
4100
ENDCHAR
STARTCHAR 4EF6
ENCODING 20214
SWIDTH 720 0
DWIDTH 12 0
BBX 12 12 0 -2
BITMAP
2100
2900
2900
4FE0
5100
C100
4100
5FF0
4100
4100
4100
4100
ENDCHAR
STARTCHAR 4EF7
ENCODING 20215
SWIDTH 720 0
DWIDTH 12 0
BBX 12 12 0 -2
BITMAP
2100
2100
2280
4440
5830
C240
4240
4240
4240
4440
4440
4840
ENDCHAR
STARTCHAR 4EFB
ENCODING 20219
SWIDTH 720 0
DWIDTH 12 0
BBX 12 12 0 -2
BITMAP
2000
21E0
2F00
4100
4100
C100
5FF0
4100
4100
4100
4100
4FE0
ENDCHAR
STARTCHAR 4F01
ENCODING 20225
SWIDTH 720 0
DWIDTH 12 0
BBX 12 12 0 -2
BITMAP
0400
0400
0A00
1100
2480
C460
0400
2780
2400
2400
2400
FFE0
ENDCHAR
STARTCHAR 4F09
ENCODING 20233
SWIDTH 720 0
DWIDTH 12 0
BBX 12 12 0 -2
BITMAP
2100
2100
2FF0
4000
4000
C7C0
4440
4440
4440
4850
4850
5030
ENDCHAR
STARTCHAR 4F0A
ENCODING 20234
SWIDTH 720 0
DWIDTH 12 0
BBX 12 12 0 -2
BITMAP
1000
1FE0
1120
2120
6FF0
A120
2120
2FE0
2100
2100
2200
2C00
ENDCHAR
STARTCHAR 4F0D
ENCODING 20237
SWIDTH 720 0
DWIDTH 12 0
BBX 12 12 0 -2
BITMAP
2000
2FF0
2100
4100
4100
CFE0
4120
4220
4220
4220
4220
5FF0
ENDCHAR
STARTCHAR 4F0E
ENCODING 20238
SWIDTH 720 0
DWIDTH 12 0
BBX 12 12 0 -2
BITMAP
2100
2100
2FF0
4100
4100
CFE0
4040
4440
4280
4100
4680
5870
ENDCHAR
STARTCHAR 4F0F
ENCODING 20239
SWIDTH 720 0
DWIDTH 12 0
BBX 12 12 0 -2
BITMAP
2100
2120
2110
4100
4FF0
C100
4100
4280
4280
4440
4420
4810
ENDCHAR
STARTCHAR 4F10
ENCODING 20240
SWIDTH 720 0
DWIDTH 12 0
BBX 12 12 0 -2
BITMAP
2240
2220
2200
43E0
5E00
C240
4240
4280
4100
4310
5C90
4070
ENDCHAR
STARTCHAR 4F11
ENCODING 20241
SWIDTH 720 0
DWIDTH 12 0
BBX 12 12 0 -2
BITMAP
2100
2100
2100
5FF0
4100
C380
4380
4540
4540
4920
5110
4100
ENDCHAR
STARTCHAR 4F1A
ENCODING 20250
SWIDTH 720 0
DWIDTH 12 0
BBX 12 12 0 -2
BITMAP
0400
0600
0900
1080
2040
DFB0
0000
7FE0
0400
0840
13E0
7C20
ENDCHAR
STARTCHAR 4F1C
ENCODING 20252
SWIDTH 720 0
DWIDTH 12 0
BBX 12 12 0 -2
BITMAP
2200
2200
2FC0
4240
4250
C450
5930
4100
5FF0
4100
4100
4100
ENDCHAR
STARTCHAR 4F1D
ENCODING 20253
SWIDTH 720 0
DWIDTH 12 0
BBX 12 12 0 -2
BITMAP
1000
17E0
2000
2000
6000
AFF0
2100
2100
2220
2210
22F0
2F10
ENDCHAR
STARTCHAR 4F2F
ENCODING 20271
SWIDTH 720 0
DWIDTH 12 0
BBX 12 12 0 -2
BITMAP
2100
2100
2200
4FE0
4820
C820
4820
4FE0
4820
4820
4820
4FE0
ENDCHAR
STARTCHAR 4F30
ENCODING 20272
SWIDTH 720 0
DWIDTH 12 0
BBX 12 12 0 -2
BITMAP
2100
2100
2FF0
4100
4100
C100
4100
47E0
4420
4420
4420
47E0
ENDCHAR
STARTCHAR 4F34
ENCODING 20276
SWIDTH 720 0
DWIDTH 12 0
BBX 12 12 0 -2
BITMAP
2920
2520
2540
4100
4FE0
C100
4100
5FF0
4100
4100
4100
4100
ENDCHAR
STARTCHAR 4F36
ENCODING 20278
SWIDTH 720 0
DWIDTH 12 0
BBX 12 12 0 -2
BITMAP
2100
2280
2440
5830
47C0
C000
4FE0
4220
4220
4220
4260
4200
ENDCHAR
STARTCHAR 4F38
ENCODING 20280
SWIDTH 720 0
DWIDTH 12 0
BBX 12 12 0 -2
BITMAP
1080
1080
27F0
2490
6490
A7F0
2490
2490
27F0
2480
2080
2080
ENDCHAR
STARTCHAR 4F3A
ENCODING 20282
SWIDTH 720 0
DWIDTH 12 0
BBX 12 12 0 -2
BITMAP
1000
17F0
2020
27A0
6020
A7A0
24A0
24A0
27A0
2420
2020
20E0
ENDCHAR
STARTCHAR 4F3C
ENCODING 20284
SWIDTH 720 0
DWIDTH 12 0
BBX 12 12 0 -2
BITMAP
2040
2840
2840
4A40
4940
C840
4840
4840
4E40
58A0
4110
4600
ENDCHAR
STARTCHAR 4F3D
ENCODING 20285
SWIDTH 720 0
DWIDTH 12 0
BBX 12 12 0 -2
BITMAP
1400
1400
2470
2F50
6550
A550
2550
2550
2550
2550
2570
2B40
ENDCHAR
STARTCHAR 4F43
ENCODING 20291
SWIDTH 720 0
DWIDTH 12 0
BBX 12 12 0 -2
BITMAP
17F0
1490
2490
2490
6490
A7F0
2490
2490
2490
2490
2490
27F0
ENDCHAR
STARTCHAR 4F46
ENCODING 20294
SWIDTH 720 0
DWIDTH 12 0
BBX 12 12 0 -2
BITMAP
17E0
1420
2420
2420
67E0
A420
2420
2420
27E0
2400
2000
2FF0
ENDCHAR
STARTCHAR 4F47
ENCODING 20295
SWIDTH 720 0
DWIDTH 12 0
BBX 12 12 0 -2
BITMAP
2100
2100
2FE0
4820
4000
CFE0
4100
4100
4100
4100
4100
4300
ENDCHAR
STARTCHAR 4F4D
ENCODING 20301
SWIDTH 720 0
DWIDTH 12 0
BBX 12 12 0 -2
BITMAP
1100
1100
2FF0
2040
6440
A440
2440
2240
2280
2280
2080
2FF0
ENDCHAR
STARTCHAR 4F4E
ENCODING 20302
SWIDTH 720 0
DWIDTH 12 0
BBX 12 12 0 -2
BITMAP
1060
1780
2480
2480
6480
A7F0
2480
2480
2440
2E50
2030
2F90
ENDCHAR
STARTCHAR 4F4F
ENCODING 20303
SWIDTH 720 0
DWIDTH 12 0
BBX 12 12 0 -2
BITMAP
1200
1100
2000
2FF0
6100
A100
2100
27E0
2100
2100
2100
2FF0
ENDCHAR
STARTCHAR 4F50
ENCODING 20304
SWIDTH 720 0
DWIDTH 12 0
BBX 12 12 0 -2
BITMAP
2200
2200
2200
4FF0
4200
C400
47E0
4900
5100
4100
4100
4FF0
ENDCHAR
STARTCHAR 4F51
ENCODING 20305
SWIDTH 720 0
DWIDTH 12 0
BBX 12 12 0 -2
BITMAP
2200
2200
2200
5FF0
4200
C400
4400
4FE0
5420
4420
4420
47E0
ENDCHAR
STARTCHAR 4F53
ENCODING 20307
SWIDTH 720 0
DWIDTH 12 0
BBX 12 12 0 -2
BITMAP
2100
2100
2100
4FF0
4100
C380
4380
4540
4540
4920
5390
4100
ENDCHAR
STARTCHAR 4F55
ENCODING 20309
SWIDTH 720 0
DWIDTH 12 0
BBX 12 12 0 -2
BITMAP
1000
17F0
1020
2020
27A0
64A0
A4A0
27A0
2420
2020
2020
20E0
ENDCHAR
STARTCHAR 4F57
ENCODING 20311
SWIDTH 720 0
DWIDTH 12 0
BBX 12 12 0 -2
BITMAP
2100
2100
2FF0
4810
4400
C400
44E0
4780
4400
4410
4410
43F0
ENDCHAR
STARTCHAR 4F59
ENCODING 20313
SWIDTH 720 0
DWIDTH 12 0
BBX 12 12 0 -2
BITMAP
0400
0A00
3180
C060
3F80
0400
0400
7FE0
0400
2480
2440
4C40
ENDCHAR
STARTCHAR 4F5A
ENCODING 20314
SWIDTH 720 0
DWIDTH 12 0
BBX 12 12 0 -2
BITMAP
2100
2500
2500
47E0
4900
C100
4FF0
4100
4280
4280
4440
5830
ENDCHAR
STARTCHAR 4F5B
ENCODING 20315
SWIDTH 720 0
DWIDTH 12 0
BBX 12 12 0 -2
BITMAP
2280
2280
2FE0
42A0
5FE0
D280
5FF0
4290
4290
44A0
4480
4880
ENDCHAR
STARTCHAR 4F5C
ENCODING 20316
SWIDTH 720 0
DWIDTH 12 0
BBX 12 12 0 -2
BITMAP
2400
2400
27F0
4900
4900
D1E0
4100
4100
41E0
4100
4100
4100
ENDCHAR
STARTCHAR 4F5D
ENCODING 20317
SWIDTH 720 0
DWIDTH 12 0
BBX 12 12 0 -2
BITMAP
2400
2400
2400
47F0
4810
D790
4490
4490
4790
4410
4020
40E0
ENDCHAR
STARTCHAR 4F5E
ENCODING 20318
SWIDTH 720 0
DWIDTH 12 0
BBX 12 12 0 -2
BITMAP
27E0
2000
2FF0
4200
4200
DFF0
4440
4440
4E80
4180
4240
1C20
ENDCHAR
STARTCHAR 4F69
ENCODING 20329
SWIDTH 720 0
DWIDTH 12 0
BBX 12 12 0 -2
BITMAP
2FE0
2820
2FE0
4920
4920
CFE0
4D60
4D60
4D60
4D60
49D0
5110
ENDCHAR
STARTCHAR 4F6F
ENCODING 20335
SWIDTH 720 0
DWIDTH 12 0
BBX 12 12 0 -2
BITMAP
2440
2280
2FE0
4100
4100
C7C0
4100
4100
5FF0
4100
4100
4100
ENDCHAR
STARTCHAR 4F70
ENCODING 20336
SWIDTH 720 0
DWIDTH 12 0
BBX 12 12 0 -2
BITMAP
2000
2FE0
2100
4200
4FE0
C820
4820
4FE0
4820
4820
4820
4FE0
ENDCHAR
STARTCHAR 4F73
ENCODING 20339
SWIDTH 720 0
DWIDTH 12 0
BBX 12 12 0 -2
BITMAP
2100
2100
2FE0
4100
4100
DFF0
4100
4100
4FE0
4100
4100
5FF0
ENDCHAR
STARTCHAR 4F75
ENCODING 20341
SWIDTH 720 0
DWIDTH 12 0
BBX 12 12 0 -2
BITMAP
1420
1220
2240
2FF0
6240
A240
3FF0
2240
2240
2440
2440
2840
ENDCHAR
STARTCHAR 4F76
ENCODING 20342
SWIDTH 720 0
DWIDTH 12 0
BBX 12 12 0 -2
BITMAP
2100
2100
2FE0
4100
4100
C7C0
4000
4000
4FE0
4820
4820
4FE0
ENDCHAR
STARTCHAR 4F7B
ENCODING 20347
SWIDTH 720 0
DWIDTH 12 0
BBX 12 12 0 -2
BITMAP
2280
2280
22A0
4AA0
46C0
C280
46C0
4AA0
4280
4690
4490
5870
ENDCHAR
STARTCHAR 4F7C
ENCODING 20348
SWIDTH 720 0
DWIDTH 12 0
BBX 12 12 0 -2
BITMAP
2100
2100
2FE0
4440
4440
C820
5450
4280
4100
4280
4440
5830
ENDCHAR
STARTCHAR 4F7F
ENCODING 20351
SWIDTH 720 0
DWIDTH 12 0
BBX 12 12 0 -2
BITMAP
1100
1100
2FF0
2100
6FE0
A920
2FE0
2100
2D00
2300
22C0
2C30
ENDCHAR
STARTCHAR 4F83
ENCODING 20355
SWIDTH 720 0
DWIDTH 12 0
BBX 12 12 0 -2
BITMAP
2FE0
2820
4820
4820
C820
4FE0
4000
4540
4540
4550
4950
4930
ENDCHAR
STARTCHAR 4F86
ENCODING 20358
SWIDTH 720 0
DWIDTH 12 0
BBX 12 12 0 -2
BITMAP
0400
0400
FFE0
0400
2480
3580
4E40
8420
0E00
1500
2480
C460
ENDCHAR
STARTCHAR 4F88
ENCODING 20360
SWIDTH 720 0
DWIDTH 12 0
BBX 12 12 0 -2
BITMAP
2200
23E0
2520
5DC0
4300
DD00
41F0
4310
4CA0
4240
4180
4E00
ENDCHAR
STARTCHAR 4F8B
ENCODING 20363
SWIDTH 720 0
DWIDTH 12 0
BBX 12 12 0 -2
BITMAP
2010
2F50
2450
4450
4F50
C950
4950
5750
4250
4210
4410
5870
ENDCHAR
STARTCHAR 4F8D
ENCODING 20365
SWIDTH 720 0
DWIDTH 12 0
BBX 12 12 0 -2
BITMAP
1100
17E0
1100
2100
2FF0
6040
A040
2FF0
2040
2440
2240
20C0
ENDCHAR
STARTCHAR 4F8F
ENCODING 20367
SWIDTH 720 0
DWIDTH 12 0
BBX 12 12 0 -2
BITMAP
2100
2900
2FE0
4900
5100
C100
5FF0
4100
4380
4540
5930
4100
ENDCHAR
STARTCHAR 4F91
ENCODING 20369
SWIDTH 720 0
DWIDTH 12 0
BBX 12 12 0 -2
BITMAP
2200
2200
2FF0
4200
47E0
C420
4FE0
5420
47E0
4420
4420
4460
ENDCHAR
STARTCHAR 4F96
ENCODING 20374
SWIDTH 720 0
DWIDTH 12 0
BBX 12 12 0 -2
BITMAP
0400
0A00
3180
DF60
0000
7FC0
4A40
4A40
7FC0
4A40
4A40
4AC0
ENDCHAR
STARTCHAR 4F98
ENCODING 20376
SWIDTH 720 0
DWIDTH 12 0
BBX 12 12 0 -2
BITMAP
2100
2100
2FF0
4810
49D0
C700
4100
5FF0
4100
4100
4110
40F0
ENDCHAR
STARTCHAR 4F9B
ENCODING 20379
SWIDTH 720 0
DWIDTH 12 0
BBX 12 12 0 -2
BITMAP
2240
2240
2240
4FE0
4240
C240
4240
5FF0
4240
4220
4420
4820
ENDCHAR
STARTCHAR 4F9D
ENCODING 20381
SWIDTH 720 0
DWIDTH 12 0
BBX 12 12 0 -2
BITMAP
1080
1080
2FF0
2100
6220
A520
3D40
2480
2480
2440
2740
2C30
ENDCHAR
STARTCHAR 4FA0
ENCODING 20384
SWIDTH 720 0
DWIDTH 12 0
BBX 12 12 0 -2
BITMAP
2100
2100
2FE0
4100
4920
C920
4540
5FF0
4100
4280
4440
5830
ENDCHAR
STARTCHAR 4FA1
ENCODING 20385
SWIDTH 720 0
DWIDTH 12 0
BBX 12 12 0 -2
BITMAP
1000
17F0
1140
2140
27F0
6550
A550
2550
2550
2550
27F0
2400
ENDCHAR
STARTCHAR 4FAB
ENCODING 20395
SWIDTH 720 0
DWIDTH 12 0
BBX 12 12 0 -2
BITMAP
2080
2080
2FF0
4400
4400
C3E0
4400
5FF0
4440
4E80
41C0
4E20
ENDCHAR
STARTCHAR 4FAD
ENCODING 20397
SWIDTH 720 0
DWIDTH 12 0
BBX 12 12 0 -2
BITMAP
2000
2FE0
2820
4FE0
4840
C840
4B20
48A0
5010
5610
4180
4040
ENDCHAR
STARTCHAR 4FAE
ENCODING 20398
SWIDTH 720 0
DWIDTH 12 0
BBX 12 12 0 -2
BITMAP
2400
27F0
2400
4BE0
4AA0
C2A0
4FF0
4540
4540
47F0
4440
41C0
ENDCHAR
STARTCHAR 4FAF
ENCODING 20399
SWIDTH 720 0
DWIDTH 12 0
BBX 12 12 0 -2
BITMAP
27C0
2040
2040
4FE0
4800
CFE0
4900
5100
4FF0
4280
4440
5830
ENDCHAR
STARTCHAR 4FB5
ENCODING 20405
SWIDTH 720 0
DWIDTH 12 0
BBX 12 12 0 -2
BITMAP
17E0
1020
27E0
2020
67E0
A000
2FF0
2810
23F0
2220
21C0
2E30
ENDCHAR
STARTCHAR 4FB6
ENCODING 20406
SWIDTH 720 0
DWIDTH 12 0
BBX 12 12 0 -2
BITMAP
27E0
2420
2420
47E0
4100
C100
4200
4FF0
4810
4810
4810
4FF0
ENDCHAR
STARTCHAR 4FBF
ENCODING 20415
SWIDTH 720 0
DWIDTH 12 0
BBX 12 12 0 -2
BITMAP
2FF0
2100
2FE0
4920
4FE0
C920
4FE0
4100
4D00
4300
4480
5870
ENDCHAR
STARTCHAR 4FC2
ENCODING 20418
SWIDTH 720 0
DWIDTH 12 0
BBX 12 12 0 -2
BITMAP
10C0
1780
1100
2640
2280
6120
6FE0
A110
2550
2920
2920
2100
ENDCHAR
STARTCHAR 4FC3
ENCODING 20419
SWIDTH 720 0
DWIDTH 12 0
BBX 12 12 0 -2
BITMAP
27E0
2420
2420
4420
47E0
C080
4480
44F0
4480
4480
4A80
51F0
ENDCHAR
STARTCHAR 4FC4
ENCODING 20420
SWIDTH 720 0
DWIDTH 12 0
BBX 12 12 0 -2
BITMAP
2EA0
2490
2490
4480
5FF0
C480
4690
5C90
4460
44C0
4550
4C30
ENDCHAR
STARTCHAR 4FCA
ENCODING 20426
SWIDTH 720 0
DWIDTH 12 0
BBX 12 12 0 -2
BITMAP
1100
1240
2FE0
22A0
6290
ACF0
2200
23E0
2C20
22C0
2380
2C70
ENDCHAR
STARTCHAR 4FCE
ENCODING 20430
SWIDTH 720 0
DWIDTH 12 0
BBX 12 12 0 -2
BITMAP
23E0
2220
2220
5220
4BE0
A220
2220
23E0
5220
4A20
8220
0FF0
ENDCHAR
STARTCHAR 4FD0
ENCODING 20432
SWIDTH 720 0
DWIDTH 12 0
BBX 12 12 0 -2
BITMAP
2310
2E50
2450
4450
5F50
C450
4E50
4D50
5450
5410
4410
4470
ENDCHAR
STARTCHAR 4FD1
ENCODING 20433
SWIDTH 720 0
DWIDTH 12 0
BBX 12 12 0 -2
BITMAP
2000
2FC0
2280
4100
4FE0
C920
4FE0
4920
4FE0
4920
4920
4960
ENDCHAR
STARTCHAR 4FD4
ENCODING 20436
SWIDTH 720 0
DWIDTH 12 0
BBX 12 12 0 -2
BITMAP
27E0
2420
2420
47E0
4420
C7E0
4420
4420
47E0
4280
4290
4CF0
ENDCHAR
STARTCHAR 4FD7
ENCODING 20439
SWIDTH 720 0
DWIDTH 12 0
BBX 12 12 0 -2
BITMAP
2440
2440
2920
5110
4280
C440
5830
47C0
4440
4440
4440
47C0
ENDCHAR
STARTCHAR 4FD8
ENCODING 20440
SWIDTH 720 0
DWIDTH 12 0
BBX 12 12 0 -2
BITMAP
2060
2FC0
2540
4920
5110
CFE0
4040
4080
5FF0
4100
4100
4700
ENDCHAR
STARTCHAR 4FDA
ENCODING 20442
SWIDTH 720 0
DWIDTH 12 0
BBX 12 12 0 -2
BITMAP
2FE0
2920
2FE0
4920
4920
CFE0
4100
4100
4FE0
4100
4100
5FF0
ENDCHAR
STARTCHAR 4FDB
ENCODING 20443
SWIDTH 720 0
DWIDTH 12 0
BBX 12 12 0 -2
BITMAP
2200
23C0
2440
4080
4FE0
C920
4920
4FE0
4280
4290
4490
5870
ENDCHAR
STARTCHAR 4FDD
ENCODING 20445
SWIDTH 720 0
DWIDTH 12 0
BBX 12 12 0 -2
BITMAP
2FE0
2820
2820
4FE0
4900
C100
5FF0
4100
4380
4540
5930
4100
ENDCHAR
STARTCHAR 4FDF
ENCODING 20447
SWIDTH 720 0
DWIDTH 12 0
BBX 12 12 0 -2
BITMAP
2200
2240
2420
4FE0
4420
C7E0
4900
4100
5FF0
4280
4440
5830
ENDCHAR
STARTCHAR 4FE1
ENCODING 20449
SWIDTH 720 0
DWIDTH 12 0
BBX 12 12 0 -2
BITMAP
13C0
1000
27F0
2000
63E0
A000
23E0
2000
27F0
2410
2410
27F0
ENDCHAR
STARTCHAR 4FE3
ENCODING 20451
SWIDTH 720 0
DWIDTH 12 0
BBX 12 12 0 -2
BITMAP
2FE0
2820
2820
4FE0
4000
CFE0
4100
4100
5FF0
4280
4440
5830
ENDCHAR
STARTCHAR 4FE4
ENCODING 20452
SWIDTH 720 0
DWIDTH 12 0
BBX 12 12 0 -2
BITMAP
2440
2280
2FE0
4120
4FE0
D100
5FF0
4110
4310
4520
5960
4100
ENDCHAR
STARTCHAR 4FE5
ENCODING 20453
SWIDTH 720 0
DWIDTH 12 0
BBX 12 12 0 -2
BITMAP
2100
2FF0
2100
4FE0
4920
CFE0
4920
4FE0
4100
5FF0
4100
4100
ENDCHAR
STARTCHAR 4FEE
ENCODING 20462
SWIDTH 720 0
DWIDTH 12 0
BBX 12 12 0 -2
BITMAP
2200
23F0
2620
4940
4180
D640
5130
5600
50C0
5700
5060
4F80
ENDCHAR
STARTCHAR 4FEF
ENCODING 20463
SWIDTH 720 0
DWIDTH 12 0
BBX 12 12 0 -2
BITMAP
2100
2100
2FF0
4920
4920
CAF0
4E20
4A20
4AA0
4AA0
5220
5260
ENDCHAR
STARTCHAR 4FF3
ENCODING 20467
SWIDTH 720 0
DWIDTH 12 0
BBX 12 12 0 -2
BITMAP
2280
2280
2EF0
4280
4280
DEF0
4280
4280
5EF0
4480
4480
4880
ENDCHAR
STARTCHAR 4FF5
ENCODING 20469
SWIDTH 720 0
DWIDTH 12 0
BBX 12 12 0 -2
BITMAP
2100
2FE0
2100
4FE0
4100
DFF0
4200
44A0
4CC0
5480
4740
4C30
ENDCHAR
STARTCHAR 4FF6
ENCODING 20470
SWIDTH 720 0
DWIDTH 12 0
BBX 12 12 0 -2
BITMAP
2400
2470
2710
4450
5F50
C450
4450
4D50
5520
5520
5450
4590
ENDCHAR
STARTCHAR 4FF8
ENCODING 20472
SWIDTH 720 0
DWIDTH 12 0
BBX 12 12 0 -2
BITMAP
2100
2FE0
2100
47C0
4280
DFF0
4540
5930
47C0
4100
4FE0
4100
ENDCHAR
STARTCHAR 4FFA
ENCODING 20474
SWIDTH 720 0
DWIDTH 12 0
BBX 12 12 0 -2
BITMAP
2100
2100
2FF0
4540
C920
77D0
4540
47C0
4540
47C0
4110
40F0
ENDCHAR
STARTCHAR 4FFE
ENCODING 20478
SWIDTH 720 0
DWIDTH 12 0
BBX 12 12 0 -2
BITMAP
2100
2200
2FE0
4920
4FE0
C920
4FE0
4480
4880
5FF0
4080
4080
ENDCHAR
STARTCHAR 5005
ENCODING 20485
SWIDTH 720 0
DWIDTH 12 0
BBX 12 12 0 -2
BITMAP
2100
2100
2FE0
4440
4440
CAA0
5110
4100
5FF0
4100
4100
4100
ENDCHAR
STARTCHAR 5006
ENCODING 20486
SWIDTH 720 0
DWIDTH 12 0
BBX 12 12 0 -2
BITMAP
2000
3FF0
4100
5FF0
D110
5110
5DD0
5550
5550
5BB0
5110
5130
ENDCHAR
STARTCHAR 5009
ENCODING 20489
SWIDTH 720 0
DWIDTH 12 0
BBX 12 12 0 -2
BITMAP
0400
0A00
3180
FFE0
2080
3F80
2080
3F80
2000
3FC0
5040
9FC0
ENDCHAR
STARTCHAR 500B
ENCODING 20491
SWIDTH 720 0
DWIDTH 12 0
BBX 12 12 0 -2
BITMAP
2FF0
2890
2890
4FF0
4890
C890
4BD0
4A50
4A50
4BD0
4810
4FF0
ENDCHAR
STARTCHAR 500D
ENCODING 20493
SWIDTH 720 0
DWIDTH 12 0
BBX 12 12 0 -2
BITMAP
2100
2100
2FE0
4440
4280
DFF0
4000
4000
4FE0
4820
4820
4FE0
ENDCHAR
STARTCHAR 500F
ENCODING 20495
SWIDTH 720 0
DWIDTH 12 0
BBX 12 12 0 -2
BITMAP
2200
23F0
2220
55C0
5140
D630
50A0
5090
57F0
5080
4140
4630
ENDCHAR
STARTCHAR 5011
ENCODING 20497
SWIDTH 720 0
DWIDTH 12 0
BBX 12 12 0 -2
BITMAP
2EE0
2AA0
2EE0
4AA0
4EE0
C820
4820
4820
4820
4820
4820
4860
ENDCHAR
STARTCHAR 5012
ENCODING 20498
SWIDTH 720 0
DWIDTH 12 0
BBX 12 12 0 -2
BITMAP
2010
3F10
2A50
4B50
5D50
C450
4450
5F50
4450
4710
5C10
4070
ENDCHAR
STARTCHAR 5014
ENCODING 20500
SWIDTH 720 0
DWIDTH 12 0
BBX 12 12 0 -2
BITMAP
2000
2FF0
2810
4FF0
4880
CAA0
4AA0
4BE0
5080
5490
4490
47F0
ENDCHAR
STARTCHAR 5016
ENCODING 20502
SWIDTH 720 0
DWIDTH 12 0
BBX 12 12 0 -2
BITMAP
1100
1100
27C0
2100
6FE0
A440
2280
2FF0
2100
27E0
2100
2100
ENDCHAR
STARTCHAR 5019
ENCODING 20505
SWIDTH 720 0
DWIDTH 12 0
BBX 12 12 0 -2
BITMAP
23E0
2020
2020
47F0
5200
D3F0
5480
5080
57F0
5080
5140
4630
ENDCHAR
STARTCHAR 501A
ENCODING 20506
SWIDTH 720 0
DWIDTH 12 0
BBX 12 12 0 -2
BITMAP
2100
2FF0
2280
4440
5830
C000
5FF0
4020
4F20
4920
4F20
4060
ENDCHAR
STARTCHAR 501F
ENCODING 20511
SWIDTH 720 0
DWIDTH 12 0
BBX 12 12 0 -2
BITMAP
1240
1240
17E0
2240
2240
6FF0
A000
27E0
2420
27E0
2420
27E0
ENDCHAR
STARTCHAR 5021
ENCODING 20513
SWIDTH 720 0
DWIDTH 12 0
BBX 12 12 0 -2
BITMAP
27C0
2440
27C0
4440
47C0
C000
4FE0
4820
4FE0
4820
4820
4FE0
ENDCHAR
STARTCHAR 5023
ENCODING 20515
SWIDTH 720 0
DWIDTH 12 0
BBX 12 12 0 -2
BITMAP
2480
2480
24F0
5FA0
44A0
C520
4E40
4A40
4A40
4AA0
4EA0
4110
ENDCHAR
STARTCHAR 5024
ENCODING 20516
SWIDTH 720 0
DWIDTH 12 0
BBX 12 12 0 -2
BITMAP
2080
27F0
2080
43E0
4A20
CBE0
4A20
4BE0
4A20
4BE0
4800
4FF0
ENDCHAR
STARTCHAR 5025
ENCODING 20517
SWIDTH 720 0
DWIDTH 12 0
BBX 12 12 0 -2
BITMAP
2100
2100
2FF0
4A90
4280
CCF0
4000
4FE0
4100
4100
4100
5FF0
ENDCHAR
STARTCHAR 5026
ENCODING 20518
SWIDTH 720 0
DWIDTH 12 0
BBX 12 12 0 -2
BITMAP
2920
2540
2FE0
4100
5FF0
C280
4440
5BF0
4040
47C0
4420
43E0
ENDCHAR
STARTCHAR 5028
ENCODING 20520
SWIDTH 720 0
DWIDTH 12 0
BBX 12 12 0 -2
BITMAP
2FF0
2810
2810
4FF0
4880
CFF0
4880
4880
4FF0
5410
4410
47F0
ENDCHAR
STARTCHAR 5029
ENCODING 20521
SWIDTH 720 0
DWIDTH 12 0
BBX 12 12 0 -2
BITMAP
2100
2FE0
2100
47C0
4100
DFF0
4920
4920
4FE0
4820
4820
4860
ENDCHAR
STARTCHAR 502A
ENCODING 20522
SWIDTH 720 0
DWIDTH 12 0
BBX 12 12 0 -2
BITMAP
2200
2CE0
2820
4EE0
4820
C820
4FE0
4480
4480
4490
4490
58F0
ENDCHAR
STARTCHAR 502B
ENCODING 20523
SWIDTH 720 0
DWIDTH 12 0
BBX 12 12 0 -2
BITMAP
2100
2280
2440
5830
47C0
C000
4FE0
4AA0
4FE0
4AA0
4AA0
4860
ENDCHAR
STARTCHAR 502C
ENCODING 20524
SWIDTH 720 0
DWIDTH 12 0
BBX 12 12 0 -2
BITMAP
2100
21F0
2100
4FE0
4820
CFE0
4820
4FE0
4100
5FF0
4100
4100
ENDCHAR
STARTCHAR 502D
ENCODING 20525
SWIDTH 720 0
DWIDTH 12 0
BBX 12 12 0 -2
BITMAP
21E0
2F00
2100
4FF0
4380
C540
5930
4400
4FF0
4660
4180
4E60
ENDCHAR
STARTCHAR 5036
ENCODING 20534
SWIDTH 720 0
DWIDTH 12 0
BBX 12 12 0 -2
BITMAP
17E0
1420
27E0
2420
67E0
A420
27E0
2000
2FF0
2140
2220
2C10
ENDCHAR
STARTCHAR 5039
ENCODING 20537
SWIDTH 720 0
DWIDTH 12 0
BBX 12 12 0 -2
BITMAP
1100
1280
2440
3830
67C0
A100
2FE0
2920
2FE0
2100
2280
2C70
ENDCHAR
STARTCHAR 5043
ENCODING 20547
SWIDTH 720 0
DWIDTH 12 0
BBX 12 12 0 -2
BITMAP
2FF0
2800
2BE0
4A20
4BE0
CA20
4FF0
4920
4B20
48E0
4B10
4FF0
ENDCHAR
STARTCHAR 5047
ENCODING 20551
SWIDTH 720 0
DWIDTH 12 0
BBX 12 12 0 -2
BITMAP
2F70
2910
2910
4F10
4870
C800
4F70
4810
4850
4F20
4850
4890
ENDCHAR
STARTCHAR 5048
ENCODING 20552
SWIDTH 720 0
DWIDTH 12 0
BBX 12 12 0 -2
BITMAP
27E0
2420
27E0
4420
47E0
C200
47F0
5910
4510
46D0
4410
47B0
ENDCHAR
STARTCHAR 5049
ENCODING 20553
SWIDTH 720 0
DWIDTH 12 0
BBX 12 12 0 -2
BITMAP
1200
17E0
2220
2FF0
6080
AFE0
2FE0
2080
2FE0
2480
2FF0
2080
ENDCHAR
STARTCHAR 504F
ENCODING 20559
SWIDTH 720 0
DWIDTH 12 0
BBX 12 12 0 -2
BITMAP
2FE0
2000
2FE0
4820
4FE0
C800
4FF0
4D50
4FF0
5550
5550
4430
ENDCHAR
STARTCHAR 5050
ENCODING 20560
SWIDTH 720 0
DWIDTH 12 0
BBX 12 12 0 -2
BITMAP
2100
2FE0
2440
4280
4FF0
C800
48C0
4B20
48C0
4B10
5060
5780
ENDCHAR
STARTCHAR 5055
ENCODING 20565
SWIDTH 720 0
DWIDTH 12 0
BBX 12 12 0 -2
BITMAP
2880
2880
2FB0
48C0
4890
DF70
4000
4FE0
4820
4FE0
4820
4FE0
ENDCHAR
STARTCHAR 5056
ENCODING 20566
SWIDTH 720 0
DWIDTH 12 0
BBX 12 12 0 -2
BITMAP
2200
2FE0
2200
4280
5FF0
C300
4400
5FE0
4420
47E0
4420
47E0
ENDCHAR
STARTCHAR 505A
ENCODING 20570
SWIDTH 720 0
DWIDTH 12 0
BBX 12 12 0 -2
BITMAP
2880
2880
2880
5DF0
4920
CB20
5D40
5540
5480
5C80
5140
4230
ENDCHAR
STARTCHAR 505C
ENCODING 20572
SWIDTH 720 0
DWIDTH 12 0
BBX 12 12 0 -2
BITMAP
1080
17F0
2000
23E0
6220
A7F0
2410
2000
27F0
2080
2080
2180
ENDCHAR
STARTCHAR 5065
ENCODING 20581
SWIDTH 720 0
DWIDTH 12 0
BBX 12 12 0 -2
BITMAP
2040
21F0
2050
43F0
5C50
C5F0
4840
5DF0
4440
55F0
4840
57F0
ENDCHAR
STARTCHAR 506C
ENCODING 20588
SWIDTH 720 0
DWIDTH 12 0
BBX 12 12 0 -2
BITMAP
2400
2400
2FF0
4A90
5690
D3D0
44A0
4000
4920
5490
5410
53C0
ENDCHAR
STARTCHAR 5072
ENCODING 20594
SWIDTH 720 0
DWIDTH 12 0
BBX 12 12 0 -2
BITMAP
2FE0
2920
2920
4FE0
4920
C920
4FE0
4000
4900
54A0
5450
53D0
ENDCHAR
STARTCHAR 5074
ENCODING 20596
SWIDTH 720 0
DWIDTH 12 0
BBX 12 12 0 -2
BITMAP
2F10
2950
2950
4F50
4950
C950
4F50
4950
4950
4F10
4610
4930
ENDCHAR
STARTCHAR 5075
ENCODING 20597
SWIDTH 720 0
DWIDTH 12 0
BBX 12 12 0 -2
BITMAP
2100
21F0
2100
4FE0
4820
CFE0
4820
4FE0
4820
4FE0
4280
4C60
ENDCHAR
STARTCHAR 5076
ENCODING 20598
SWIDTH 720 0
DWIDTH 12 0
BBX 12 12 0 -2
BITMAP
27E0
2520
27E0
4520
47E0
C100
4FF0
4910
4950
4BD0
4850
4830
ENDCHAR
STARTCHAR 5078
ENCODING 20600
SWIDTH 720 0
DWIDTH 12 0
BBX 12 12 0 -2
BITMAP
2100
2280
2440
5BB0
4000
CE50
4A50
4EA0
4AA0
4EA0
4A50
5650
ENDCHAR
STARTCHAR 507D
ENCODING 20605
SWIDTH 720 0
DWIDTH 12 0
BBX 12 12 0 -2
BITMAP
2880
2480
2100
5FC0
4240
C7E0
4820
4FF0
5010
4A90
4A90
5260
ENDCHAR
STARTCHAR 5080
ENCODING 20608
SWIDTH 720 0
DWIDTH 12 0
BBX 12 12 0 -2
BITMAP
2080
2100
2FE0
4920
4FE0
C920
4FE0
4540
4540
45A0
4510
58F0
ENDCHAR
STARTCHAR 5085
ENCODING 20613
SWIDTH 720 0
DWIDTH 12 0
BBX 12 12 0 -2
BITMAP
2120
2FF0
2100
4FE0
4920
CFE0
4920
4920
4040
5FF0
4840
44C0
ENDCHAR
STARTCHAR 508D
ENCODING 20621
SWIDTH 720 0
DWIDTH 12 0
BBX 12 12 0 -2
BITMAP
2180
2FF0
2420
4240
5FF0
D210
4FE0
4200
43E0
4220
4420
58E0
ENDCHAR
STARTCHAR 5091
ENCODING 20625
SWIDTH 720 0
DWIDTH 12 0
BBX 12 12 0 -2
BITMAP
2420
2620
2BF0
4EA0
53F0
C420
5920
4100
5FE0
4380
4540
5930
ENDCHAR
STARTCHAR 5098
ENCODING 20632
SWIDTH 720 0
DWIDTH 12 0
BBX 12 12 0 -2
BITMAP
0400
0A00
3180
C460
2480
2480
5540
2480
5540
FFE0
0400
0400
ENDCHAR
STARTCHAR 5099
ENCODING 20633
SWIDTH 720 0
DWIDTH 12 0
BBX 12 12 0 -2
BITMAP
2240
2FF0
2240
5FF0
5000
D7F0
5490
57F0
5490
57F0
5490
64B0
ENDCHAR
STARTCHAR 509A
ENCODING 20634
SWIDTH 720 0
DWIDTH 12 0
BBX 12 12 0 -2
BITMAP
2480
2480
3F80
4AF0
4A90
CAA0
4B60
5540
4440
4AA0
48A0
5310
ENDCHAR
STARTCHAR 50AC
ENCODING 20652
SWIDTH 720 0
DWIDTH 12 0
BBX 12 12 0 -2
BITMAP
1080
1490
27F0
2240
6280
A7F0
2C80
27E0
2480
27E0
2480
27F0
ENDCHAR
STARTCHAR 50AD
ENCODING 20653
SWIDTH 720 0
DWIDTH 12 0
BBX 12 12 0 -2
BITMAP
2180
2FF0
2880
4BE0
48A0
CFF0
CA90
4BF0
4A90
4BF0
5290
52B0
ENDCHAR
STARTCHAR 50B2
ENCODING 20658
SWIDTH 720 0
DWIDTH 12 0
BBX 12 12 0 -2
BITMAP
2480
2480
2F80
44F0
5F90
C4A0
5F60
4840
4E40
4AA0
4AA0
5710
ENDCHAR
STARTCHAR 50B3
ENCODING 20659
SWIDTH 720 0
DWIDTH 12 0
BBX 12 12 0 -2
BITMAP
2120
2FF0
2100
4FE0
4920
CFE0
4440
4FE0
4020
5FF0
4840
44C0
ENDCHAR
STARTCHAR 50B4
ENCODING 20660
SWIDTH 720 0
DWIDTH 12 0
BBX 12 12 0 -2
BITMAP
5FF0
5000
53E0
5220
D3E0
5000
5770
5550
5550
5770
5000
5FF0
ENDCHAR
STARTCHAR 50B5
ENCODING 20661
SWIDTH 720 0
DWIDTH 12 0
BBX 12 12 0 -2
BITMAP
1080
17F0
2080
23E0
6080
AFF0
2420
27E0
2420
27E0
2240
2C30
ENDCHAR
STARTCHAR 50B7
ENCODING 20663
SWIDTH 720 0
DWIDTH 12 0
BBX 12 12 0 -2
BITMAP
17F0
1400
2BE0
2220
63E0
A220
2FF0
2400
27F0
2A90
2290
2560
ENDCHAR
STARTCHAR 50BE
ENCODING 20670
SWIDTH 720 0
DWIDTH 12 0
BBX 12 12 0 -2
BITMAP
23F0
2040
2080
51F0
5110
DDF0
5110
51F0
5110
4DF0
40A0
4310
ENDCHAR
STARTCHAR 50C2
ENCODING 20674
SWIDTH 720 0
DWIDTH 12 0
BBX 12 12 0 -2
BITMAP
2FE0
2920
3FF0
4100
4FE0
C920
4FE0
4100
5FF0
4C60
4380
5C70
ENDCHAR
STARTCHAR 50C5
ENCODING 20677
SWIDTH 720 0
DWIDTH 12 0
BBX 12 12 0 -2
BITMAP
2240
2FF0
2240
4FE0
4920
CFE0
4100
4FF0
4100
47E0
4100
4FF0
ENDCHAR
STARTCHAR 50C9
ENCODING 20681
SWIDTH 720 0
DWIDTH 12 0
BBX 12 12 0 -2
BITMAP
0400
0A00
3180
DF60
0000
7BC0
4A40
7BC0
1100
1100
2A80
C460
ENDCHAR
STARTCHAR 50CA
ENCODING 20682
SWIDTH 720 0
DWIDTH 12 0
BBX 12 12 0 -2
BITMAP
2FF0
2280
2FE0
4AA0
4FE0
C100
5FF0
47C0
5870
47C0
4410
47F0
ENDCHAR
STARTCHAR 50CD
ENCODING 20685
SWIDTH 720 0
DWIDTH 12 0
BBX 12 12 0 -2
BITMAP
2740
3C40
24F0
5F50
4450
DF50
5550
5F50
5550
5F50
4450
5FB0
ENDCHAR
STARTCHAR 50CF
ENCODING 20687
SWIDTH 720 0
DWIDTH 12 0
BBX 12 12 0 -2
BITMAP
21C0
2240
2C80
47F0
4490
C7F0
4180
4ED0
4160
4EC0
4160
4ED0
ENDCHAR
STARTCHAR 50D1
ENCODING 20689
SWIDTH 720 0
DWIDTH 12 0
BBX 12 12 0 -2
BITMAP
27C0
2100
2FF0
4280
47C0
DAB0
4380
4FF0
4810
4B90
4A90
4BB0
ENDCHAR
STARTCHAR 50D5
ENCODING 20693
SWIDTH 720 0
DWIDTH 12 0
BBX 12 12 0 -2
BITMAP
2AA0
2AA0
26C0
5FF0
4440
C280
4FE0
4100
5FF0
4280
4440
5830
ENDCHAR
STARTCHAR 50D6
ENCODING 20694
SWIDTH 720 0
DWIDTH 12 0
BBX 12 12 0 -2
BITMAP
2100
3FF0
2100
4FE0
4820
CFE0
4440
5FF0
4000
4FE0
4820
4FE0
ENDCHAR
STARTCHAR 50DA
ENCODING 20698
SWIDTH 720 0
DWIDTH 12 0
BBX 12 12 0 -2
BITMAP
2100
2FE0
2280
57D0
4C60
D7D0
4440
47C0
4100
4920
4910
5310
ENDCHAR
STARTCHAR 50DE
ENCODING 20702
SWIDTH 720 0
DWIDTH 12 0
BBX 12 12 0 -2
BITMAP
20C0
3F40
2920
5FC0
4840
CFE0
4820
4FF0
4810
4A90
4A50
5230
ENDCHAR
STARTCHAR 50E3
ENCODING 20707
SWIDTH 720 0
DWIDTH 12 0
BBX 12 12 0 -2
BITMAP
2440
3EF0
2440
5EF0
4440
CAA0
5110
4FE0
4820
4FE0
4820
4FE0
ENDCHAR
STARTCHAR 50E5
ENCODING 20709
SWIDTH 720 0
DWIDTH 12 0
BBX 12 12 0 -2
BITMAP
27C0
2100
2FE0
4440
5EF0
C440
5FF0
4000
5FF0
4280
4490
5870
ENDCHAR
STARTCHAR 50E7
ENCODING 20711
SWIDTH 720 0
DWIDTH 12 0
BBX 12 12 0 -2
BITMAP
1220
1140
27F0
2490
67F0
A490
27F0
2220
23E0
2220
2220
23E0
ENDCHAR
STARTCHAR 50ED
ENCODING 20717
SWIDTH 720 0
DWIDTH 12 0
BBX 12 12 0 -2
BITMAP
2420
3EF0
34A0
5EF0
4420
CD60
56B0
4FE0
4820
4FE0
4820
4FE0
ENDCHAR
STARTCHAR 50EE
ENCODING 20718
SWIDTH 720 0
DWIDTH 12 0
BBX 12 12 0 -2
BITMAP
2100
2FE0
2440
4280
5FF0
CFE0
4920
4FE0
4920
4FE0
4100
5FF0
ENDCHAR
STARTCHAR 50F5
ENCODING 20725
SWIDTH 720 0
DWIDTH 12 0
BBX 12 12 0 -2
BITMAP
3FF0
2FE0
2920
4FE0
4920
DFF0
4000
4FE0
4920
4FE0
4920
5FF0
ENDCHAR
STARTCHAR 50F9
ENCODING 20729
SWIDTH 720 0
DWIDTH 12 0
BBX 12 12 0 -2
BITMAP
2FF0
2280
2FF0
4A90
4FF0
CFE0
4820
4FE0
4820
4FE0
4440
5830
ENDCHAR
STARTCHAR 50FB
ENCODING 20731
SWIDTH 720 0
DWIDTH 12 0
BBX 12 12 0 -2
BITMAP
2040
2E40
2BF0
4AA0
4EA0
C9F0
4E40
5A40
4BF0
4A40
4E40
4040
ENDCHAR
STARTCHAR 5100
ENCODING 20736
SWIDTH 720 0
DWIDTH 12 0
BBX 12 12 0 -2
BITMAP
2440
3FF0
2100
4FE0
4100
DFF0
DD00
4920
5FF0
48A0
5C40
49B0
ENDCHAR
STARTCHAR 5101
ENCODING 20737
SWIDTH 720 0
DWIDTH 12 0
BBX 12 12 0 -2
BITMAP
2480
2500
2FE0
5900
4FE0
C900
4FF0
4000
4EF0
4A90
4B90
4830
ENDCHAR
STARTCHAR 5102
ENCODING 20738
SWIDTH 720 0
DWIDTH 12 0
BBX 12 12 0 -2
BITMAP
2280
2FE0
2AA0
4FE0
4AA0
DFF0
5000
5FF0
5500
5530
54C0
6E30
ENDCHAR
STARTCHAR 5104
ENCODING 20740
SWIDTH 720 0
DWIDTH 12 0
BBX 12 12 0 -2
BITMAP
2100
2FE0
2440
5FF0
4820
CFE0
4820
4FE0
4080
4A90
4A50
51D0
ENDCHAR
STARTCHAR 5109
ENCODING 20745
SWIDTH 720 0
DWIDTH 12 0
BBX 12 12 0 -2
BITMAP
2100
2280
2440
5BB0
4000
CEE0
4AA0
4EE0
4440
4660
4890
5100
ENDCHAR
STARTCHAR 5112
ENCODING 20754
SWIDTH 720 0
DWIDTH 12 0
BBX 12 12 0 -2
BITMAP
2FE0
2100
3FF0
5110
57D0
C000
4FE0
4200
4FE0
4AA0
4AA0
4AA0
ENDCHAR
STARTCHAR 5114
ENCODING 20756
SWIDTH 720 0
DWIDTH 12 0
BBX 12 12 0 -2
BITMAP
2FF0
2100
27E0
4000
5FF0
C010
4FD0
4100
5FF0
4EA0
4AA0
4E60
ENDCHAR
STARTCHAR 5115
ENCODING 20757
SWIDTH 720 0
DWIDTH 12 0
BBX 12 12 0 -2
BITMAP
2100
2FE0
2280
5DB0
5540
D540
6D30
4FE0
4820
4FE0
4820
5020
ENDCHAR
STARTCHAR 5116
ENCODING 20758
SWIDTH 720 0
DWIDTH 12 0
BBX 12 12 0 -2
BITMAP
2F40
2A40
2F70
4940
4F80
CA00
4F70
4000
4FE0
4AA0
4AA0
5FF0
ENDCHAR
STARTCHAR 5118
ENCODING 20760
SWIDTH 720 0
DWIDTH 12 0
BBX 12 12 0 -2
BITMAP
27E0
2120
2FF0
4120
47E0
C100
5FF0
4AA0
5FF0
4AA0
4AA0
5FF0
ENDCHAR
STARTCHAR 511A
ENCODING 20762
SWIDTH 720 0
DWIDTH 12 0
BBX 12 12 0 -2
BITMAP
2440
3FF0
2440
4FE0
4AA0
CFE0
4000
4FF0
4950
4740
4180
4E00
ENDCHAR
STARTCHAR 511F
ENCODING 20767
SWIDTH 720 0
DWIDTH 12 0
BBX 12 12 0 -2
BITMAP
2920
2540
3FF0
57D0
5450
CFE0
4820
4FE0
4820
4FE0
4280
4C60
ENDCHAR
STARTCHAR 5121
ENCODING 20769
SWIDTH 720 0
DWIDTH 12 0
BBX 12 12 0 -2
BITMAP
2FE0
2920
2FE0
4920
4FE0
C800
5DF0
5550
5DF0
5550
5550
5DF0
ENDCHAR
STARTCHAR 512A
ENCODING 20778
SWIDTH 720 0
DWIDTH 12 0
BBX 12 12 0 -2
BITMAP
2FE0
2440
27C0
4440
5FF0
D510
44A0
4A20
47D0
4C80
4300
5CF0
ENDCHAR
STARTCHAR 5132
ENCODING 20786
SWIDTH 720 0
DWIDTH 12 0
BBX 12 12 0 -2
BITMAP
2C40
20F0
3E40
4040
5DF0
C040
5C80
41F0
5E90
52F0
5290
5EF0
ENDCHAR
STARTCHAR 5137
ENCODING 20791
SWIDTH 720 0
DWIDTH 12 0
BBX 12 12 0 -2
BITMAP
3DF0
2000
3DF0
5510
5550
DFF0
5240
5FF0
5250
5FF0
5440
6F70
ENDCHAR
STARTCHAR 513A
ENCODING 20794
SWIDTH 720 0
DWIDTH 12 0
BBX 12 12 0 -2
BITMAP
2A90
3FA0
2AF0
5FA0
55A0
DFF0
44A0
5FA0
44F0
5FA0
4AA0
51F0
ENDCHAR
STARTCHAR 513B
ENCODING 20795
SWIDTH 720 0
DWIDTH 12 0
BBX 12 12 0 -2
BITMAP
2520
2FF0
2810
47E0
4420
CFF0
4A50
4FF0
4100
5FF0
4AA0
5290
ENDCHAR
STARTCHAR 513C
ENCODING 20796
SWIDTH 720 0
DWIDTH 12 0
BBX 12 12 0 -2
BITMAP
2EE0
2AA0
3FF0
5740
5240
DF70
5550
5750
55A0
5F20
5150
6190
ENDCHAR
STARTCHAR 513F
ENCODING 20799
SWIDTH 720 0
DWIDTH 12 0
BBX 12 12 0 -2
BITMAP
1100
1100
1100
1100
1100
1100
1100
1100
1100
2110
2110
C0F0
ENDCHAR
STARTCHAR 5140
ENCODING 20800
SWIDTH 720 0
DWIDTH 12 0
BBX 12 12 0 -2
BITMAP
0000
FFF0
1100
1100
1100
1100
1100
1100
1100
2110
2110
C0F0
ENDCHAR
STARTCHAR 5141
ENCODING 20801
SWIDTH 720 0
DWIDTH 12 0
BBX 12 12 0 -2
BITMAP
0200
0440
0840
3020
7FE0
0910
0910
0900
0900
1110
1110
60F0
ENDCHAR
STARTCHAR 5143
ENCODING 20803
SWIDTH 720 0
DWIDTH 12 0
BBX 12 12 0 -2
BITMAP
0000
7FC0
0000
0000
0000
FFE0
1100
1100
1100
1110
2110
C0F0
ENDCHAR
STARTCHAR 5144
ENCODING 20804
SWIDTH 720 0
DWIDTH 12 0
BBX 12 12 0 -2
BITMAP
3FC0
2040
2040
2040
2040
3FC0
2900
0900
0900
1110
2110
C0F0
ENDCHAR
STARTCHAR 5145
ENCODING 20805
SWIDTH 720 0
DWIDTH 12 0
BBX 12 12 0 -2
BITMAP
0400
0400
FFF0
0480
0840
7FE0
0920
0900
1100
1110
2110
C0F0
ENDCHAR
STARTCHAR 5146
ENCODING 20806
SWIDTH 720 0
DWIDTH 12 0
BBX 12 12 0 -2
BITMAP
0900
0920
4920
2940
2980
0900
3980
4960
9900
1110
2110
C0F0
ENDCHAR
STARTCHAR 5147
ENCODING 20807
SWIDTH 720 0
DWIDTH 12 0
BBX 12 12 0 -2
BITMAP
5140
4A40
4440
4A40
5140
4040
7FC0
0A00
0A00
1210
2210
C1F0
ENDCHAR
STARTCHAR 5148
ENCODING 20808
SWIDTH 720 0
DWIDTH 12 0
BBX 12 12 0 -2
BITMAP
2200
2200
3FE0
2200
4200
0200
7FF0
0900
0900
1110
2110
C0F0
ENDCHAR
STARTCHAR 5149
ENCODING 20809
SWIDTH 720 0
DWIDTH 12 0
BBX 12 12 0 -2
BITMAP
0400
4440
2440
2480
0400
FFF0
0A00
0A00
1200
1210
2210
C1F0
ENDCHAR
STARTCHAR 514B
ENCODING 20811
SWIDTH 720 0
DWIDTH 12 0
BBX 12 12 0 -2
BITMAP
0400
0400
FFE0
0400
3F80
2080
2080
3F80
0A00
0A20
1220
E1E0
ENDCHAR
STARTCHAR 514C
ENCODING 20812
SWIDTH 720 0
DWIDTH 12 0
BBX 12 12 0 -2
BITMAP
1B00
2080
C070
3FC0
2040
2040
3FC0
2900
0900
0910
1110
E0F0
ENDCHAR
STARTCHAR 514D
ENCODING 20813
SWIDTH 720 0
DWIDTH 12 0
BBX 12 12 0 -2
BITMAP
0400
0F00
3100
0200
7FC0
4440
4440
7FC0
4900
0910
1110
E0F0
ENDCHAR
STARTCHAR 514E
ENCODING 20814
SWIDTH 720 0
DWIDTH 12 0
BBX 12 12 0 -2
BITMAP
00E0
7F00
0400
7FC0
4440
4440
7FC0
4A00
0A80
1250
2210
C1F0
ENDCHAR
STARTCHAR 5150
ENCODING 20816
SWIDTH 720 0
DWIDTH 12 0
BBX 12 12 0 -2
BITMAP
47E0
4420
4420
47E0
4420
4420
47E0
0000
1200
1210
2210
C1F0
ENDCHAR
STARTCHAR 5152
ENCODING 20818
SWIDTH 720 0
DWIDTH 12 0
BBX 12 12 0 -2
BITMAP
0C00
39C0
2040
2040
3FC0
2040
2040
3FC0
0900
0910
1110
E0F0
ENDCHAR
STARTCHAR 5154
ENCODING 20820
SWIDTH 720 0
DWIDTH 12 0
BBX 12 12 0 -2
BITMAP
0400
0F80
3100
0200
7FC0
4440
4440
7FC0
1280
1250
2210
C1F0
ENDCHAR
STARTCHAR 515A
ENCODING 20826
SWIDTH 720 0
DWIDTH 12 0
BBX 12 12 0 -2
BITMAP
2440
1280
FFE0
8020
BFA0
2080
2080
3F80
0900
1100
2110
C0F0
ENDCHAR
STARTCHAR 515C
ENCODING 20828
SWIDTH 720 0
DWIDTH 12 0
BBX 12 12 0 -2
BITMAP
3400
4FE0
4920
4F20
4920
79E0
4F20
0000
0900
0910
3110
C0F0
ENDCHAR
STARTCHAR 5162
ENCODING 20834
SWIDTH 720 0
DWIDTH 12 0
BBX 12 12 0 -2
BITMAP
2080
FBE0
2080
2080
FBE0
8A20
8A20
FBE0
5140
5150
5950
9230
ENDCHAR
STARTCHAR 5165
ENCODING 20837
SWIDTH 720 0
DWIDTH 12 0
BBX 12 12 0 -2
BITMAP
0000
1E00
0200
0200
0200
0200
0500
0500
0880
1080
2040
C030
ENDCHAR
STARTCHAR 5168
ENCODING 20840
SWIDTH 720 0
DWIDTH 12 0
BBX 12 12 0 -2
BITMAP
0400
0A00
1100
2080
C060
3F80
0400
0400
3F80
0400
0400
FFE0
ENDCHAR
STARTCHAR 5169
ENCODING 20841
SWIDTH 720 0
DWIDTH 12 0
BBX 12 12 0 -2
BITMAP
FFE0
0400
FFE0
8420
B5A0
94A0
94A0
94A0
AD60
C620
8420
8460
ENDCHAR
STARTCHAR 516A
ENCODING 20842
SWIDTH 720 0
DWIDTH 12 0
BBX 12 12 0 -2
BITMAP
3C00
0A00
1100
2E80
C060
7940
4940
7A80
4A80
7940
4940
9940
ENDCHAR
STARTCHAR 516B
ENCODING 20843
SWIDTH 720 0
DWIDTH 12 0
BBX 12 12 0 -2
BITMAP
1F80
0080
0080
1080
1080
1080
2040
2040
2040
4020
4020
8010
ENDCHAR
STARTCHAR 516C
ENCODING 20844
SWIDTH 720 0
DWIDTH 12 0
BBX 12 12 0 -2
BITMAP
0A00
0A00
1100
1100
2480
C460
0400
0900
0880
1040
17C0
7C40
ENDCHAR
STARTCHAR 516D
ENCODING 20845
SWIDTH 720 0
DWIDTH 12 0
BBX 12 12 0 -2
BITMAP
0400
0400
0400
FFE0
0000
1100
1100
2080
2080
4040
8020
0000
ENDCHAR
STARTCHAR 516E
ENCODING 20846
SWIDTH 720 0
DWIDTH 12 0
BBX 12 12 0 -2
BITMAP
1700
1080
2040
4020
9FD0
0800
0800
1FC0
1040
0080
0080
0700
ENDCHAR
STARTCHAR 5171
ENCODING 20849
SWIDTH 720 0
DWIDTH 12 0
BBX 12 12 0 -2
BITMAP
1080
1080
1080
7FE0
1080
1080
1080
FFF0
0900
1080
2040
C030
ENDCHAR
STARTCHAR 5175
ENCODING 20853
SWIDTH 720 0
DWIDTH 12 0
BBX 12 12 0 -2
BITMAP
01C0
1F00
1000
1000
1FE0
1080
1080
1080
FFF0
1100
2080
C060
ENDCHAR
STARTCHAR 5176
ENCODING 20854
SWIDTH 720 0
DWIDTH 12 0
BBX 12 12 0 -2
BITMAP
1100
1100
7FC0
1100
1F00
1100
1F00
1100
FFE0
1100
2080
C060
ENDCHAR
STARTCHAR 5177
ENCODING 20855
SWIDTH 720 0
DWIDTH 12 0
BBX 12 12 0 -2
BITMAP
3FC0
2040
3FC0
2040
3FC0
2040
3FC0
0000
FFF0
0000
1980
E070
ENDCHAR
STARTCHAR 5178
ENCODING 20856
SWIDTH 720 0
DWIDTH 12 0
BBX 12 12 0 -2
BITMAP
0900
0900
7FE0
4920
4920
7FE0
4920
4920
FFF0
1080
2040
C030
ENDCHAR
STARTCHAR 517C
ENCODING 20860
SWIDTH 720 0
DWIDTH 12 0
BBX 12 12 0 -2
BITMAP
2040
1080
FFF0
0900
7FE0
0920
FFF0
0920
7FE0
1980
2940
C930
ENDCHAR
STARTCHAR 5180
ENCODING 20864
SWIDTH 720 0
DWIDTH 12 0
BBX 12 12 0 -2
BITMAP
1260
F380
1220
FFE0
2480
3F80
2480
7FC0
1100
FFF0
1100
E0E0
ENDCHAR
STARTCHAR 5182
ENCODING 20866
SWIDTH 720 0
DWIDTH 12 0
BBX 12 12 0 -2
BITMAP
FFE0
8020
8020
8020
8020
8020
8020
8020
8020
8020
8020
80E0
ENDCHAR
STARTCHAR 5185
ENCODING 20869
SWIDTH 720 0
DWIDTH 12 0
BBX 12 12 0 -2
BITMAP
0200
0200
7FF0
4210
4210
4510
4890
7050
4010
4010
4010
4070
ENDCHAR
STARTCHAR 5186
ENCODING 20870
SWIDTH 720 0
DWIDTH 12 0
BBX 12 12 0 -2
BITMAP
FFE0
8420
8420
8420
8420
FFE0
8020
8020
8020
8020
8020
80E0
ENDCHAR
STARTCHAR 5189
ENCODING 20873
SWIDTH 720 0
DWIDTH 12 0
BBX 12 12 0 -2
BITMAP
0400
0400
7FC0
4440
4440
7FC0
4440
4440
FFE0
4040
4040
41C0
ENDCHAR
STARTCHAR 518A
ENCODING 20874
SWIDTH 720 0
DWIDTH 12 0
BBX 12 12 0 -2
BITMAP
7FE0
4920
4920
4920
4920
FFF0
4920
4920
4920
4920
4920
4060
ENDCHAR
STARTCHAR 518C
ENCODING 20876
SWIDTH 720 0
DWIDTH 12 0
BBX 12 12 0 -2
BITMAP
79E0
4920
4920
4920
4920
FFF0
4920
4920
4920
4920
4920
9A60
ENDCHAR
STARTCHAR 518D
ENCODING 20877
SWIDTH 720 0
DWIDTH 12 0
BBX 12 12 0 -2
BITMAP
FFE0
0400
7FC0
4440
4440
7FC0
4440
4440
FFF0
4040
4040
41C0
ENDCHAR
STARTCHAR 518F
ENCODING 20879
SWIDTH 720 0
DWIDTH 12 0
BBX 12 12 0 -2
BITMAP
FFF0
8910
8910
9110
E0F0
8010
9F90
9090
9090
9F90
8010
8070
ENDCHAR
STARTCHAR 5190
ENCODING 20880
SWIDTH 720 0
DWIDTH 12 0
BBX 12 12 0 -2
BITMAP
7FE0
4020
5FA0
4020
5FA0
2040
3FC0
2040
3FC0
2040
2040
21C0
ENDCHAR
STARTCHAR 5191
ENCODING 20881
SWIDTH 720 0
DWIDTH 12 0
BBX 12 12 0 -2
BITMAP
0400
7FC0
4440
7FC0
4440
7FC0
2080
3F80
2080
3F80
2080
2180
ENDCHAR
STARTCHAR 5192
ENCODING 20882
SWIDTH 720 0
DWIDTH 12 0
BBX 12 12 0 -2
BITMAP
7FE0
4020
7FE0
4020
4020
7FE0
2040
3FC0
2040
3FC0
2040
3FC0
ENDCHAR
STARTCHAR 5193
ENCODING 20883
SWIDTH 720 0
DWIDTH 12 0
BBX 12 12 0 -2
BITMAP
1100
FFE0
1100
7FC0
1100
FFE0
4440
7FC0
4440
FFE0
4040
41C0
ENDCHAR
STARTCHAR 5195
ENCODING 20885
SWIDTH 720 0
DWIDTH 12 0
BBX 12 12 0 -2
BITMAP
7FE0
4020
5FA0
4020
5FA0
1100
7FC0
4440
7FC0
5150
1110
E0F0
ENDCHAR
STARTCHAR 5196
ENCODING 20886
SWIDTH 720 0
DWIDTH 12 0
BBX 12 12 0 -2
BITMAP
0000
0000
0000
0000
0000
FFE0
8020
8020
0000
0000
0000
0000
ENDCHAR
STARTCHAR 5197
ENCODING 20887
SWIDTH 720 0
DWIDTH 12 0
BBX 12 12 0 -2
BITMAP
0000
FFE0
8020
8020
1F00
1100
1100
1100
1100
1110
2110
C0F0
ENDCHAR
STARTCHAR 5199
ENCODING 20889
SWIDTH 720 0
DWIDTH 12 0
BBX 12 12 0 -2
BITMAP
FFE0
9020
9020
1F80
1000
2000
3F80
0080
FFF0
0080
0080
0700
ENDCHAR
STARTCHAR 51A0
ENCODING 20896
SWIDTH 720 0
DWIDTH 12 0
BBX 12 12 0 -2
BITMAP
FFF0
8010
8050
7C40
03E0
FC40
2940
2940
2840
49D0
4810
87F0
ENDCHAR
STARTCHAR 51A2
ENCODING 20898
SWIDTH 720 0
DWIDTH 12 0
BBX 12 12 0 -2
BITMAP
FFF0
8010
BFD0
0800
3E20
D140
1F80
7980
0F40
F930
0200
0C00
ENDCHAR
STARTCHAR 51A4
ENCODING 20900
SWIDTH 720 0
DWIDTH 12 0
BBX 12 12 0 -2
BITMAP
FFF0
8010
8F10
3100
0200
7FC0
4440
4440
7FC0
0910
1110
E0F0
ENDCHAR
STARTCHAR 51A5
ENCODING 20901
SWIDTH 720 0
DWIDTH 12 0
BBX 12 12 0 -2
BITMAP
FFE0
8020
BFA0
2080
3F80
2080
3F80
0400
FFF0
0000
3180
C060
ENDCHAR
STARTCHAR 51A6
ENCODING 20902
SWIDTH 720 0
DWIDTH 12 0
BBX 12 12 0 -2
BITMAP
FFF0
8010
8090
78E0
0080
FBE0
5220
5140
51C0
5630
9010
8FF0
ENDCHAR
STARTCHAR 51A8
ENCODING 20904
SWIDTH 720 0
DWIDTH 12 0
BBX 12 12 0 -2
BITMAP
FFE0
8020
BFA0
0000
3F80
2080
3F80
7FC0
4440
7FC0
4440
7FC0
ENDCHAR
STARTCHAR 51A9
ENCODING 20905
SWIDTH 720 0
DWIDTH 12 0
BBX 12 12 0 -2
BITMAP
FFF0
8410
B9D0
2040
3DC0
2040
3FC0
1000
3FE0
C020
1520
2560
ENDCHAR
STARTCHAR 51AA
ENCODING 20906
SWIDTH 720 0
DWIDTH 12 0
BBX 12 12 0 -2
BITMAP
FFF0
8010
0900
FFF0
2040
3FC0
2040
FFF0
2440
DFB0
1480
1580
ENDCHAR
STARTCHAR 51AB
ENCODING 20907
SWIDTH 720 0
DWIDTH 12 0
BBX 12 12 0 -2
BITMAP
0800
0400
0400
0000
0100
0200
0400
0400
1800
0800
0800
0000
ENDCHAR
STARTCHAR 51AC
ENCODING 20908
SWIDTH 720 0
DWIDTH 12 0
BBX 12 12 0 -2
BITMAP
0800
0FC0
1080
3100
CA00
0600
0900
34C0
C330
0800
0600
0180
ENDCHAR
STARTCHAR 51B0
ENCODING 20912
SWIDTH 720 0
DWIDTH 12 0
BBX 12 12 0 -2
BITMAP
0100
8100
4100
4110
1D20
05C0
0580
4940
4920
9110
8100
8300
ENDCHAR
STARTCHAR 51B1
ENCODING 20913
SWIDTH 720 0
DWIDTH 12 0
BBX 12 12 0 -2
BITMAP
0000
9FE0
4400
4400
07C0
0440
0840
4880
4F80
8880
8080
9FF0
ENDCHAR
STARTCHAR 51B2
ENCODING 20914
SWIDTH 720 0
DWIDTH 12 0
BBX 12 12 0 -2
BITMAP
0100
8100
4100
4FF0
0910
0910
0910
4FF0
4900
8100
8100
8100
ENDCHAR
STARTCHAR 51B3
ENCODING 20915
SWIDTH 720 0
DWIDTH 12 0
BBX 12 12 0 -2
BITMAP
0100
8100
4FE0
4120
0120
0120
1FF0
4100
4100
8280
8440
9830
ENDCHAR
STARTCHAR 51B4
ENCODING 20916
SWIDTH 720 0
DWIDTH 12 0
BBX 12 12 0 -2
BITMAP
0FF0
8240
4240
4240
0240
0FF0
0140
2140
2240
4240
4440
98C0
ENDCHAR
STARTCHAR 51B5
ENCODING 20917
SWIDTH 720 0
DWIDTH 12 0
BBX 12 12 0 -2
BITMAP
0FE0
8820
4820
4820
0820
0FE0
0280
4280
4280
8490
8490
9870
ENDCHAR
STARTCHAR 51B6
ENCODING 20918
SWIDTH 720 0
DWIDTH 12 0
BBX 12 12 0 -2
BITMAP
0100
8100
6200
0220
0420
0FF0
0010
2000
27E0
4420
4420
87E0
ENDCHAR
STARTCHAR 51B7
ENCODING 20919
SWIDTH 720 0
DWIDTH 12 0
BBX 12 12 0 -2
BITMAP
0100
8280
4440
5830
07C0
0000
0FE0
4220
4220
4220
8260
8200
ENDCHAR
STARTCHAR 51BD
ENCODING 20925
SWIDTH 720 0
DWIDTH 12 0
BBX 12 12 0 -2
BITMAP
0010
8F50
4450
4450
0F50
0950
0950
5750
4250
8210
8410
8870
ENDCHAR
STARTCHAR 51C4
ENCODING 20932
SWIDTH 720 0
DWIDTH 12 0
BBX 12 12 0 -2
BITMAP
0100
8FF0
4100
47E0
0120
0FF0
0120
2FF0
2420
42C0
4380
8C70
ENDCHAR
STARTCHAR 51C5
ENCODING 20933
SWIDTH 720 0
DWIDTH 12 0
BBX 12 12 0 -2
BITMAP
1FF0
9110
5110
57F0
1110
1110
17D0
5450
5450
97D0
9010
9FF0
ENDCHAR
STARTCHAR 51C6
ENCODING 20934
SWIDTH 720 0
DWIDTH 12 0
BBX 12 12 0 -2
BITMAP
0440
8480
4FF0
0880
1880
2FE0
0880
0880
4FE0
4880
8880
8FF0
ENDCHAR
STARTCHAR 51C9
ENCODING 20937
SWIDTH 720 0
DWIDTH 12 0
BBX 12 12 0 -2
BITMAP
0100
8100
5FF0
4000
0FE0
0820
0820
4FE0
4100
8940
8920
9320
ENDCHAR
STARTCHAR 51CB
ENCODING 20939
SWIDTH 720 0
DWIDTH 12 0
BBX 12 12 0 -2
BITMAP
0FE0
C920
2920
0BA0
0920
2FE0
2820
4BA0
4AA0
8AA0
13A0
2060
ENDCHAR
STARTCHAR 51CC
ENCODING 20940
SWIDTH 720 0
DWIDTH 12 0
BBX 12 12 0 -2
BITMAP
0100
8FE0
4100
5FF0
0480
0870
1400
47C0
5C40
4380
86C0
9830
ENDCHAR
STARTCHAR 51CD
ENCODING 20941
SWIDTH 720 0
DWIDTH 12 0
BBX 12 12 0 -2
BITMAP
0100
9FF0
4100
4FE0
0920
0FE0
0920
2FE0
2100
4380
4540
9930
ENDCHAR
STARTCHAR 51D6
ENCODING 20950
SWIDTH 720 0
DWIDTH 12 0
BBX 12 12 0 -2
BITMAP
0480
8500
4FE0
1900
0FC0
4900
8FE0
0400
0400
FFE0
0400
0400
ENDCHAR
STARTCHAR 51DB
ENCODING 20955
SWIDTH 720 0
DWIDTH 12 0
BBX 12 12 0 -2
BITMAP
0100
9FF0
4BA0
4AA0
0AA0
0BA0
0FE0
2000
3FF0
4920
4910
9310
ENDCHAR
STARTCHAR 51DC
ENCODING 20956
SWIDTH 720 0
DWIDTH 12 0
BBX 12 12 0 -2
BITMAP
0100
9FF0
4820
4BA0
0AA0
0FE0
0000
27C0
2100
5FF0
4540
9930
ENDCHAR
STARTCHAR 51DD
ENCODING 20957
SWIDTH 720 0
DWIDTH 12 0
BBX 12 12 0 -2
BITMAP
11F0
9E10
50A0
4E40
01F0
0850
0E40
5470
4540
5F40
8BC0
1130
ENDCHAR
STARTCHAR 51E0
ENCODING 20960
SWIDTH 720 0
DWIDTH 12 0
BBX 12 12 0 -2
BITMAP
1F80
1080
1080
1080
1080
1080
1080
1080
1080
2090
2090
C070
ENDCHAR
STARTCHAR 51E1
ENCODING 20961
SWIDTH 720 0
DWIDTH 12 0
BBX 12 12 0 -2
BITMAP
0000
1F80
1080
1080
1080
1480
1280
1280
1080
2090
2090
C070
ENDCHAR
STARTCHAR 51E6
ENCODING 20966
SWIDTH 720 0
DWIDTH 12 0
BBX 12 12 0 -2
BITMAP
03C0
4240
7A40
4A40
4A40
4A40
AA50
1450
1430
2800
4600
81F0
ENDCHAR
STARTCHAR 51E7
ENCODING 20967
SWIDTH 720 0
DWIDTH 12 0
BBX 12 12 0 -2
BITMAP
7FC0
4440
4440
4440
5F40
5540
5540
5540
5540
5750
4430
8410
ENDCHAR
STARTCHAR 51E9
ENCODING 20969
SWIDTH 720 0
DWIDTH 12 0
BBX 12 12 0 -2
BITMAP
7FC0
4040
4440
4440
5F40
4440
4E40
4E40
5540
6450
8430
8430
ENDCHAR
STARTCHAR 51EA
ENCODING 20970
SWIDTH 720 0
DWIDTH 12 0
BBX 12 12 0 -2
BITMAP
7FC0
4040
4240
4240
4A40
4BC0
4A40
4A40
4A50
5FB0
4030
8010
ENDCHAR
STARTCHAR 51ED
ENCODING 20973
SWIDTH 720 0
DWIDTH 12 0
BBX 12 12 0 -2
BITMAP
2000
2FE0
4100
DFF0
4100
4FE0
0000
1F80
1080
1090
2090
C070
ENDCHAR
STARTCHAR 51F0
ENCODING 20976
SWIDTH 720 0
DWIDTH 12 0
BBX 12 12 0 -2
BITMAP
7FC0
4440
4840
5F40
5140
5F40
5140
5F40
4450
5F50
8430
BFB0
ENDCHAR
STARTCHAR 51F1
ENCODING 20977
SWIDTH 720 0
DWIDTH 12 0
BBX 12 12 0 -2
BITMAP
55E0
5520
7D20
0120
FD20
0120
7D20
4520
7D20
2920
3D20
E230
ENDCHAR
STARTCHAR 51F5
ENCODING 20981
SWIDTH 720 0
DWIDTH 12 0
BBX 12 12 0 -2
BITMAP
8010
8010
8010
8010
8010
8010
8010
8010
8010
8010
FFF0
8000
ENDCHAR
STARTCHAR 51F6
ENCODING 20982
SWIDTH 720 0
DWIDTH 12 0
BBX 12 12 0 -2
BITMAP
0080
8090
B090
8910
8510
8210
8510
8890
B090
8010
FFF0
8000
ENDCHAR
STARTCHAR 51F8
ENCODING 20984
SWIDTH 720 0
DWIDTH 12 0
BBX 12 12 0 -2
BITMAP
1F00
1100
1100
1100
1100
F1E0
8020
8020
8020
8020
FFE0
8000
ENDCHAR
STARTCHAR 51F9
ENCODING 20985
SWIDTH 720 0
DWIDTH 12 0
BBX 12 12 0 -2
BITMAP
0000
F9F0
8910
8910
8910
8910
8F10
8010
8010
8010
FFF0
8010
ENDCHAR
STARTCHAR 51FA
ENCODING 20986
SWIDTH 720 0
DWIDTH 12 0
BBX 12 12 0 -2
BITMAP
0400
4440
4440
4440
7FC0
4400
0400
8420
8420
8420
FFE0
8000
ENDCHAR
STARTCHAR 51FD
ENCODING 20989
SWIDTH 720 0
DWIDTH 12 0
BBX 12 12 0 -2
BITMAP
0000
FFE0
0400
8420
8E60
E2A0
9F20
92A0
E260
8C20
8020
FFE0
ENDCHAR
STARTCHAR 51FE
ENCODING 20990
SWIDTH 720 0
DWIDTH 12 0
BBX 12 12 0 -2
BITMAP
1F80
0080
0100
8610
8410
BFD0
AD50
AC90
BD50
8630
8410
FFF0
ENDCHAR
STARTCHAR 5200
ENCODING 20992
SWIDTH 720 0
DWIDTH 12 0
BBX 12 12 0 -2
BITMAP
0000
7FF0
0410
0410
0410
0410
0410
0810
0810
1010
1010
6060
ENDCHAR
STARTCHAR 5203
ENCODING 20995
SWIDTH 720 0
DWIDTH 12 0
BBX 12 12 0 -2
BITMAP
0000
FFF0
0410
0410
0410
3410
0C10
0610
0910
0810
1010
60E0
ENDCHAR
STARTCHAR 5204
ENCODING 20996
SWIDTH 720 0
DWIDTH 12 0
BBX 12 12 0 -2
BITMAP
0000
7FE0
0420
0420
2420
2420
1420
0820
0E40
11F0
2040
C1C0
ENDCHAR
STARTCHAR 5206
ENCODING 20998
SWIDTH 720 0
DWIDTH 12 0
BBX 12 12 0 -2
BITMAP
0900
0900
1080
1080
2040
DFB0
0880
0880
0880
1080
1080
6380
ENDCHAR
STARTCHAR 5207
ENCODING 20999
SWIDTH 720 0
DWIDTH 12 0
BBX 12 12 0 -2
BITMAP
2000
27F0
2110
2110
3D10
E110
2110
2110
2510
1910
0220
0CE0
ENDCHAR
STARTCHAR 5208
ENCODING 21000
SWIDTH 720 0
DWIDTH 12 0
BBX 12 12 0 -2
BITMAP
0020
0420
0520
0520
C920
2920
1120
1920
2520
2420
4020
80E0
ENDCHAR
STARTCHAR 520A
ENCODING 21002
SWIDTH 720 0
DWIDTH 12 0
BBX 12 12 0 -2
BITMAP
7C20
1120
1120
1120
1120
FD20
1120
1120
1120
1020
1020
10E0
ENDCHAR
STARTCHAR 520B
ENCODING 21003
SWIDTH 720 0
DWIDTH 12 0
BBX 12 12 0 -2
BITMAP
1C20
F120
1120
1120
1120
FF20
1120
1120
1120
1020
2020
C0E0
ENDCHAR
STARTCHAR 520E
ENCODING 21006
SWIDTH 720 0
DWIDTH 12 0
BBX 12 12 0 -2
BITMAP
2010
2050
7F50
5550
9550
2550
2950
4950
9150
2110
4210
0E70
ENDCHAR
STARTCHAR 5211
ENCODING 21009
SWIDTH 720 0
DWIDTH 12 0
BBX 12 12 0 -2
BITMAP
0010
FC90
4890
4890
4890
FE90
4890
4890
4890
4810
4810
8870
ENDCHAR
STARTCHAR 5214
ENCODING 21012
SWIDTH 720 0
DWIDTH 12 0
BBX 12 12 0 -2
BITMAP
2010
2090
7C90
2490
2490
2490
FE90
2090
3090
2810
4810
8070
ENDCHAR
STARTCHAR 5217
ENCODING 21015
SWIDTH 720 0
DWIDTH 12 0
BBX 12 12 0 -2
BITMAP
0020
FD20
2120
2120
3D20
4520
6520
9920
0920
1020
2020
C0E0
ENDCHAR
STARTCHAR 521D
ENCODING 21021
SWIDTH 720 0
DWIDTH 12 0
BBX 12 12 0 -2
BITMAP
2000
27F0
F910
1110
2110
2910
7110
A910
2110
2210
2210
2460
ENDCHAR
STARTCHAR 5224
ENCODING 21028
SWIDTH 720 0
DWIDTH 12 0
BBX 12 12 0 -2
BITMAP
9210
5290
5490
1090
7C90
1090
1090
FE90
1090
1010
1010
1070
ENDCHAR
STARTCHAR 5225
ENCODING 21029
SWIDTH 720 0
DWIDTH 12 0
BBX 12 12 0 -2
BITMAP
7C10
4490
4490
4490
7C90
2090
2090
3C90
2490
4410
4410
8C30
ENDCHAR
STARTCHAR 5227
ENCODING 21031
SWIDTH 720 0
DWIDTH 12 0
BBX 12 12 0 -2
BITMAP
2000
23F0
F890
2090
2090
FC90
2090
2090
4890
4910
F920
0A60
ENDCHAR
STARTCHAR 5229
ENCODING 21033
SWIDTH 720 0
DWIDTH 12 0
BBX 12 12 0 -2
BITMAP
1820
7120
1120
1120
FD20
1120
3120
3920
5520
5020
9020
10E0
ENDCHAR
STARTCHAR 522A
ENCODING 21034
SWIDTH 720 0
DWIDTH 12 0
BBX 12 12 0 -2
BITMAP
7F10
5550
5550
5550
5550
FFD0
5550
5550
5550
5510
5510
4330
ENDCHAR
STARTCHAR 522E
ENCODING 21038
SWIDTH 720 0
DWIDTH 12 0
BBX 12 12 0 -2
BITMAP
0610
F890
1090
1090
FE90
1090
1090
7C90
4490
4410
4410
7C70
ENDCHAR
STARTCHAR 5230
ENCODING 21040
SWIDTH 720 0
DWIDTH 12 0
BBX 12 12 0 -2
BITMAP
FE10
2090
2490
4490
FE90
1290
1090
7C90
1090
1010
1E10
E030
ENDCHAR
STARTCHAR 5233
ENCODING 21043
SWIDTH 720 0
DWIDTH 12 0
BBX 12 12 0 -2
BITMAP
1010
7E90
2890
4490
BA90
0090
3E90
1090
3C90
4410
0410
1870
ENDCHAR
STARTCHAR 5236
ENCODING 21046
SWIDTH 720 0
DWIDTH 12 0
BBX 12 12 0 -2
BITMAP
5010
5090
7C90
9090
7C90
1090
7C90
5490
5490
5410
5C10
1070
ENDCHAR
STARTCHAR 5237
ENCODING 21047
SWIDTH 720 0
DWIDTH 12 0
BBX 12 12 0 -2
BITMAP
7E10
4290
4290
7E90
4890
4890
7E90
6A90
6A90
AA10
2E10
0870
ENDCHAR
STARTCHAR 5238
ENCODING 21048
SWIDTH 720 0
DWIDTH 12 0
BBX 12 12 0 -2
BITMAP
2480
2480
1500
7FC0
0A00
FFE0
1100
2080
DF60
0900
0900
3300
ENDCHAR
STARTCHAR 5239
ENCODING 21049
SWIDTH 720 0
DWIDTH 12 0
BBX 12 12 0 -2
BITMAP
0410
6890
1090
2890
C490
1090
FE90
1090
3890
5410
9210
1070
ENDCHAR
STARTCHAR 523A
ENCODING 21050
SWIDTH 720 0
DWIDTH 12 0
BBX 12 12 0 -2
BITMAP
1010
FC10
1090
7C90
5490
5490
5490
5490
1090
3810
5410
9030
ENDCHAR
STARTCHAR 523B
ENCODING 21051
SWIDTH 720 0
DWIDTH 12 0
BBX 12 12 0 -2
BITMAP
1010
1010
FE90
1090
2090
6890
1490
2490
C810
1010
2810
C670
ENDCHAR
STARTCHAR 5243
ENCODING 21059
SWIDTH 720 0
DWIDTH 12 0
BBX 12 12 0 -2
BITMAP
4410
2890
7E90
1290
7E90
9090
FE90
1290
3290
5610
9010
1070
ENDCHAR
STARTCHAR 5244
ENCODING 21060
SWIDTH 720 0
DWIDTH 12 0
BBX 12 12 0 -2
BITMAP
0010
FE90
5490
5490
A890
5490
5490
0090
FE90
1010
1E10
F070
ENDCHAR
STARTCHAR 5247
ENCODING 21063
SWIDTH 720 0
DWIDTH 12 0
BBX 12 12 0 -2
BITMAP
7C10
4490
4490
7C90
4490
4490
7C90
4490
4490
7C10
2810
C670
ENDCHAR
STARTCHAR 524A
ENCODING 21066
SWIDTH 720 0
DWIDTH 12 0
BBX 12 12 0 -2
BITMAP
A820
A920
7120
2120
F920
8920
F920
8920
F920
8820
8820
98E0
ENDCHAR
STARTCHAR 524B
ENCODING 21067
SWIDTH 720 0
DWIDTH 12 0
BBX 12 12 0 -2
BITMAP
1020
FD20
1120
7D20
4520
4520
7D20
2920
2820
4860
4810
87F0
ENDCHAR
STARTCHAR 524C
ENCODING 21068
SWIDTH 720 0
DWIDTH 12 0
BBX 12 12 0 -2
BITMAP
1010
1090
FE90
1090
FE90
9290
9290
FE90
3890
3410
5210
9070
ENDCHAR
STARTCHAR 524D
ENCODING 21069
SWIDTH 720 0
DWIDTH 12 0
BBX 12 12 0 -2
BITMAP
2080
1100
FFF0
0000
7820
4920
7920
4920
7920
4920
4820
98E0
ENDCHAR
STARTCHAR 524F
ENCODING 21071
SWIDTH 720 0
DWIDTH 12 0
BBX 12 12 0 -2
BITMAP
8820
4BF0
50A0
FCA0
52A0
52A0
FDA0
50A0
5160
5230
9240
94C0
ENDCHAR
STARTCHAR 5254
ENCODING 21076
SWIDTH 720 0
DWIDTH 12 0
BBX 12 12 0 -2
BITMAP
7C10
4490
7C90
4490
7C90
2090
7E90
AA90
2A90
4A10
9210
2C70
ENDCHAR
STARTCHAR 5256
ENCODING 21078
SWIDTH 720 0
DWIDTH 12 0
BBX 12 12 0 -2
BITMAP
1010
1090
FE90
4490
2890
FE90
0090
0090
7C90
4410
4410
7C70
ENDCHAR
STARTCHAR 525B
ENCODING 21083
SWIDTH 720 0
DWIDTH 12 0
BBX 12 12 0 -2
BITMAP
FE10
8290
C690
AA90
FE90
9290
9290
D690
D690
FE10
8210
8670
ENDCHAR
STARTCHAR 525E
ENCODING 21086
SWIDTH 720 0
DWIDTH 12 0
BBX 12 12 0 -2
BITMAP
1010
FE90
2890
C690
0090
FF90
0290
7A90
4A90
7A10
4210
0E70
ENDCHAR
STARTCHAR 5263
ENCODING 21091
SWIDTH 720 0
DWIDTH 12 0
BBX 12 12 0 -2
BITMAP
1010
2890
4490
8290
7C90
1090
7C90
5490
7C90
1010
2810
C430
ENDCHAR
STARTCHAR 5264
ENCODING 21092
SWIDTH 720 0
DWIDTH 12 0
BBX 12 12 0 -2
BITMAP
1010
FE90
4490
3890
2890
C690
7C90
4490
7C90
4410
4410
8C70
ENDCHAR
STARTCHAR 5265
ENCODING 21093
SWIDTH 720 0
DWIDTH 12 0
BBX 12 12 0 -2
BITMAP
7C10
0490
7890
0890
FE90
1090
9290
5490
3890
5810
9610
3070
ENDCHAR
STARTCHAR 5269
ENCODING 21097
SWIDTH 720 0
DWIDTH 12 0
BBX 12 12 0 -2
BITMAP
1C10
7090
1090
FE90
5490
D690
5490
D690
1090
3810
5410
9070
ENDCHAR
STARTCHAR 526A
ENCODING 21098
SWIDTH 720 0
DWIDTH 12 0
BBX 12 12 0 -2
BITMAP
2040
1080
FFF0
4520
7D20
4520
7D20
4460
FFE0
0420
1820
E0C0
ENDCHAR
STARTCHAR 526F
ENCODING 21103
SWIDTH 720 0
DWIDTH 12 0
BBX 12 12 0 -2
BITMAP
FC10
0090
7C90
4490
7C90
0090
FC90
9490
FC90
9410
9410
FC70
ENDCHAR
STARTCHAR 5270
ENCODING 21104
SWIDTH 720 0
DWIDTH 12 0
BBX 12 12 0 -2
BITMAP
0C10
7810
1090
FE90
5490
FE90
5490
FE90
1090
3810
5410
9230
ENDCHAR
STARTCHAR 5271
ENCODING 21105
SWIDTH 720 0
DWIDTH 12 0
BBX 12 12 0 -2
BITMAP
27F0
5090
8890
7290
2290
FB90
AC90
F8D0
20B0
3110
4910
8A70
ENDCHAR
STARTCHAR 5272
ENCODING 21106
SWIDTH 720 0
DWIDTH 12 0
BBX 12 12 0 -2
BITMAP
1010
FE90
9290
7C90
1090
7C90
1090
FE90
0090
7C10
4410
7C70
ENDCHAR
STARTCHAR 5273
ENCODING 21107
SWIDTH 720 0
DWIDTH 12 0
BBX 12 12 0 -2
BITMAP
4410
FE90
4490
1090
2890
C690
3890
0090
7C90
4410
4410
7C70
ENDCHAR
STARTCHAR 5274
ENCODING 21108
SWIDTH 720 0
DWIDTH 12 0
BBX 12 12 0 -2
BITMAP
1010
9490
FC90
0090
FC90
0090
7C90
4490
7C90
4410
2810
FC70
ENDCHAR
STARTCHAR 5275
ENCODING 21109
SWIDTH 720 0
DWIDTH 12 0
BBX 12 12 0 -2
BITMAP
1010
2810
C690
7C90
4490
7C90
4490
7C90
4090
BC10
A410
3C70
ENDCHAR
STARTCHAR 527D
ENCODING 21117
SWIDTH 720 0
DWIDTH 12 0
BBX 12 12 0 -2
BITMAP
FF10
2890
FE90
AA90
FE90
0090
7E90
0090
FE90
5410
9210
B270
ENDCHAR
STARTCHAR 527F
ENCODING 21119
SWIDTH 720 0
DWIDTH 12 0
BBX 12 12 0 -2
BITMAP
5410
A890
A890
5490
FE90
9290
FE90
9290
FE90
3810
5410
9270
ENDCHAR
STARTCHAR 5283
ENCODING 21123
SWIDTH 720 0
DWIDTH 12 0
BBX 12 12 0 -2
BITMAP
1020
7CA0
14A0
FEA0
14A0
FEA0
54A0
7CA0
54A0
7C20
0020
FE60
ENDCHAR
STARTCHAR 5287
ENCODING 21127
SWIDTH 720 0
DWIDTH 12 0
BBX 12 12 0 -2
BITMAP
2010
3C90
2090
7E90
5090
5E90
4090
7E90
5010
6A10
9C10
2A30
ENDCHAR
STARTCHAR 5288
ENCODING 21128
SWIDTH 720 0
DWIDTH 12 0
BBX 12 12 0 -2
BITMAP
7880
4FF0
7A20
4140
7BF0
C880
7BE0
0880
FFE0
0820
1020
E1C0
ENDCHAR
STARTCHAR 5289
ENCODING 21129
SWIDTH 720 0
DWIDTH 12 0
BBX 12 12 0 -2
BITMAP
6E10
8A90
AA90
F690
1090
2890
7890
9490
FC90
9010
5410
FC70
ENDCHAR
STARTCHAR 528D
ENCODING 21133
SWIDTH 720 0
DWIDTH 12 0
BBX 12 12 0 -2
BITMAP
1010
2890
4490
BA90
0090
EE90
AA90
EE90
4490
4410
AA10
9270
ENDCHAR
STARTCHAR 5291
ENCODING 21137
SWIDTH 720 0
DWIDTH 12 0
BBX 12 12 0 -2
BITMAP
1010
FE10
2850
F750
5450
B750
4550
7C50
4450
7C10
4410
8430
ENDCHAR
STARTCHAR 5292
ENCODING 21138
SWIDTH 720 0
DWIDTH 12 0
BBX 12 12 0 -2
BITMAP
11F0
2850
C650
3850
0050
EE50
AAD0
EED0
4550
4450
AA50
92B0
ENDCHAR
STARTCHAR 5294
ENCODING 21140
SWIDTH 720 0
DWIDTH 12 0
BBX 12 12 0 -2
BITMAP
11F0
2890
C690
3890
0190
EE90
AAF0
EE90
4490
4490
AA90
9370
ENDCHAR
STARTCHAR 529B
ENCODING 21147
SWIDTH 720 0
DWIDTH 12 0
BBX 12 12 0 -2
BITMAP
0400
0400
0400
7FE0
0420
0420
0420
0420
0820
0820
1040
61C0
ENDCHAR
STARTCHAR 529F
ENCODING 21151
SWIDTH 720 0
DWIDTH 12 0
BBX 12 12 0 -2
BITMAP
0100
0100
F100
2FF0
2110
2110
2110
2110
3110
E210
0210
0460
ENDCHAR
STARTCHAR 52A0
ENCODING 21152
SWIDTH 720 0
DWIDTH 12 0
BBX 12 12 0 -2
BITMAP
2000
2000
FDF0
2510
2510
2510
2510
2510
2510
4510
45F0
9D00
ENDCHAR
STARTCHAR 52A3
ENCODING 21155
SWIDTH 720 0
DWIDTH 12 0
BBX 12 12 0 -2
BITMAP
0400
14C0
2420
CC90
0100
0E00
F400
0400
FFE0
0420
1820
60E0
ENDCHAR
STARTCHAR 52A9
ENCODING 21161
SWIDTH 720 0
DWIDTH 12 0
BBX 12 12 0 -2
BITMAP
0080
7880
4880
4BF0
7890
4890
4890
7890
4890
4D10
F910
0260
ENDCHAR
STARTCHAR 52AA
ENCODING 21162
SWIDTH 720 0
DWIDTH 12 0
BBX 12 12 0 -2
BITMAP
1000
FDE0
2420
4540
3880
E570
0400
FFE0
0420
0420
1840
E1C0
ENDCHAR
STARTCHAR 52AB
ENCODING 21163
SWIDTH 720 0
DWIDTH 12 0
BBX 12 12 0 -2
BITMAP
1080
1080
7C80
13F0
1090
1090
FE90
1090
2090
2510
7D10
C660
ENDCHAR
STARTCHAR 52AC
ENCODING 21164
SWIDTH 720 0
DWIDTH 12 0
BBX 12 12 0 -2
BITMAP
4080
4080
7C80
45F0
8490
7490
5490
5490
7490
0510
0510
1A60
ENDCHAR
STARTCHAR 52AD
ENCODING 21165
SWIDTH 720 0
DWIDTH 12 0
BBX 12 12 0 -2
BITMAP
F880
4880
4880
4BF0
4890
9890
0090
F890
8890
8910
F910
8260
ENDCHAR
STARTCHAR 52B1
ENCODING 21169
SWIDTH 720 0
DWIDTH 12 0
BBX 12 12 0 -2
BITMAP
7FF0
4080
7C80
51E0
50A0
5CA0
54A0
54A0
54A0
5520
9520
AAE0
ENDCHAR
STARTCHAR 52B4
ENCODING 21172
SWIDTH 720 0
DWIDTH 12 0
BBX 12 12 0 -2
BITMAP
4840
2440
2480
FFE0
8820
8820
7FC0
0840
0840
1040
1040
6180
ENDCHAR
STARTCHAR 52B5
ENCODING 21173
SWIDTH 720 0
DWIDTH 12 0
BBX 12 12 0 -2
BITMAP
2480
2480
4440
BFA0
0A00
FFE0
1100
2080
DF60
0900
1100
6300
ENDCHAR
STARTCHAR 52B9
ENCODING 21177
SWIDTH 720 0
DWIDTH 12 0
BBX 12 12 0 -2
BITMAP
1080
1080
FC80
2BF0
2890
4490
AA90
1090
1890
2510
4110
8260
ENDCHAR
STARTCHAR 52BC
ENCODING 21180
SWIDTH 720 0
DWIDTH 12 0
BBX 12 12 0 -2
BITMAP
2080
2080
F880
23F0
2090
7890
0090
0090
F890
8910
8910
FA60
ENDCHAR
STARTCHAR 52BE
ENCODING 21182
SWIDTH 720 0
DWIDTH 12 0
BBX 12 12 0 -2
BITMAP
1080
1080
FC80
23F0
4090
8890
5090
2490
4890
9110
2910
C660
ENDCHAR
STARTCHAR 52C1
ENCODING 21185
SWIDTH 720 0
DWIDTH 12 0
BBX 12 12 0 -2
BITMAP
0080
FE80
5480
55F0
A890
5490
5490
0090
FE90
1090
1E90
F130
ENDCHAR
STARTCHAR 52C3
ENCODING 21187
SWIDTH 720 0
DWIDTH 12 0
BBX 12 12 0 -2
BITMAP
2080
FC80
2080
FFF0
8490
7890
0890
1090
FC90
1110
1120
7660
ENDCHAR
STARTCHAR 52C5
ENCODING 21189
SWIDTH 720 0
DWIDTH 12 0
BBX 12 12 0 -2
BITMAP
1080
FC80
1080
7DF0
5490
5490
7C90
1090
3890
3510
5110
9230
ENDCHAR
STARTCHAR 52C7
ENCODING 21191
SWIDTH 720 0
DWIDTH 12 0
BBX 12 12 0 -2
BITMAP
7F80
1100
0E00
7FC0
4440
7FC0
4440
7FC0
0400
FFE0
1820
E0E0
ENDCHAR
STARTCHAR 52C9
ENCODING 21193
SWIDTH 720 0
DWIDTH 12 0
BBX 12 12 0 -2
BITMAP
4080
7880
4880
93F0
7C90
5490
5490
7D10
2910
2A30
4800
87F0
ENDCHAR
STARTCHAR 52CD
ENCODING 21197
SWIDTH 720 0
DWIDTH 12 0
BBX 12 12 0 -2
BITMAP
1080
1080
FC80
0080
7DF0
4490
4490
7C90
1090
5890
9510
B560
ENDCHAR
STARTCHAR 52D2
ENCODING 21202
SWIDTH 720 0
DWIDTH 12 0
BBX 12 12 0 -2
BITMAP
5080
F880
5080
73F0
2090
F890
A890
F890
2090
F910
2120
2260
ENDCHAR
STARTCHAR 52D5
ENCODING 21205
SWIDTH 720 0
DWIDTH 12 0
BBX 12 12 0 -2
BITMAP
1C80
F080
13F0
FC90
5490
7C90
5490
7C90
1090
7C90
1120
FD60
ENDCHAR
STARTCHAR 52D7
ENCODING 21207
SWIDTH 720 0
DWIDTH 12 0
BBX 12 12 0 -2
BITMAP
3FC0
2040
3FC0
2040
3FC0
7900
4FE0
7920
4920
7920
4920
FA60
ENDCHAR
STARTCHAR 52D8
ENCODING 21208
SWIDTH 720 0
DWIDTH 12 0
BBX 12 12 0 -2
BITMAP
4880
FC80
4880
7BF0
4890
7890
4890
FE90
A890
CC90
8110
FD70
ENDCHAR
STARTCHAR 52D9
ENCODING 21209
SWIDTH 720 0
DWIDTH 12 0
BBX 12 12 0 -2
BITMAP
0100
F9F0
0910
52A0
2040
F8A0
0B10
1080
33F0
5090
9090
3370
ENDCHAR
STARTCHAR 52DD
ENCODING 21213
SWIDTH 720 0
DWIDTH 12 0
BBX 12 12 0 -2
BITMAP
7490
52A0
57F0
5080
7FF0
5140
52A0
7C90
57E0
5120
5120
B660
ENDCHAR
STARTCHAR 52DE
ENCODING 21214
SWIDTH 720 0
DWIDTH 12 0
BBX 12 12 0 -2
BITMAP
AAA0
69A0
30C0
CB20
FFE0
8820
0800
7FC0
0840
0840
1040
6180
ENDCHAR
STARTCHAR 52DF
ENCODING 21215
SWIDTH 720 0
DWIDTH 12 0
BBX 12 12 0 -2
BITMAP
0900
FFF0
0900
3FC0
2040
3FC0
2440
FFF0
34C0
DFB0
0880
3380
ENDCHAR
STARTCHAR 52E0
ENCODING 21216
SWIDTH 720 0
DWIDTH 12 0
BBX 12 12 0 -2
BITMAP
EE80
6680
AA80
6680
ABF0
1090
2890
C690
1890
E510
1910
E230
ENDCHAR
STARTCHAR 52E2
ENCODING 21218
SWIDTH 720 0
DWIDTH 12 0
BBX 12 12 0 -2
BITMAP
1080
7C80
13E0
FCA0
2AA0
C530
3E90
E400
3FE0
0420
0820
30E0
ENDCHAR
STARTCHAR 52E3
ENCODING 21219
SWIDTH 720 0
DWIDTH 12 0
BBX 12 12 0 -2
BITMAP
1080
7C80
1080
7FF0
1090
FC90
4490
7C90
4490
7D10
2920
C660
ENDCHAR
STARTCHAR 52E4
ENCODING 21220
SWIDTH 720 0
DWIDTH 12 0
BBX 12 12 0 -2
BITMAP
2880
FE80
2880
7FF0
5490
7C90
1090
7C90
1090
7C90
1110
FD30
ENDCHAR
STARTCHAR 52E6
ENCODING 21222
SWIDTH 720 0
DWIDTH 12 0
BBX 12 12 0 -2
BITMAP
5480
A880
A880
55F0
FE90
9290
FE90
9290
FE90
3890
5490
9330
ENDCHAR
STARTCHAR 52E7
ENCODING 21223
SWIDTH 720 0
DWIDTH 12 0
BBX 12 12 0 -2
BITMAP
4080
7C80
4880
7FF0
9090
7E90
D090
7C90
5090
7C90
5110
7E70
ENDCHAR
STARTCHAR 52F2
ENCODING 21234
SWIDTH 720 0
DWIDTH 12 0
BBX 12 12 0 -2
BITMAP
FC80
1080
FC80
57F0
7C90
5490
7C90
1110
FD30
2A40
2920
4920
ENDCHAR
STARTCHAR 52F3
ENCODING 21235
SWIDTH 720 0
DWIDTH 12 0
BBX 12 12 0 -2
BITMAP
1C80
7080
1080
FDF0
1090
FC90
9490
FC90
1090
FE90
5490
9530
ENDCHAR
STARTCHAR 52F5
ENCODING 21237
SWIDTH 720 0
DWIDTH 12 0
BBX 12 12 0 -2
BITMAP
FF40
9440
FF40
94F0
BE50
AA50
BE50
8850
BF50
A950
BD50
A5B0
ENDCHAR
STARTCHAR 52F8
ENCODING 21240
SWIDTH 720 0
DWIDTH 12 0
BBX 12 12 0 -2
BITMAP
4880
FE80
4880
EFF0
AA90
EE90
5090
FC90
5090
7D10
5120
7E60
ENDCHAR
STARTCHAR 52F9
ENCODING 21241
SWIDTH 720 0
DWIDTH 12 0
BBX 12 12 0 -2
BITMAP
1000
1000
1FF0
2010
C010
0010
0010
0010
0010
0020
0020
00C0
ENDCHAR
STARTCHAR 52FA
ENCODING 21242
SWIDTH 720 0
DWIDTH 12 0
BBX 12 12 0 -2
BITMAP
1000
1000
3FF0
2010
4010
8410
0210
0110
0110
0010
0020
00E0
ENDCHAR
STARTCHAR 52FE
ENCODING 21246
SWIDTH 720 0
DWIDTH 12 0
BBX 12 12 0 -2
BITMAP
2000
2000
3FE0
2020
4820
8820
0A20
1120
17A0
78A0
0020
01C0
ENDCHAR
STARTCHAR 52FF
ENCODING 21247
SWIDTH 720 0
DWIDTH 12 0
BBX 12 12 0 -2
BITMAP
2000
2000
3FE0
2920
4920
8920
1120
1220
2220
C420
0840
31C0
ENDCHAR
STARTCHAR 5301
ENCODING 21249
SWIDTH 720 0
DWIDTH 12 0
BBX 12 12 0 -2
BITMAP
1000
1000
1FE0
1220
2220
D220
0C20
0620
09A0
3070
C040
03C0
ENDCHAR
STARTCHAR 5302
ENCODING 21250
SWIDTH 720 0
DWIDTH 12 0
BBX 12 12 0 -2
BITMAP
1000
1000
3FE0
2020
5020
9320
1C20
1020
1120
0F20
0020
00C0
ENDCHAR
STARTCHAR 5305
ENCODING 21253
SWIDTH 720 0
DWIDTH 12 0
BBX 12 12 0 -2
BITMAP
1000
1000
1FC0
2040
DE40
0240
0240
3E40
20C0
2020
2020
1FE0
ENDCHAR
STARTCHAR 5306
ENCODING 21254
SWIDTH 720 0
DWIDTH 12 0
BBX 12 12 0 -2
BITMAP
1000
1000
1FF0
1490
2490
C490
1E90
0990
0950
1110
6220
0C60
ENDCHAR
STARTCHAR 5308
ENCODING 21256
SWIDTH 720 0
DWIDTH 12 0
BBX 12 12 0 -2
BITMAP
1000
1000
3FF0
2010
4110
9A10
0650
2950
2150
3FD0
2020
00E0
ENDCHAR
STARTCHAR 530D
ENCODING 21261
SWIDTH 720 0
DWIDTH 12 0
BBX 12 12 0 -2
BITMAP
2000
3FF0
4490
7FD0
8410
3F90
2490
3F90
2490
3F90
2490
25B0
ENDCHAR
STARTCHAR 530F
ENCODING 21263
SWIDTH 720 0
DWIDTH 12 0
BBX 12 12 0 -2
BITMAP
2100
2100
FBF0
2210
5410
BBD0
0250
FA70
43C0
F200
1210
31F0
ENDCHAR
STARTCHAR 5310
ENCODING 21264
SWIDTH 720 0
DWIDTH 12 0
BBX 12 12 0 -2
BITMAP
2000
3FF0
4010
5F90
8010
1F10
1110
3F90
2490
3F90
2490
3FB0
ENDCHAR
STARTCHAR 5315
ENCODING 21269
SWIDTH 720 0
DWIDTH 12 0
BBX 12 12 0 -2
BITMAP
2000
2000
2000
2100
2200
2400
3800
E000
2000
2020
2020
1FE0
ENDCHAR
STARTCHAR 5316
ENCODING 21270
SWIDTH 720 0
DWIDTH 12 0
BBX 12 12 0 -2
BITMAP
1200
1200
1200
2210
2260
6380
A200
2200
2200
2210
2210
21F0
ENDCHAR
STARTCHAR 5317
ENCODING 21271
SWIDTH 720 0
DWIDTH 12 0
BBX 12 12 0 -2
BITMAP
0900
0900
0900
F930
09C0
0900
0900
0900
3900
C910
0910
08F0
ENDCHAR
STARTCHAR 5319
ENCODING 21273
SWIDTH 720 0
DWIDTH 12 0
BBX 12 12 0 -2
BITMAP
7D00
4500
7D00
4530
7DE0
0100
FD00
1110
5D10
50F0
F000
9FF0
ENDCHAR
STARTCHAR 531A
ENCODING 21274
SWIDTH 720 0
DWIDTH 12 0
BBX 12 12 0 -2
BITMAP
7FF0
4000
4000
4000
4000
4000
4000
4000
4000
4000
7FF0
4000
ENDCHAR
STARTCHAR 531D
ENCODING 21277
SWIDTH 720 0
DWIDTH 12 0
BBX 12 12 0 -2
BITMAP
FFF0
8200
8200
9FC0
9240
9240
9240
9240
92C0
8200
8200
FFF0
ENDCHAR
STARTCHAR 5320
ENCODING 21280
SWIDTH 720 0
DWIDTH 12 0
BBX 12 12 0 -2
BITMAP
FFE0
8000
83C0
9E00
9000
9FE0
9100
9100
A100
8100
8000
FFE0
ENDCHAR
STARTCHAR 5321
ENCODING 21281
SWIDTH 720 0
DWIDTH 12 0
BBX 12 12 0 -2
BITMAP
7FF0
4000
5FE0
4200
4200
4FC0
4200
4200
5FE0
4000
4000
7FF0
ENDCHAR
STARTCHAR 5323
ENCODING 21283
SWIDTH 720 0
DWIDTH 12 0
BBX 12 12 0 -2
BITMAP
7FF0
4000
4FE0
4920
4FE0
4920
4FE0
4900
4100
4100
4000
7FF0
ENDCHAR
STARTCHAR 532A
ENCODING 21290
SWIDTH 720 0
DWIDTH 12 0
BBX 12 12 0 -2
BITMAP
FFF0
8000
8500
BDE0
8500
9DE0
8500
BDF0
8500
8900
8000
FFF0
ENDCHAR
STARTCHAR 532F
ENCODING 21295
SWIDTH 720 0
DWIDTH 12 0
BBX 12 12 0 -2
BITMAP
FFF0
8440
A480
97F0
8C80
A7E0
9480
87E0
9480
A7F0
8000
FFF0
ENDCHAR
STARTCHAR 5331
ENCODING 21297
SWIDTH 720 0
DWIDTH 12 0
BBX 12 12 0 -2
BITMAP
7FF0
4200
5FC0
5240
7FF0
4840
4FC0
4840
4FC0
4500
58C0
7FF0
ENDCHAR
STARTCHAR 5333
ENCODING 21299
SWIDTH 720 0
DWIDTH 12 0
BBX 12 12 0 -2
BITMAP
FFF0
8200
8500
8880
B060
9DC0
9540
9DC0
8880
9540
A220
FFF0
ENDCHAR
STARTCHAR 5338
ENCODING 21304
SWIDTH 720 0
DWIDTH 12 0
BBX 12 12 0 -2
BITMAP
0000
FFF0
2000
2000
2000
2000
2000
2000
2000
2000
2000
1FE0
ENDCHAR
STARTCHAR 5339
ENCODING 21305
SWIDTH 720 0
DWIDTH 12 0
BBX 12 12 0 -2
BITMAP
0000
FFE0
8900
8900
8900
9120
9120
A0E0
8000
8000
FFE0
8000
ENDCHAR
STARTCHAR 533A
ENCODING 21306
SWIDTH 720 0
DWIDTH 12 0
BBX 12 12 0 -2
BITMAP
0000
FFE0
8000
8080
9880
8500
8200
8500
9880
8080
8000
FFE0
ENDCHAR
STARTCHAR 533B
ENCODING 21307
SWIDTH 720 0
DWIDTH 12 0
BBX 12 12 0 -2
BITMAP
7FF0
4800
4800
4FC0
5200
6200
5FE0
4200
4500
58E0
4000
7FF0
ENDCHAR
STARTCHAR 533F
ENCODING 21311
SWIDTH 720 0
DWIDTH 12 0
BBX 12 12 0 -2
BITMAP
FFF0
8880
BFE0
8880
8400
BFE0
8400
8FC0
B840
8FC0
8000
FFF0
ENDCHAR
STARTCHAR 5340
ENCODING 21312
SWIDTH 720 0
DWIDTH 12 0
BBX 12 12 0 -2
BITMAP
FFF0
4000
47C0
4440
47C0
4000
5EF0
5290
5290
5EF0
4000
3FF0
ENDCHAR
STARTCHAR 5341
ENCODING 21313
SWIDTH 720 0
DWIDTH 12 0
BBX 12 12 0 -2
BITMAP
0400
0400
0400
0400
0400
FFE0
0400
0400
0400
0400
0400
0400
ENDCHAR
STARTCHAR 5343
ENCODING 21315
SWIDTH 720 0
DWIDTH 12 0
BBX 12 12 0 -2
BITMAP
01C0
0E00
7400
0400
0400
FFE0
0400
0400
0400
0400
0400
0400
ENDCHAR
STARTCHAR 5345
ENCODING 21317
SWIDTH 720 0
DWIDTH 12 0
BBX 12 12 0 -2
BITMAP
2220
2220
2220
2220
2220
FFF0
2220
2220
2220
4220
4220
8220
ENDCHAR
STARTCHAR 5346
ENCODING 21318
SWIDTH 720 0
DWIDTH 12 0
BBX 12 12 0 -2
BITMAP
0800
0800
7F00
1100
1100
2120
C4E0
0400
FFE0
0400
0400
0400
ENDCHAR
STARTCHAR 5347
ENCODING 21319
SWIDTH 720 0
DWIDTH 12 0
BBX 12 12 0 -2
BITMAP
0080
1C80
F080
1080
1080
FFF0
1080
1080
1080
2080
2080
4080
ENDCHAR
STARTCHAR 5348
ENCODING 21320
SWIDTH 720 0
DWIDTH 12 0
BBX 12 12 0 -2
BITMAP
1000
1000
3FE0
2200
4200
0200
0200
7FF0
0200
0200
0200
0200
ENDCHAR
STARTCHAR 5349
ENCODING 21321
SWIDTH 720 0
DWIDTH 12 0
BBX 12 12 0 -2
BITMAP
0200
0200
3FE0
0200
1240
1040
1040
FFF0
1040
2040
2040
C040
ENDCHAR
STARTCHAR 534A
ENCODING 21322
SWIDTH 720 0
DWIDTH 12 0
BBX 12 12 0 -2
BITMAP
4440
2440
2480
0400
7FC0
0400
0400
FFE0
0400
0400
0400
0400
ENDCHAR
STARTCHAR 534D
ENCODING 21325
SWIDTH 720 0
DWIDTH 12 0
BBX 12 12 0 -2
BITMAP
0000
FC20
0420
0420
0420
0420
FFE0
8400
8400
8400
8400
87E0
ENDCHAR
STARTCHAR 5351
ENCODING 21329
SWIDTH 720 0
DWIDTH 12 0
BBX 12 12 0 -2
BITMAP
0400
3FC0
2440
3FC0
2440
3FC0
2200
1200
FFF0
0200
0200
0200
ENDCHAR
STARTCHAR 5352
ENCODING 21330
SWIDTH 720 0
DWIDTH 12 0
BBX 12 12 0 -2
BITMAP
0400
0400
FFE0
2080
2080
5540
8420
0400
FFF0
0400
0400
0400
ENDCHAR
STARTCHAR 5353
ENCODING 21331
SWIDTH 720 0
DWIDTH 12 0
BBX 12 12 0 -2
BITMAP
0400
07C0
0400
3F80
2080
3F80
2080
3F80
0400
FFE0
0400
0400
ENDCHAR
STARTCHAR 5354
ENCODING 21332
SWIDTH 720 0
DWIDTH 12 0
BBX 12 12 0 -2
BITMAP
4100
47E0
4120
F120
46E0
4440
4440
5EF0
4A50
4A50
4A50
56B0
ENDCHAR
STARTCHAR 5357
ENCODING 21335
SWIDTH 720 0
DWIDTH 12 0
BBX 12 12 0 -2
BITMAP
0400
FFE0
0400
0400
7FC0
5140
4A40
5F40
4440
5F40
4440
44C0
ENDCHAR
STARTCHAR 5358
ENCODING 21336
SWIDTH 720 0
DWIDTH 12 0
BBX 12 12 0 -2
BITMAP
2440
1280
0000
3F80
2480
3F80
2480
3F80
0400
FFF0
0400
0400
ENDCHAR
STARTCHAR 535A
ENCODING 21338
SWIDTH 720 0
DWIDTH 12 0
BBX 12 12 0 -2
BITMAP
4120
5FF0
4100
EFE0
4920
4FE0
4920
4FE0
4040
5FF0
4440
42C0
ENDCHAR
STARTCHAR 535C
ENCODING 21340
SWIDTH 720 0
DWIDTH 12 0
BBX 12 12 0 -2
BITMAP
0800
0800
0800
0800
0E00
0900
0880
0840
0800
0800
0800
0800
ENDCHAR
STARTCHAR 535E
ENCODING 21342
SWIDTH 720 0
DWIDTH 12 0
BBX 12 12 0 -2
BITMAP
0400
0400
FFF0
0400
0400
0700
0480
0440
0400
0400
0400
0400
ENDCHAR
STARTCHAR 5360
ENCODING 21344
SWIDTH 720 0
DWIDTH 12 0
BBX 12 12 0 -2
BITMAP
0400
0400
0400
07C0
0400
0400
0400
7FC0
4040
4040
4040
7FC0
ENDCHAR
STARTCHAR 5366
ENCODING 21350
SWIDTH 720 0
DWIDTH 12 0
BBX 12 12 0 -2
BITMAP
1080
7C80
1080
1080
FEC0
10A0
1090
7C90
1080
1080
1E80
F080
ENDCHAR
STARTCHAR 5369
ENCODING 21353
SWIDTH 720 0
DWIDTH 12 0
BBX 12 12 0 -2
BITMAP
1000
1FC0
1040
1040
1040
1040
1040
1040
1380
1000
1000
1000
ENDCHAR
STARTCHAR 536E
ENCODING 21358
SWIDTH 720 0
DWIDTH 12 0
BBX 12 12 0 -2
BITMAP
00E0
3F80
2000
3FF0
2000
2FC0
2840
2840
29C0
4800
4810
87F0
ENDCHAR
STARTCHAR 536F
ENCODING 21359
SWIDTH 720 0
DWIDTH 12 0
BBX 12 12 0 -2
BITMAP
0D00
71F0
4110
4910
4910
4910
4910
5910
E910
0970
1100
6100
ENDCHAR
STARTCHAR 5370
ENCODING 21360
SWIDTH 720 0
DWIDTH 12 0
BBX 12 12 0 -2
BITMAP
0800
33F0
4210
4210
4210
7A10
4210
4210
4210
7AE0
4200
0200
ENDCHAR
STARTCHAR 5371
ENCODING 21361
SWIDTH 720 0
DWIDTH 12 0
BBX 12 12 0 -2
BITMAP
1000
1F80
6100
0200
3FF0
2000
2FC0
2840
4840
49D0
8810
07F0
ENDCHAR
STARTCHAR 5373
ENCODING 21363
SWIDTH 720 0
DWIDTH 12 0
BBX 12 12 0 -2
BITMAP
7DF0
4510
4510
7D10
4510
4510
7D10
4110
4910
4970
5D00
E500
ENDCHAR
STARTCHAR 5374
ENCODING 21364
SWIDTH 720 0
DWIDTH 12 0
BBX 12 12 0 -2
BITMAP
01F0
2110
2110
F910
2110
2110
F910
2110
2510
4D70
F500
0100
ENDCHAR
STARTCHAR 5375
ENCODING 21365
SWIDTH 720 0
DWIDTH 12 0
BBX 12 12 0 -2
BITMAP
0500
79F0
4110
4510
6590
5550
5550
4550
7D10
C910
0970
7100
ENDCHAR
STARTCHAR 5377
ENCODING 21367
SWIDTH 720 0
DWIDTH 12 0
BBX 12 12 0 -2
BITMAP
2480
2480
4440
BFA0
0A00
FFE0
1100
3F80
C170
1F00
1040
0FC0
ENDCHAR
STARTCHAR 5378
ENCODING 21368
SWIDTH 720 0
DWIDTH 12 0
BBX 12 12 0 -2
BITMAP
4000
7DF0
5110
9110
7D10
1110
5110
5D10
5110
5D70
F100
0100
ENDCHAR
STARTCHAR 537B
ENCODING 21371
SWIDTH 720 0
DWIDTH 12 0
BBX 12 12 0 -2
BITMAP
2800
25F0
4510
9110
2910
4510
8110
7D10
4510
4570
4500
7D00
ENDCHAR
STARTCHAR 537F
ENCODING 21375
SWIDTH 720 0
DWIDTH 12 0
BBX 12 12 0 -2
BITMAP
6070
CF50
8950
AF50
A950
AF50
A850
AA50
EA70
2B40
4D40
8840
ENDCHAR
STARTCHAR 5382
ENCODING 21378
SWIDTH 720 0
DWIDTH 12 0
BBX 12 12 0 -2
BITMAP
3FF0
2000
2000
2000
2000
2000
2000
2000
2000
4000
4000
8000
ENDCHAR
STARTCHAR 5384
ENCODING 21380
SWIDTH 720 0
DWIDTH 12 0
BBX 12 12 0 -2
BITMAP
7FF0
4000
4000
4FC0
4840
4840
4840
49C0
4800
4810
8810
87F0
ENDCHAR
STARTCHAR 5396
ENCODING 21398
SWIDTH 720 0
DWIDTH 12 0
BBX 12 12 0 -2
BITMAP
7FF0
4200
4A20
48C0
7E10
4820
49C0
4810
4C60
5580
9410
A3F0
ENDCHAR
STARTCHAR 5398
ENCODING 21400
SWIDTH 720 0
DWIDTH 12 0
BBX 12 12 0 -2
BITMAP
0000
7FE0
4000
5FC0
5240
5FC0
5240
5FC0
4200
9FC0
8200
7FE0
ENDCHAR
STARTCHAR 539A
ENCODING 21402
SWIDTH 720 0
DWIDTH 12 0
BBX 12 12 0 -2
BITMAP
7FF0
5020
5FE0
5020
5FE0
4000
4FC0
4080
5FE0
4100
8100
0700
ENDCHAR
STARTCHAR 539F
ENCODING 21407
SWIDTH 720 0
DWIDTH 12 0
BBX 12 12 0 -2
BITMAP
7FF0
4100
4200
4FE0
4820
4FE0
4820
4FE0
4100
4920
8910
1310
ENDCHAR
STARTCHAR 53A0
ENCODING 21408
SWIDTH 720 0
DWIDTH 12 0
BBX 12 12 0 -2
BITMAP
7FF0
4000
5E10
5290
5E90
5290
5E90
5290
5E90
5490
9210
A230
ENDCHAR
STARTCHAR 53A5
ENCODING 21413
SWIDTH 720 0
DWIDTH 12 0
BBX 12 12 0 -2
BITMAP
7FF0
4280
6280
5480
7FF0
4920
6AA0
6A40
7E60
48A0
8890
9110
ENDCHAR
STARTCHAR 53A6
ENCODING 21414
SWIDTH 720 0
DWIDTH 12 0
BBX 12 12 0 -2
BITMAP
7FF0
4000
5FE0
4200
4FC0
4840
4FC0
4840
4FC0
5440
8380
BC70
ENDCHAR
STARTCHAR 53A8
ENCODING 21416
SWIDTH 720 0
DWIDTH 12 0
BBX 12 12 0 -2
BITMAP
7FF0
4000
5E20
4020
5FF0
5220
5F20
40A0
52A0
4C20
8720
B8E0
ENDCHAR
STARTCHAR 53A9
ENCODING 21417
SWIDTH 720 0
DWIDTH 12 0
BBX 12 12 0 -2
BITMAP
7FF0
4000
5FF0
52A0
5EA0
53F0
5E40
5080
5480
54C0
9D50
1330
ENDCHAR
STARTCHAR 53AD
ENCODING 21421
SWIDTH 720 0
DWIDTH 12 0
BBX 12 12 0 -2
BITMAP
7FF0
4040
5E60
5250
5E40
41F0
5E40
5240
5EA0
52A0
9EA0
B310
ENDCHAR
STARTCHAR 53AE
ENCODING 21422
SWIDTH 720 0
DWIDTH 12 0
BBX 12 12 0 -2
BITMAP
7FF0
5400
7E30
54C0
5C80
54F0
5CA0
54A0
7EA0
54A0
9520
2520
ENDCHAR
STARTCHAR 53B0
ENCODING 21424
SWIDTH 720 0
DWIDTH 12 0
BBX 12 12 0 -2
BITMAP
7FF0
4880
6A80
5C80
5FF0
5320
5EA0
5640
5660
5EA0
9290
9310
ENDCHAR
STARTCHAR 53B3
ENCODING 21427
SWIDTH 720 0
DWIDTH 12 0
BBX 12 12 0 -2
BITMAP
2420
1240
7FF0
4080
5E80
48F0
7F20
54A0
5E40
5460
BE90
0510
ENDCHAR
STARTCHAR 53B6
ENCODING 21430
SWIDTH 720 0
DWIDTH 12 0
BBX 12 12 0 -2
BITMAP
0400
0400
0400
0800
0800
0800
1000
1040
2040
23E0
FC20
0020
ENDCHAR
STARTCHAR 53BB
ENCODING 21435
SWIDTH 720 0
DWIDTH 12 0
BBX 12 12 0 -2
BITMAP
0400
0400
7FC0
0400
0400
0400
FFE0
0800
0840
1040
23E0
7C20
ENDCHAR
STARTCHAR 53C2
ENCODING 21442
SWIDTH 720 0
DWIDTH 12 0
BBX 12 12 0 -2
BITMAP
0480
0840
7FC0
0440
FFF0
0900
32C0
CC30
3300
0C40
0180
7E00
ENDCHAR
STARTCHAR 53C3
ENCODING 21443
SWIDTH 720 0
DWIDTH 12 0
BBX 12 12 0 -2
BITMAP
0C80
1040
7FE0
2440
5690
F9F0
32C0
CCB0
3320
0C40
0180
7E00
ENDCHAR
STARTCHAR 53C8
ENCODING 21448
SWIDTH 720 0
DWIDTH 12 0
BBX 12 12 0 -2
BITMAP
0000
7FC0
0040
0040
3080
0880
0500
0200
0500
0880
3040
C030
ENDCHAR
STARTCHAR 53C9
ENCODING 21449
SWIDTH 720 0
DWIDTH 12 0
BBX 12 12 0 -2
BITMAP
0000
FFE0
0420
0240
1240
1080
2880
0500
0200
0500
18C0
E030
ENDCHAR
STARTCHAR 53CA
ENCODING 21450
SWIDTH 720 0
DWIDTH 12 0
BBX 12 12 0 -2
BITMAP
7FC0
1040
1080
1900
19E0
1420
2420
2240
2140
4180
4640
9830
ENDCHAR
STARTCHAR 53CB
ENCODING 21451
SWIDTH 720 0
DWIDTH 12 0
BBX 12 12 0 -2
BITMAP
0800
0800
7FE0
0800
0800
0FC0
0840
1840
2480
C300
0CC0
3030
ENDCHAR
STARTCHAR 53CC
ENCODING 21452
SWIDTH 720 0
DWIDTH 12 0
BBX 12 12 0 -2
BITMAP
0000
FBF0
0820
0A20
4940
2940
1080
1880
2540
2140
4220
9C10
ENDCHAR
STARTCHAR 53CD
ENCODING 21453
SWIDTH 720 0
DWIDTH 12 0
BBX 12 12 0 -2
BITMAP
3FE0
2000
2000
2000
3FC0
2040
2040
2880
4500
4300
8CC0
7030
ENDCHAR
STARTCHAR 53CE
ENCODING 21454
SWIDTH 720 0
DWIDTH 12 0
BBX 12 12 0 -2
BITMAP
0800
4BE0
4820
4A20
4A20
4940
4940
4880
7880
C940
0A20
0C10
ENDCHAR
STARTCHAR 53D4
ENCODING 21460
SWIDTH 720 0
DWIDTH 12 0
BBX 12 12 0 -2
BITMAP
2000
23E0
3820
2220
2140
F940
2080
3080
A940
A940
AA20
6410
ENDCHAR
STARTCHAR 53D6
ENCODING 21462
SWIDTH 720 0
DWIDTH 12 0
BBX 12 12 0 -2
BITMAP
FE00
4BE0
4820
7A20
4A20
4940
7940
4880
4880
7940
C940
0E30
ENDCHAR
STARTCHAR 53D7
ENCODING 21463
SWIDTH 720 0
DWIDTH 12 0
BBX 12 12 0 -2
BITMAP
01E0
7E00
2440
1280
FFF0
8010
BF90
0080
1900
0600
1980
E060
ENDCHAR
STARTCHAR 53D9
ENCODING 21465
SWIDTH 720 0
DWIDTH 12 0
BBX 12 12 0 -2
BITMAP
1000
13E0
2820
4A20
7E20
A540
2140
F880
2080
A940
AA20
6C10
ENDCHAR
STARTCHAR 53DB
ENCODING 21467
SWIDTH 720 0
DWIDTH 12 0
BBX 12 12 0 -2
BITMAP
AFF0
7400
2400
FC00
27E0
3420
E620
2640
4940
4880
9140
0630
ENDCHAR
STARTCHAR 53DF
ENCODING 21471
SWIDTH 720 0
DWIDTH 12 0
BBX 12 12 0 -2
BITMAP
1400
E5E0
8420
F5E0
8420
FFE0
0400
7FC0
2040
1980
0F00
F0F0
ENDCHAR
STARTCHAR 53E1
ENCODING 21473
SWIDTH 720 0
DWIDTH 12 0
BBX 12 12 0 -2
BITMAP
3800
21F0
FC10
A510
7110
8CA0
20A0
7840
CC40
78A0
4910
7A10
ENDCHAR
STARTCHAR 53E2
ENCODING 21474
SWIDTH 720 0
DWIDTH 12 0
BBX 12 12 0 -2
BITMAP
4920
2940
FFF0
1080
7FE0
0400
FFF0
4A40
7940
4880
F940
0A30
ENDCHAR
STARTCHAR 53E3
ENCODING 21475
SWIDTH 720 0
DWIDTH 12 0
BBX 12 12 0 -2
BITMAP
0000
7FE0
4020
4020
4020
4020
4020
4020
4020
4020
7FE0
4000
ENDCHAR
STARTCHAR 53E4
ENCODING 21476
SWIDTH 720 0
DWIDTH 12 0
BBX 12 12 0 -2
BITMAP
0400
0400
0400
FFE0
0400
0400
0400
3F80
2080
2080
2080
3F80
ENDCHAR
STARTCHAR 53E5
ENCODING 21477
SWIDTH 720 0
DWIDTH 12 0
BBX 12 12 0 -2
BITMAP
2000
2000
3FE0
2020
4020
9F20
1120
1120
1F20
1020
0040
01C0
ENDCHAR
STARTCHAR 53E8
ENCODING 21480
SWIDTH 720 0
DWIDTH 12 0
BBX 12 12 0 -2
BITMAP
0FF0
F110
9110
9110
9110
9110
9110
F110
8210
0210
0420
18E0
ENDCHAR
STARTCHAR 53E9
ENCODING 21481
SWIDTH 720 0
DWIDTH 12 0
BBX 12 12 0 -2
BITMAP
03F0
FA10
8A10
8A10
8A10
8A10
8A10
8A10
FA10
82F0
0200
0200
ENDCHAR
STARTCHAR 53EA
ENCODING 21482
SWIDTH 720 0
DWIDTH 12 0
BBX 12 12 0 -2
BITMAP
0000
7FC0
4040
4040
4040
4040
7FC0
4000
1100
1100
2080
C070
ENDCHAR
STARTCHAR 53EB
ENCODING 21483
SWIDTH 720 0
DWIDTH 12 0
BBX 12 12 0 -2
BITMAP
0040
F240
9240
9240
9240
9240
9240
9270
F3C0
8640
0040
0040
ENDCHAR
STARTCHAR 53EC
ENCODING 21484
SWIDTH 720 0
DWIDTH 12 0
BBX 12 12 0 -2
BITMAP
0000
7FC0
0840
0840
1040
61C0
0000
3F80
2080
2080
2080
3F80
ENDCHAR
STARTCHAR 53ED
ENCODING 21485
SWIDTH 720 0
DWIDTH 12 0
BBX 12 12 0 -2
BITMAP
03C0
0040
F240
9240
9240
9240
9240
9440
F420
8820
0820
3010
ENDCHAR
STARTCHAR 53EE
ENCODING 21486
SWIDTH 720 0
DWIDTH 12 0
BBX 12 12 0 -2
BITMAP
0FF0
F080
9080
9080
9080
9080
9080
F080
8080
0080
0080
0380
ENDCHAR
STARTCHAR 53EF
ENCODING 21487
SWIDTH 720 0
DWIDTH 12 0
BBX 12 12 0 -2
BITMAP
0000
FFF0
0040
0040
3E40
2240
2240
2240
3E40
2040
0040
01C0
ENDCHAR
STARTCHAR 53F0
ENCODING 21488
SWIDTH 720 0
DWIDTH 12 0
BBX 12 12 0 -2
BITMAP
0400
0400
0840
1040
23E0
FE20
0000
3FC0
2040
2040
2040
3FC0
ENDCHAR
STARTCHAR 53F1
ENCODING 21489
SWIDTH 720 0
DWIDTH 12 0
BBX 12 12 0 -2
BITMAP
0200
0200
F200
9200
92F0
9F80
9200
9200
F200
8210
0210
01F0
ENDCHAR
STARTCHAR 53F2
ENCODING 21490
SWIDTH 720 0
DWIDTH 12 0
BBX 12 12 0 -2
BITMAP
0400
0400
7FC0
4440
4440
7FC0
0400
3400
0C00
0600
1980
E070
ENDCHAR
STARTCHAR 53F3
ENCODING 21491
SWIDTH 720 0
DWIDTH 12 0
BBX 12 12 0 -2
BITMAP
0800
0800
0800
FFF0
1000
1000
3FC0
5040
9040
1040
1FC0
1040
ENDCHAR
STARTCHAR 53F6
ENCODING 21494
SWIDTH 720 0
DWIDTH 12 0
BBX 12 12 0 -2
BITMAP
0080
0080
F080
9080
97F0
9080
9080
F080
8080
0080
0080
0080
ENDCHAR
STARTCHAR 53F7
ENCODING 21495
SWIDTH 720 0
DWIDTH 12 0
BBX 12 12 0 -2
BITMAP
3FC0
2040
2040
3FC0
0000
FFF0
1000
1000
3FC0
2040
0040
0380
ENDCHAR
STARTCHAR 53F8
ENCODING 21496
SWIDTH 720 0
DWIDTH 12 0
BBX 12 12 0 -2
BITMAP
FFF0
0010
7F90
0010
3F10
2110
2110
2110
3F10
2010
0010
0070
ENDCHAR
STARTCHAR 53FA
ENCODING 21498
SWIDTH 720 0
DWIDTH 12 0
BBX 12 12 0 -2
BITMAP
0700
0100
F100
9100
9100
9100
9280
9280
F440
8440
0820
3010
ENDCHAR
STARTCHAR 5401
ENCODING 21505
SWIDTH 720 0
DWIDTH 12 0
BBX 12 12 0 -2
BITMAP
07E0
F080
9080
9080
9080
97F0
9080
F080
8080
0080
0080
0180
ENDCHAR
STARTCHAR 5403
ENCODING 21507
SWIDTH 720 0
DWIDTH 12 0
BBX 12 12 0 -2
BITMAP
0200
0200
F3F0
9400
9000
97E0
9040
9180
F200
8410
0410
03F0
ENDCHAR
STARTCHAR 5404
ENCODING 21508
SWIDTH 720 0
DWIDTH 12 0
BBX 12 12 0 -2
BITMAP
0800
0F80
1080
2900
C600
0900
1080
3FC0
D0B0
1080
1080
1F80
ENDCHAR
STARTCHAR 5408
ENCODING 21512
SWIDTH 720 0
DWIDTH 12 0
BBX 12 12 0 -2
BITMAP
0400
0400
0A00
1100
2080
C060
3F80
0000
3F80
2080
2080
3F80
ENDCHAR
STARTCHAR 5409
ENCODING 21513
SWIDTH 720 0
DWIDTH 12 0
BBX 12 12 0 -2
BITMAP
0400
0400
FFE0
0400
0400
7FC0
0000
0000
3F80
2080
2080
3F80
ENDCHAR
STARTCHAR 540A
ENCODING 21514
SWIDTH 720 0
DWIDTH 12 0
BBX 12 12 0 -2
BITMAP
3F80
2080
2080
3F80
0400
0400
7FC0
4440
4440
4440
44C0
0400
ENDCHAR
STARTCHAR 540B
ENCODING 21515
SWIDTH 720 0
DWIDTH 12 0
BBX 12 12 0 -2
BITMAP
0040
F040
9040
9FF0
9040
9040
9440
F240
8240
0040
0040
00C0
ENDCHAR
STARTCHAR 540C
ENCODING 21516
SWIDTH 720 0
DWIDTH 12 0
BBX 12 12 0 -2
BITMAP
FFE0
8020
8020
9F20
8020
8020
9F20
9120
9120
9F20
8020
80E0
ENDCHAR
STARTCHAR 540D
ENCODING 21517
SWIDTH 720 0
DWIDTH 12 0
BBX 12 12 0 -2
BITMAP
0400
0FC0
1040
6C80
0300
0600
1800
6FE0
0820
0820
0820
0FE0
ENDCHAR
STARTCHAR 540E
ENCODING 21518
SWIDTH 720 0
DWIDTH 12 0
BBX 12 12 0 -2
BITMAP
01E0
7E00
4000
4000
7FF0
4000
4000
4FE0
4820
8820
8820
0FE0
ENDCHAR
STARTCHAR 540F
ENCODING 21519
SWIDTH 720 0
DWIDTH 12 0
BBX 12 12 0 -2
BITMAP
0400
FFE0
0400
7FC0
4440
4440
7FC0
0400
7400
0C00
1B00
E0F0
ENDCHAR
STARTCHAR 5410
ENCODING 21520
SWIDTH 720 0
DWIDTH 12 0
BBX 12 12 0 -2
BITMAP
0080
0080
F080
9080
97F0
9080
9080
9080
F080
8080
0080
0FF0
ENDCHAR
STARTCHAR 5411
ENCODING 21521
SWIDTH 720 0
DWIDTH 12 0
BBX 12 12 0 -2
BITMAP
0400
0800
7FE0
4020
4020
5FA0
50A0
50A0
5FA0
5020
4020
40E0
ENDCHAR
STARTCHAR 541B
ENCODING 21531
SWIDTH 720 0
DWIDTH 12 0
BBX 12 12 0 -2
BITMAP
7FC0
0840
FFF0
0840
7FC0
0800
1000
3FE0
D020
1020
1FE0
1000
ENDCHAR
STARTCHAR 541D
ENCODING 21533
SWIDTH 720 0
DWIDTH 12 0
BBX 12 12 0 -2
BITMAP
0600
FFF0
1080
0900
0600
0900
30C0
C030
3FC0
2040
2040
3FC0
ENDCHAR
STARTCHAR 541F
ENCODING 21535
SWIDTH 720 0
DWIDTH 12 0
BBX 12 12 0 -2
BITMAP
0100
E100
A280
A440
B830
A7C0
A000
EFE0
8040
0040
0080
0300
ENDCHAR
STARTCHAR 5420
ENCODING 21536
SWIDTH 720 0
DWIDTH 12 0
BBX 12 12 0 -2
BITMAP
0100
F120
9110
9100
9FF0
9100
9100
F280
8280
0440
0440
1830
ENDCHAR
STARTCHAR 5426
ENCODING 21542
SWIDTH 720 0
DWIDTH 12 0
BBX 12 12 0 -2
BITMAP
0000
FFF0
0600
0D80
3440
C420
0400
3FC0
2040
2040
2040
3FC0
ENDCHAR
STARTCHAR 5429
ENCODING 21545
SWIDTH 720 0
DWIDTH 12 0
BBX 12 12 0 -2
BITMAP
0280
F240
9220
9410
9410
9BE0
9120
F120
8120
0220
0220
04E0
ENDCHAR
STARTCHAR 542B
ENCODING 21547
SWIDTH 720 0
DWIDTH 12 0
BBX 12 12 0 -2
BITMAP
0400
0A00
1100
2E80
C060
3F80
0200
0C00
7FC0
4040
4040
7FC0
ENDCHAR
STARTCHAR 542C
ENCODING 21548
SWIDTH 720 0
DWIDTH 12 0
BBX 12 12 0 -2
BITMAP
00E0
F780
9400
9400
97F0
9440
9440
F440
8440
0840
0840
1040
ENDCHAR
STARTCHAR 542D
ENCODING 21549
SWIDTH 720 0
DWIDTH 12 0
BBX 12 12 0 -2
BITMAP
0100
F100
9FF0
9000
93C0
9240
9240
F240
8240
0450
0450
1830
ENDCHAR
STARTCHAR 542E
ENCODING 21550
SWIDTH 720 0
DWIDTH 12 0
BBX 12 12 0 -2
BITMAP
0200
F200
9420
9420
9FF0
9010
9240
F240
8240
0250
0450
1870
ENDCHAR
STARTCHAR 5436
ENCODING 21558
SWIDTH 720 0
DWIDTH 12 0
BBX 12 12 0 -2
BITMAP
0080
0080
F7F0
9490
9490
9490
9550
F630
8410
0410
0410
0430
ENDCHAR
STARTCHAR 5438
ENCODING 21560
SWIDTH 720 0
DWIDTH 12 0
BBX 12 12 0 -2
BITMAP
0FC0
0440
E440
A480
A6E0
A620
A520
E540
8880
08C0
0920
1610
ENDCHAR
STARTCHAR 5439
ENCODING 21561
SWIDTH 720 0
DWIDTH 12 0
BBX 12 12 0 -2
BITMAP
0200
0200
F3F0
9410
9520
9900
9100
9100
F280
8280
0440
1830
ENDCHAR
STARTCHAR 543B
ENCODING 21563
SWIDTH 720 0
DWIDTH 12 0
BBX 12 12 0 -2
BITMAP
0200
0200
F200
97F0
9550
9550
9950
9290
F290
8490
0120
0260
ENDCHAR
STARTCHAR 543C
ENCODING 21564
SWIDTH 720 0
DWIDTH 12 0
BBX 12 12 0 -2
BITMAP
0F40
E140
A240
A440
A440
A740
BC40
A440
E440
8450
0450
0C30
ENDCHAR
STARTCHAR 543D
ENCODING 21565
SWIDTH 720 0
DWIDTH 12 0
BBX 12 12 0 -2
BITMAP
0080
F480
9480
97F0
9480
9880
9080
F7F0
8080
0080
0080
0080
ENDCHAR
STARTCHAR 543E
ENCODING 21566
SWIDTH 720 0
DWIDTH 12 0
BBX 12 12 0 -2
BITMAP
7FC0
0800
0800
7F80
1080
1080
FFE0
0000
3F80
2080
2080
3F80
ENDCHAR
STARTCHAR 5440
ENCODING 21568
SWIDTH 720 0
DWIDTH 12 0
BBX 12 12 0 -2
BITMAP
0FF0
F240
9240
9240
9240
9FF0
9140
F140
8240
0240
0440
18C0
ENDCHAR
STARTCHAR 5442
ENCODING 21570
SWIDTH 720 0
DWIDTH 12 0
BBX 12 12 0 -2
BITMAP
0000
3FC0
2040
2040
3FC0
0400
0800
7FE0
4020
4020
4020
7FE0
ENDCHAR
STARTCHAR 5446
ENCODING 21574
SWIDTH 720 0
DWIDTH 12 0
BBX 12 12 0 -2
BITMAP
3F80
2080
2080
2080
3F80
2400
0400
FFE0
0400
0E00
3580
C460
ENDCHAR
STARTCHAR 5448
ENCODING 21576
SWIDTH 720 0
DWIDTH 12 0
BBX 12 12 0 -2
BITMAP
3F80
2080
2080
3F80
0000
0000
7FC0
0400
3F80
0400
0400
FFE0
ENDCHAR
STARTCHAR 5449
ENCODING 21577
SWIDTH 720 0
DWIDTH 12 0
BBX 12 12 0 -2
BITMAP
0FC0
4840
4840
4FC0
4000
7FC0
4040
0040
FFF0
0900
1080
E060
ENDCHAR
STARTCHAR 544A
ENCODING 21578
SWIDTH 720 0
DWIDTH 12 0
BBX 12 12 0 -2
BITMAP
2200
2200
3FE0
4200
0200
7FF0
0000
0000
3FE0
2020
2020
3FE0
ENDCHAR
STARTCHAR 544E
ENCODING 21582
SWIDTH 720 0
DWIDTH 12 0
BBX 12 12 0 -2
BITMAP
07E0
F420
9420
9420
97E0
9480
9480
F480
8440
0840
0820
1010
ENDCHAR
STARTCHAR 5451
ENCODING 21585
SWIDTH 720 0
DWIDTH 12 0
BBX 12 12 0 -2
BITMAP
01C0
7E00
0400
0400
FFF0
0900
1080
3FC0
D0B0
1080
1080
1F80
ENDCHAR
STARTCHAR 545F
ENCODING 21599
SWIDTH 720 0
DWIDTH 12 0
BBX 12 12 0 -2
BITMAP
0080
0080
F7F0
9080
9080
9520
9220
9140
F080
8120
0270
0F90
ENDCHAR
STARTCHAR 5468
ENCODING 21608
SWIDTH 720 0
DWIDTH 12 0
BBX 12 12 0 -2
BITMAP
7FF0
4210
4210
4F90
4210
5FD0
4010
4F90
4890
4F90
8810
8030
ENDCHAR
STARTCHAR 546A
ENCODING 21610
SWIDTH 720 0
DWIDTH 12 0
BBX 12 12 0 -2
BITMAP
0000
07E0
F420
9420
9420
9420
97E0
F280
8280
0290
0490
1870
ENDCHAR
STARTCHAR 5470
ENCODING 21616
SWIDTH 720 0
DWIDTH 12 0
BBX 12 12 0 -2
BITMAP
1100
5130
5DE0
5100
5110
7D10
E0F0
0000
3FC0
2040
2040
3FC0
ENDCHAR
STARTCHAR 5471
ENCODING 21617
SWIDTH 720 0
DWIDTH 12 0
BBX 12 12 0 -2
BITMAP
00E0
F7C0
9540
9540
9540
9540
9540
F540
8520
0920
0950
37D0
ENDCHAR
STARTCHAR 5473
ENCODING 21619
SWIDTH 720 0
DWIDTH 12 0
BBX 12 12 0 -2
BITMAP
0100
E100
AFE0
A100
A100
BFF0
A100
A380
E540
8920
3110
0100
ENDCHAR
STARTCHAR 5475
ENCODING 21621
SWIDTH 720 0
DWIDTH 12 0
BBX 12 12 0 -2
BITMAP
0FF0
F020
9020
97A0
94A0
94A0
94A0
97A0
F420
8020
0020
0060
ENDCHAR
STARTCHAR 5476
ENCODING 21622
SWIDTH 720 0
DWIDTH 12 0
BBX 12 12 0 -2
BITMAP
08F0
0810
E890
BF90
A950
A950
A950
BA20
EA20
8450
0A50
1290
ENDCHAR
STARTCHAR 5477
ENCODING 21623
SWIDTH 720 0
DWIDTH 12 0
BBX 12 12 0 -2
BITMAP
07F0
F490
9490
97F0
9490
9490
97F0
F480
8080
0080
0080
0080
ENDCHAR
STARTCHAR 547B
ENCODING 21627
SWIDTH 720 0
DWIDTH 12 0
BBX 12 12 0 -2
BITMAP
0080
0080
F7F0
9490
9490
97F0
9490
F490
87F0
0480
0080
0080
ENDCHAR
STARTCHAR 547C
ENCODING 21628
SWIDTH 720 0
DWIDTH 12 0
BBX 12 12 0 -2
BITMAP
0030
1FC0
E100
A920
A520
A540
A100
BFF0
E100
8100
0100
0300
ENDCHAR
STARTCHAR 547D
ENCODING 21629
SWIDTH 720 0
DWIDTH 12 0
BBX 12 12 0 -2
BITMAP
0400
0A00
1100
2080
DF60
0000
7BC0
4A40
4A40
4A40
7AC0
0200
ENDCHAR
STARTCHAR 5480
ENCODING 21632
SWIDTH 720 0
DWIDTH 12 0
BBX 12 12 0 -2
BITMAP
07E0
F420
9420
9420
97E0
9420
9420
F7E0
8420
0420
0420
1FF0
ENDCHAR
STARTCHAR 5484
ENCODING 21636
SWIDTH 720 0
DWIDTH 12 0
BBX 12 12 0 -2
BITMAP
0100
E100
A920
A920
A920
AFE0
A100
E100
9110
1110
1110
1FF0
ENDCHAR
STARTCHAR 5486
ENCODING 21638
SWIDTH 720 0
DWIDTH 12 0
BBX 12 12 0 -2
BITMAP
0200
0200
F3F0
9410
95D0
9850
9050
93D0
F230
8200
0210
01F0
ENDCHAR
STARTCHAR 548B
ENCODING 21643
SWIDTH 720 0
DWIDTH 12 0
BBX 12 12 0 -2
BITMAP
0400
0400
E7F0
A900
A900
B1E0
A100
A100
E1E0
8100
0100
0100
ENDCHAR
STARTCHAR 548C
ENCODING 21644
SWIDTH 720 0
DWIDTH 12 0
BBX 12 12 0 -2
BITMAP
0C00
79F0
1110
1110
FD10
1110
3910
3510
5510
5110
91F0
1100
ENDCHAR
STARTCHAR 548E
ENCODING 21646
SWIDTH 720 0
DWIDTH 12 0
BBX 12 12 0 -2
BITMAP
2080
3880
2880
6940
9220
2810
C7F0
0000
3FC0
2040
2040
3FC0
ENDCHAR
STARTCHAR 548F
ENCODING 21647
SWIDTH 720 0
DWIDTH 12 0
BBX 12 12 0 -2
BITMAP
0300
0080
F000
9700
9100
9130
9FC0
9380
F340
8520
1910
0300
ENDCHAR
STARTCHAR 5490
ENCODING 21648
SWIDTH 720 0
DWIDTH 12 0
BBX 12 12 0 -2
BITMAP
0220
F220
9220
95F0
9420
9C20
9520
F4A0
84A0
0420
0420
0460
ENDCHAR
STARTCHAR 5492
ENCODING 21650
SWIDTH 720 0
DWIDTH 12 0
BBX 12 12 0 -2
BITMAP
79E0
4920
4920
4920
79E0
0000
1F00
1100
1100
2110
2110
C0F0
ENDCHAR
STARTCHAR 54A2
ENCODING 21666
SWIDTH 720 0
DWIDTH 12 0
BBX 12 12 0 -2
BITMAP
7BC0
4A40
4A40
7BC0
0000
7FC0
0000
FFE0
0800
1F80
0080
0700
ENDCHAR
STARTCHAR 54A4
ENCODING 21668
SWIDTH 720 0
DWIDTH 12 0
BBX 12 12 0 -2
BITMAP
0100
0100
EFF0
A8D0
AB90
A100
A100
AFF0
E100
8100
0110
00F0
ENDCHAR
STARTCHAR 54A5
ENCODING 21669
SWIDTH 720 0
DWIDTH 12 0
BBX 12 12 0 -2
BITMAP
0FF0
0100
F100
9220
9FF0
9010
9100
F100
8FE0
0100
0100
1FF0
ENDCHAR
STARTCHAR 54A8
ENCODING 21672
SWIDTH 720 0
DWIDTH 12 0
BBX 12 12 0 -2
BITMAP
0400
8400
67F0
0920
0980
2240
CC30
0000
3FC0
2040
2040
3FC0
ENDCHAR
STARTCHAR 54AB
ENCODING 21675
SWIDTH 720 0
DWIDTH 12 0
BBX 12 12 0 -2
BITMAP
7DF0
4510
4510
4510
7D10
51F0
50A0
50A0
4890
4910
8600
81F0
ENDCHAR
STARTCHAR 54AC
ENCODING 21676
SWIDTH 720 0
DWIDTH 12 0
BBX 12 12 0 -2
BITMAP
0100
F100
9FF0
9240
9240
9420
9A50
F280
8100
0280
0440
1830
ENDCHAR
STARTCHAR 54AF
ENCODING 21679
SWIDTH 720 0
DWIDTH 12 0
BBX 12 12 0 -2
BITMAP
0200
03E0
F440
9640
9980
9140
9220
97F0
FA20
8220
0220
03E0
ENDCHAR
STARTCHAR 54B2
ENCODING 21682
SWIDTH 720 0
DWIDTH 12 0
BBX 12 12 0 -2
BITMAP
0840
0440
E480
AFE0
A100
A100
BFF0
E100
8100
0280
0440
1830
ENDCHAR
STARTCHAR 54B3
ENCODING 21683
SWIDTH 720 0
DWIDTH 12 0
BBX 12 12 0 -2
BITMAP
0080
0080
F7F0
9100
9240
9680
9120
F240
8480
1900
02C0
1C30
ENDCHAR
STARTCHAR 54B8
ENCODING 21688
SWIDTH 720 0
DWIDTH 12 0
BBX 12 12 0 -2
BITMAP
0140
0120
7FF0
4100
5D20
4120
5D40
5540
5480
5C90
9150
8630
ENDCHAR
STARTCHAR 54BC
ENCODING 21692
SWIDTH 720 0
DWIDTH 12 0
BBX 12 12 0 -2
BITMAP
1F80
1080
1780
1480
1480
7FE0
4020
5FA0
50A0
5FA0
5020
4060
ENDCHAR
STARTCHAR 54BD
ENCODING 21693
SWIDTH 720 0
DWIDTH 12 0
BBX 12 12 0 -2
BITMAP
0FF0
0910
E910
A910
AFF0
A910
A910
A990
AA50
EC30
0810
0FF0
ENDCHAR
STARTCHAR 54BE
ENCODING 21694
SWIDTH 720 0
DWIDTH 12 0
BBX 12 12 0 -2
BITMAP
0100
F100
97E0
9120
9140
9FF0
9100
F270
8FC0
0200
0210
01F0
ENDCHAR
STARTCHAR 54C0
ENCODING 21696
SWIDTH 720 0
DWIDTH 12 0
BBX 12 12 0 -2
BITMAP
0400
FFF0
0000
3FC0
2040
2040
3FC0
0800
15C0
E200
2180
3860
ENDCHAR
STARTCHAR 54C1
ENCODING 21697
SWIDTH 720 0
DWIDTH 12 0
BBX 12 12 0 -2
BITMAP
1F80
1080
1080
1080
1F80
0000
F9F0
8910
8910
8910
8910
F9F0
ENDCHAR
STARTCHAR 54C2
ENCODING 21698
SWIDTH 720 0
DWIDTH 12 0
BBX 12 12 0 -2
BITMAP
0FF0
0280
E280
AFF0
AA90
AA90
AA90
ACF0
E810
8810
0FF0
0800
ENDCHAR
STARTCHAR 54C4
ENCODING 21700
SWIDTH 720 0
DWIDTH 12 0
BBX 12 12 0 -2
BITMAP
0240
F240
9240
97E0
9240
9240
9240
FFF0
8240
0440
0420
1820
ENDCHAR
STARTCHAR 54C7
ENCODING 21703
SWIDTH 720 0
DWIDTH 12 0
BBX 12 12 0 -2
BITMAP
0080
F080
97E0
9080
9080
9FF0
9080
F080
87E0
0080
0080
0FF0
ENDCHAR
STARTCHAR 54C8
ENCODING 21704
SWIDTH 720 0
DWIDTH 12 0
BBX 12 12 0 -2
BITMAP
0100
0180
F280
9240
9420
9BD0
9000
9000
F7E0
8420
0420
07E0
ENDCHAR
STARTCHAR 54C9
ENCODING 21705
SWIDTH 720 0
DWIDTH 12 0
BBX 12 12 0 -2
BITMAP
1100
7D40
1120
1100
FFF0
0100
7D20
4520
4540
7C90
4150
0E30
ENDCHAR
STARTCHAR 54D8
ENCODING 21720
SWIDTH 720 0
DWIDTH 12 0
BBX 12 12 0 -2
BITMAP
0200
F2F0
9400
9A00
92F0
9420
9C20
F420
8420
0420
0420
0460
ENDCHAR
STARTCHAR 54E1
ENCODING 21729
SWIDTH 720 0
DWIDTH 12 0
BBX 12 12 0 -2
BITMAP
3FC0
2040
3FC0
7FE0
4020
7FE0
4020
7FE0
4020
7FE0
1980
E070
ENDCHAR
STARTCHAR 54E2
ENCODING 21730
SWIDTH 720 0
DWIDTH 12 0
BBX 12 12 0 -2
BITMAP
1FF0
E100
AFE0
A100
BFF0
A000
A240
E240
8FF0
0240
0440
1840
ENDCHAR
STARTCHAR 54E5
ENCODING 21733
SWIDTH 720 0
DWIDTH 12 0
BBX 12 12 0 -2
BITMAP
7FE0
0040
3E40
2240
3E40
00C0
FFF0
0040
3E40
2240
3E40
01C0
ENDCHAR
STARTCHAR 54E6
ENCODING 21734
SWIDTH 720 0
DWIDTH 12 0
BBX 12 12 0 -2
BITMAP
0EA0
0490
E490
A480
BFF0
A480
A690
AC90
E460
84C0
0550
0C30
ENDCHAR
STARTCHAR 54E8
ENCODING 21736
SWIDTH 720 0
DWIDTH 12 0
BBX 12 12 0 -2
BITMAP
0920
0520
E540
A100
AFC0
A840
AFC0
E840
8FC0
0840
0840
08C0
ENDCHAR
STARTCHAR 54E9
ENCODING 21737
SWIDTH 720 0
DWIDTH 12 0
BBX 12 12 0 -2
BITMAP
0FE0
E920
AFE0
A920
A920
AFE0
A100
E100
8FE0
0100
0100
1FF0
ENDCHAR
STARTCHAR 54ED
ENCODING 21741
SWIDTH 720 0
DWIDTH 12 0
BBX 12 12 0 -2
BITMAP
FBE0
8A20
8A20
FBE0
8000
0480
0440
FFE0
0400
0A00
3180
C060
ENDCHAR
STARTCHAR 54EE
ENCODING 21742
SWIDTH 720 0
DWIDTH 12 0
BBX 12 12 0 -2
BITMAP
0100
0100
EFE0
A140
BFF0
A100
A7E0
A8C0
E100
8FF0
0100
0300
ENDCHAR
STARTCHAR 54F2
ENCODING 21746
SWIDTH 720 0
DWIDTH 12 0
BBX 12 12 0 -2
BITMAP
2030
FBC0
2200
23F0
FA40
2240
6440
0000
3FC0
2040
2040
3FC0
ENDCHAR
STARTCHAR 54FA
ENCODING 21754
SWIDTH 720 0
DWIDTH 12 0
BBX 12 12 0 -2
BITMAP
0140
E120
BFF0
A100
AFE0
A920
AFE0
E920
8FE0
0920
0920
0960
ENDCHAR
STARTCHAR 54FD
ENCODING 21757
SWIDTH 720 0
DWIDTH 12 0
BBX 12 12 0 -2
BITMAP
1FF0
E100
AFE0
A920
AFE0
A920
AFE0
E100
8D00
0200
0580
1870
ENDCHAR
STARTCHAR 5504
ENCODING 21764
SWIDTH 720 0
DWIDTH 12 0
BBX 12 12 0 -2
BITMAP
07E0
F420
9420
97E0
9420
9420
97E0
F420
8420
07E0
0240
0C30
ENDCHAR
STARTCHAR 5506
ENCODING 21766
SWIDTH 720 0
DWIDTH 12 0
BBX 12 12 0 -2
BITMAP
0100
0240
E7E0
A2A0
A280
ACE0
A200
A3C0
EC40
8380
0280
1C60
ENDCHAR
STARTCHAR 5507
ENCODING 21767
SWIDTH 720 0
DWIDTH 12 0
BBX 12 12 0 -2
BITMAP
7FF0
4000
5FE0
4A00
4A60
4980
9C60
0000
3FC0
2040
2040
3FC0
ENDCHAR
STARTCHAR 550F
ENCODING 21775
SWIDTH 720 0
DWIDTH 12 0
BBX 12 12 0 -2
BITMAP
0670
0180
EE70
A080
AFF0
A280
A3F0
A690
FA90
8290
02B0
0080
ENDCHAR
STARTCHAR 5510
ENCODING 21776
SWIDTH 720 0
DWIDTH 12 0
BBX 12 12 0 -2
BITMAP
0200
7FF0
4200
5FE0
4220
7FF0
4220
5FE0
4000
5FE0
9020
1FE0
ENDCHAR
STARTCHAR 5514
ENCODING 21780
SWIDTH 720 0
DWIDTH 12 0
BBX 12 12 0 -2
BITMAP
07F0
F100
9100
97E0
9120
9120
9FF0
F000
87E0
0420
0420
07E0
ENDCHAR
STARTCHAR 5516
ENCODING 21782
SWIDTH 720 0
DWIDTH 12 0
BBX 12 12 0 -2
BITMAP
0FF0
E240
A240
AFF0
AA50
AA50
AA50
AA50
AFF0
E240
0240
1FF0
ENDCHAR
STARTCHAR 552E
ENCODING 21806
SWIDTH 720 0
DWIDTH 12 0
BBX 12 12 0 -2
BITMAP
2100
2200
7FE0
C200
7FC0
4200
7FC0
4200
7FE0
2040
2040
3FC0
ENDCHAR
STARTCHAR 552F
ENCODING 21807
SWIDTH 720 0
DWIDTH 12 0
BBX 12 12 0 -2
BITMAP
0440
F480
97F0
9C80
9480
97E0
9480
9480
F7E0
8480
0480
07F0
ENDCHAR
STARTCHAR 5531
ENCODING 21809
SWIDTH 720 0
DWIDTH 12 0
BBX 12 12 0 -2
BITMAP
07E0
0420
E7E0
A420
A7E0
A000
AFF0
E810
8FF0
0810
0810
0FF0
ENDCHAR
STARTCHAR 5533
ENCODING 21811
SWIDTH 720 0
DWIDTH 12 0
BBX 12 12 0 -2
BITMAP
0FF0
E000
AFE0
A820
AFE0
A880
A880
AFF0
E880
8940
1220
0C10
ENDCHAR
STARTCHAR 5538
ENCODING 21816
SWIDTH 720 0
DWIDTH 12 0
BBX 12 12 0 -2
BITMAP
0080
0140
F220
95D0
9000
97F0
9020
93C0
F040
8550
0510
08F0
ENDCHAR
STARTCHAR 5539
ENCODING 21817
SWIDTH 720 0
DWIDTH 12 0
BBX 12 12 0 -2
BITMAP
0840
E840
BEA0
A8A0
A910
AF90
AA40
AA20
EA80
8A40
0A20
1620
ENDCHAR
STARTCHAR 553E
ENCODING 21822
SWIDTH 720 0
DWIDTH 12 0
BBX 12 12 0 -2
BITMAP
00E0
0F80
0100
EFE0
A540
BFF0
A540
A540
EFE0
8100
0100
1FF0
ENDCHAR
STARTCHAR 5540
ENCODING 21824
SWIDTH 720 0
DWIDTH 12 0
BBX 12 12 0 -2
BITMAP
0FF0
0880
E880
ABE0
A880
AFF0
A880
A880
EBE0
8880
1080
17F0
ENDCHAR
STARTCHAR 5544
ENCODING 21828
SWIDTH 720 0
DWIDTH 12 0
BBX 12 12 0 -2
BITMAP
0000
1FF0
E100
A310
AD20
A140
A280
ACC0
E1A0
8690
1890
0700
ENDCHAR
STARTCHAR 5545
ENCODING 21829
SWIDTH 720 0
DWIDTH 12 0
BBX 12 12 0 -2
BITMAP
0100
E1E0
A100
AFE0
A820
AFE0
A820
EFE0
8100
1FF0
0100
0100
ENDCHAR
STARTCHAR 5546
ENCODING 21830
SWIDTH 720 0
DWIDTH 12 0
BBX 12 12 0 -2
BITMAP
0600
FFF0
1080
0900
7FE0
4920
5120
60E0
4F20
4920
4920
4F60
ENDCHAR
STARTCHAR 554C
ENCODING 21836
SWIDTH 720 0
DWIDTH 12 0
BBX 12 12 0 -2
BITMAP
0100
0100
EFF0
A810
AA50
A240
AC70
A000
E7E0
8100
0100
0FF0
ENDCHAR
STARTCHAR 554F
ENCODING 21839
SWIDTH 720 0
DWIDTH 12 0
BBX 12 12 0 -2
BITMAP
F9F0
8910
F9F0
8910
F9F0
8010
8010
9F90
9090
9090
9F90
8030
ENDCHAR
STARTCHAR 5553
ENCODING 21843
SWIDTH 720 0
DWIDTH 12 0
BBX 12 12 0 -2
BITMAP
FA00
03F0
7A20
4D20
78C0
4120
4610
8010
3FC0
2040
2040
3FC0
ENDCHAR
STARTCHAR 5556
ENCODING 21846
SWIDTH 720 0
DWIDTH 12 0
BBX 12 12 0 -2
BITMAP
0100
0510
E510
A9A0
A240
AD30
A100
A520
E520
8980
0640
1830
ENDCHAR
STARTCHAR 5557
ENCODING 21847
SWIDTH 720 0
DWIDTH 12 0
BBX 12 12 0 -2
BITMAP
0200
F3F0
9210
9410
98E0
9000
9100
F770
8410
0770
0410
07F0
ENDCHAR
STARTCHAR 555C
ENCODING 21852
SWIDTH 720 0
DWIDTH 12 0
BBX 12 12 0 -2
BITMAP
0FF0
0110
EAA0
A660
A990
A000
AFF0
A110
EAA0
8440
0660
0990
ENDCHAR
STARTCHAR 555D
ENCODING 21853
SWIDTH 720 0
DWIDTH 12 0
BBX 12 12 0 -2
BITMAP
0700
1CF0
E490
A490
BF90
A490
AC90
AC90
F6F0
9580
2460
0400
ENDCHAR
STARTCHAR 5563
ENCODING 21859
SWIDTH 720 0
DWIDTH 12 0
BBX 12 12 0 -2
BITMAP
0800
0870
EF50
B250
AFD0
A250
AB50
AA50
EBD0
9E70
0040
0040
ENDCHAR
STARTCHAR 557B
ENCODING 21883
SWIDTH 720 0
DWIDTH 12 0
BBX 12 12 0 -2
BITMAP
0400
7FC0
3180
FFE0
8420
3F80
2480
2580
0400
7FC0
4040
7FC0
ENDCHAR
STARTCHAR 557C
ENCODING 21884
SWIDTH 720 0
DWIDTH 12 0
BBX 12 12 0 -2
BITMAP
0100
0FE0
E440
A280
BFF0
B110
BFF0
A920
E920
8920
0960
0100
ENDCHAR
STARTCHAR 557E
ENCODING 21886
SWIDTH 720 0
DWIDTH 12 0
BBX 12 12 0 -2
BITMAP
0640
1C40
E550
BF50
A550
A4E0
AE40
AE40
F4A0
94A0
2510
0610
ENDCHAR
STARTCHAR 5580
ENCODING 21888
SWIDTH 720 0
DWIDTH 12 0
BBX 12 12 0 -2
BITMAP
0100
1FF0
F210
B3D0
A440
AA80
A100
A280
EFF0
8420
0420
07E0
ENDCHAR
STARTCHAR 5583
ENCODING 21891
SWIDTH 720 0
DWIDTH 12 0
BBX 12 12 0 -2
BITMAP
0080
0FF0
E080
AFF0
AA50
A990
ABF0
A890
EBF0
8890
0890
08B0
ENDCHAR
STARTCHAR 5584
ENCODING 21892
SWIDTH 720 0
DWIDTH 12 0
BBX 12 12 0 -2
BITMAP
1100
7FC0
0400
3F80
0400
7FC0
1100
0A00
FFE0
2080
2080
3F80
ENDCHAR
STARTCHAR 5587
ENCODING 21895
SWIDTH 720 0
DWIDTH 12 0
BBX 12 12 0 -2
BITMAP
0410
0410
FF50
A450
BF50
A550
A550
BF50
E450
8E10
1510
6430
ENDCHAR
STARTCHAR 5589
ENCODING 21897
SWIDTH 720 0
DWIDTH 12 0
BBX 12 12 0 -2
BITMAP
05E0
E420
A420
ABF0
A900
B900
ABE0
AC40
EBF0
8840
08A0
0B10
ENDCHAR
STARTCHAR 558A
ENCODING 21898
SWIDTH 720 0
DWIDTH 12 0
BBX 12 12 0 -2
BITMAP
00A0
0090
EFF0
A880
AF80
A890
AF90
A9A0
EF40
8850
09B0
1610
ENDCHAR
STARTCHAR 558B
ENCODING 21899
SWIDTH 720 0
DWIDTH 12 0
BBX 12 12 0 -2
BITMAP
0A40
EA40
BFF0
AA40
ABC0
A800
AFF0
E100
9FF0
0380
0540
1930
ENDCHAR
STARTCHAR 5598
ENCODING 21912
SWIDTH 720 0
DWIDTH 12 0
BBX 12 12 0 -2
BITMAP
0100
0920
E920
AFE0
A000
BFF0
A200
AFE0
EAA0
8AA0
0AA0
0860
ENDCHAR
STARTCHAR 5599
ENCODING 21913
SWIDTH 720 0
DWIDTH 12 0
BBX 12 12 0 -2
BITMAP
0200
03C0
E480
A780
A100
AFF0
A180
AE80
E1B0
8EC0
01A0
0690
ENDCHAR
STARTCHAR 559A
ENCODING 21914
SWIDTH 720 0
DWIDTH 12 0
BBX 12 12 0 -2
BITMAP
03C0
0C40
E080
AFE0
AAA0
AAA0
ACE0
E920
9FF0
0280
0440
1830
ENDCHAR
STARTCHAR 559C
ENCODING 21916
SWIDTH 720 0
DWIDTH 12 0
BBX 12 12 0 -2
BITMAP
0400
FFE0
0400
7FC0
2080
3F80
1B00
FFE0
0000
3F80
2080
3F80
ENDCHAR
STARTCHAR 559D
ENCODING 21917
SWIDTH 720 0
DWIDTH 12 0
BBX 12 12 0 -2
BITMAP
0FE0
0820
EFE0
A820
AFE0
A400
A7F0
E610
8BD0
0A10
01D0
0020
ENDCHAR
STARTCHAR 559E
ENCODING 21918
SWIDTH 720 0
DWIDTH 12 0
BBX 12 12 0 -2
BITMAP
06F0
0890
EF90
A990
AF90
A990
AF90
A890
EE90
88B0
0E80
0080
ENDCHAR
STARTCHAR 559F
ENCODING 21919
SWIDTH 720 0
DWIDTH 12 0
BBX 12 12 0 -2
BITMAP
07F0
F490
97F0
9490
97F0
9220
93E0
F220
83E0
0220
0220
0460
ENDCHAR
STARTCHAR 55A7
ENCODING 21927
SWIDTH 720 0
DWIDTH 12 0
BBX 12 12 0 -2
BITMAP
0180
EFF0
A810
A7E0
A000
A7E0
A420
E7E0
8420
07E0
0000
1FF0
ENDCHAR
STARTCHAR 55A8
ENCODING 21928
SWIDTH 720 0
DWIDTH 12 0
BBX 12 12 0 -2
BITMAP
0080
F7F0
9000
93E0
9220
9220
97F0
F410
8550
0140
0250
0C30
ENDCHAR
STARTCHAR 55A9
ENCODING 21929
SWIDTH 720 0
DWIDTH 12 0
BBX 12 12 0 -2
BITMAP
0100
0280
E440
BBB0
A000
AE50
AA50
AEA0
AAA0
EEA0
8A50
1650
ENDCHAR
STARTCHAR 55AA
ENCODING 21930
SWIDTH 720 0
DWIDTH 12 0
BBX 12 12 0 -2
BITMAP
0400
FFE0
0400
75C0
5540
75C0
0400
FFF0
2820
24C0
2300
F8E0
ENDCHAR
STARTCHAR 55AB
ENCODING 21931
SWIDTH 720 0
DWIDTH 12 0
BBX 12 12 0 -2
BITMAP
04F0
EE50
A450
AE50
A450
AFB0
A100
E100
9FF0
0280
0440
1830
ENDCHAR
STARTCHAR 55AC
ENCODING 21932
SWIDTH 720 0
DWIDTH 12 0
BBX 12 12 0 -2
BITMAP
03C0
3E00
0400
FFF0
1F80
2940
CF30
7FE0
4020
4F20
4920
4F60
ENDCHAR
STARTCHAR 55AE
ENCODING 21934
SWIDTH 720 0
DWIDTH 12 0
BBX 12 12 0 -2
BITMAP
7BC0
4A40
7BC0
3F80
2480
3F80
2480
3F80
0400
FFE0
0400
0400
ENDCHAR
STARTCHAR 55B0
ENCODING 21936
SWIDTH 720 0
DWIDTH 12 0
BBX 12 12 0 -2
BITMAP
0100
0280
E440
BFF0
A440
A7C0
A440
A7C0
E500
8560
0480
0E60
ENDCHAR
STARTCHAR 55B6
ENCODING 21942
SWIDTH 720 0
DWIDTH 12 0
BBX 12 12 0 -2
BITMAP
2440
1280
FFF0
8010
9F90
1080
1F80
0C00
3FC0
2040
2040
3FC0
ENDCHAR
STARTCHAR 55C4
ENCODING 21956
SWIDTH 720 0
DWIDTH 12 0
BBX 12 12 0 -2
BITMAP
1FF0
0100
E7E0
A420
A7E0
A420
A7E0
A200
E7E0
9A20
01C0
1E30
ENDCHAR
STARTCHAR 55C5
ENCODING 21957
SWIDTH 720 0
DWIDTH 12 0
BBX 12 12 0 -2
BITMAP
0180
0FE0
E820
AFE0
A820
AFE0
A820
AFE0
E160
9FF0
06C0
1830
ENDCHAR
STARTCHAR 55C7
ENCODING 21959
SWIDTH 720 0
DWIDTH 12 0
BBX 12 12 0 -2
BITMAP
0400
FFE0
2480
5540
5540
FFE0
0000
7FC0
5140
5F40
4040
7FC0
ENDCHAR
STARTCHAR 55D4
ENCODING 21972
SWIDTH 720 0
DWIDTH 12 0
BBX 12 12 0 -2
BITMAP
0430
07C0
E410
A7F0
A220
ABE0
AA20
ABE0
EA20
8FF0
0140
0E30
ENDCHAR
STARTCHAR 55DA
ENCODING 21978
SWIDTH 720 0
DWIDTH 12 0
BBX 12 12 0 -2
BITMAP
0180
F7E0
9420
9420
97E0
9400
97F0
F400
87F0
1550
1550
2570
ENDCHAR
STARTCHAR 55DC
ENCODING 21980
SWIDTH 720 0
DWIDTH 12 0
BBX 12 12 0 -2
BITMAP
0100
0FE0
F140
9FF0
9300
9FE0
9210
F1F0
8000
0FE0
0820
0FE0
ENDCHAR
STARTCHAR 55DF
ENCODING 21983
SWIDTH 720 0
DWIDTH 12 0
BBX 12 12 0 -2
BITMAP
0220
0140
EFF0
A080
A7F0
A080
AFF0
A200
E3F0
8480
1880
07F0
ENDCHAR
STARTCHAR 55E3
ENCODING 21987
SWIDTH 720 0
DWIDTH 12 0
BBX 12 12 0 -2
BITMAP
F000
97F0
9010
F3D0
0010
FBD0
AA50
AA50
FBD0
AA10
A810
A870
ENDCHAR
STARTCHAR 55E4
ENCODING 21988
SWIDTH 720 0
DWIDTH 12 0
BBX 12 12 0 -2
BITMAP
0100
E920
AFE0
A400
BFF0
A100
AFE0
E920
8FE0
0120
01F0
1F10
ENDCHAR
STARTCHAR 55F7
ENCODING 22007
SWIDTH 720 0
DWIDTH 12 0
BBX 12 12 0 -2
BITMAP
0480
E480
AE80
A4F0
BF10
A590
BEA0
A8A0
EE40
8A60
0A90
1710
ENDCHAR
STARTCHAR 55F9
ENCODING 22009
SWIDTH 720 0
DWIDTH 12 0
BBX 12 12 0 -2
BITMAP
0040
F3F0
AC40
B1F0
AD50
A1F0
BD50
A5F0
E440
07F0
0440
1BF0
ENDCHAR
STARTCHAR 55FD
ENCODING 22013
SWIDTH 720 0
DWIDTH 12 0
BBX 12 12 0 -2
BITMAP
0480
1F80
E4F0
BF90
B520
B540
BF40
E440
8E40
15A0
6490
0510
ENDCHAR
STARTCHAR 55FE
ENCODING 22014
SWIDTH 720 0
DWIDTH 12 0
BBX 12 12 0 -2
BITMAP
0440
0440
FF70
A880
A840
AE70
AAA0
AA20
EAF0
8A20
0A50
1690
ENDCHAR
STARTCHAR 5606
ENCODING 22022
SWIDTH 720 0
DWIDTH 12 0
BBX 12 12 0 -2
BITMAP
0440
1FF0
E440
AFE0
A920
AFE0
A100
AFE0
E100
8FF0
0280
1C70
ENDCHAR
STARTCHAR 5609
ENCODING 22025
SWIDTH 720 0
DWIDTH 12 0
BBX 12 12 0 -2
BITMAP
0400
FFF0
0400
3FC0
2040
7FE0
0900
FFF0
1000
FDF0
2510
CDF0
ENDCHAR
STARTCHAR 5614
ENCODING 22036
SWIDTH 720 0
DWIDTH 12 0
BBX 12 12 0 -2
BITMAP
0FF0
E800
A9E0
A920
A9E0
A800
AF70
AD50
ED50
8F70
0800
0FF0
ENDCHAR
STARTCHAR 5616
ENCODING 22038
SWIDTH 720 0
DWIDTH 12 0
BBX 12 12 0 -2
BITMAP
0100
EFF0
A100
A7E0
A100
BFF0
A820
EFE0
8820
0FE0
0440
1830
ENDCHAR
STARTCHAR 5617
ENCODING 22039
SWIDTH 720 0
DWIDTH 12 0
BBX 12 12 0 -2
BITMAP
2480
1500
FFE0
9120
9F20
0000
4780
7C00
4020
3FE0
2040
3FC0
ENDCHAR
STARTCHAR 5618
ENCODING 22040
SWIDTH 720 0
DWIDTH 12 0
BBX 12 12 0 -2
BITMAP
0200
03C0
E200
AFF0
AA00
AFF0
AA00
A9E0
E800
8D50
1360
07F0
ENDCHAR
STARTCHAR 561B
ENCODING 22043
SWIDTH 720 0
DWIDTH 12 0
BBX 12 12 0 -2
BITMAP
0200
3FF0
E000
A880
BFF0
A880
AAA0
EAA0
2AA0
4AA0
5AB0
AC80
ENDCHAR
STARTCHAR 5629
ENCODING 22057
SWIDTH 720 0
DWIDTH 12 0
BBX 12 12 0 -2
BITMAP
0440
1FF0
E440
AFE0
A540
BFF0
A540
EFE0
8100
1FF0
0100
0100
ENDCHAR
STARTCHAR 562F
ENCODING 22063
SWIDTH 720 0
DWIDTH 12 0
BBX 12 12 0 -2
BITMAP
0FE0
E120
AFF0
A120
AFE0
B550
BD70
F110
9FF0
1110
3D70
2550
ENDCHAR
STARTCHAR 5631
ENCODING 22065
SWIDTH 720 0
DWIDTH 12 0
BBX 12 12 0 -2
BITMAP
0FF0
E810
AFF0
A880
ABF0
AA90
ABF0
E880
8FF0
1550
17D0
2470
ENDCHAR
STARTCHAR 5632
ENCODING 22066
SWIDTH 720 0
DWIDTH 12 0
BBX 12 12 0 -2
BITMAP
04F0
EF90
A490
AF90
A9F0
AF90
A990
AFF0
E490
9F90
0490
0530
ENDCHAR
STARTCHAR 5634
ENCODING 22068
SWIDTH 720 0
DWIDTH 12 0
BBX 12 12 0 -2
BITMAP
0240
EB70
AA40
AF70
A3C0
A480
BFE0
E920
8FE0
0920
0FE0
1020
ENDCHAR
STARTCHAR 5636
ENCODING 22070
SWIDTH 720 0
DWIDTH 12 0
BBX 12 12 0 -2
BITMAP
0A30
EAE0
BF80
AA80
AEF0
AAA0
AEA0
AAA0
FFA0
8AA0
09A0
1120
ENDCHAR
STARTCHAR 5638
ENCODING 22072
SWIDTH 720 0
DWIDTH 12 0
BBX 12 12 0 -2
BITMAP
0800
0800
EFF0
BAA0
AAA0
BFF0
AAA0
AAA0
FFF0
9520
1490
2490
ENDCHAR
STARTCHAR 5642
ENCODING 22082
SWIDTH 720 0
DWIDTH 12 0
BBX 12 12 0 -2
BITMAP
0440
1FF0
E280
AFE0
AAA0
ACE0
A820
AFE0
E040
8FF0
0440
02C0
ENDCHAR
STARTCHAR 564C
ENCODING 22092
SWIDTH 720 0
DWIDTH 12 0
BBX 12 12 0 -2
BITMAP
0440
0280
EFE0
A920
AFE0
A920
AFE0
E440
87C0
0440
0440
07C0
ENDCHAR
STARTCHAR 564E
ENCODING 22094
SWIDTH 720 0
DWIDTH 12 0
BBX 12 12 0 -2
BITMAP
0100
EFE0
A100
BFF0
B010
AFE0
A000
EFE0
8820
0FE0
06C0
1FF0
ENDCHAR
STARTCHAR 5650
ENCODING 22096
SWIDTH 720 0
DWIDTH 12 0
BBX 12 12 0 -2
BITMAP
FBE0
8A20
FBE0
0000
7FC0
0400
FFE0
0000
FBE0
8A20
8A20
FBE0
ENDCHAR
STARTCHAR 565B
ENCODING 22107
SWIDTH 720 0
DWIDTH 12 0
BBX 12 12 0 -2
BITMAP
0100
05E0
E500
BFF0
A910
AD50
AB90
AFF0
E910
8B90
0D70
0FF0
ENDCHAR
STARTCHAR 5664
ENCODING 22116
SWIDTH 720 0
DWIDTH 12 0
BBX 12 12 0 -2
BITMAP
0440
1FF0
E440
AEE0
B550
A440
AFE0
A000
BFF0
E920
8910
1310
ENDCHAR
STARTCHAR 5668
ENCODING 22120
SWIDTH 720 0
DWIDTH 12 0
BBX 12 12 0 -2
BITMAP
79E0
4920
4920
79E0
0600
FFF0
0900
30C0
F9F0
4920
4920
79E0
ENDCHAR
STARTCHAR 566A
ENCODING 22122
SWIDTH 720 0
DWIDTH 12 0
BBX 12 12 0 -2
BITMAP
07C0
0440
E7C0
A000
BEF0
B290
BEF0
E100
9FF0
0380
0540
1930
ENDCHAR
STARTCHAR 566B
ENCODING 22123
SWIDTH 720 0
DWIDTH 12 0
BBX 12 12 0 -2
BITMAP
0180
07E0
E240
AFF0
A420
A7E0
A420
A7E0
E080
8A90
0A50
11D0
ENDCHAR
STARTCHAR 566C
ENCODING 22124
SWIDTH 720 0
DWIDTH 12 0
BBX 12 12 0 -2
BITMAP
0840
EE70
B4A0
A420
BFF0
A100
A540
E540
8BA0
1110
0100
1FF0
ENDCHAR
STARTCHAR 5674
ENCODING 22132
SWIDTH 720 0
DWIDTH 12 0
BBX 12 12 0 -2
BITMAP
0100
0FE0
E540
BFF0
A440
AFE0
A820
AFE0
E820
8FE0
0280
1C70
ENDCHAR
STARTCHAR 5678
ENCODING 22136
SWIDTH 720 0
DWIDTH 12 0
BBX 12 12 0 -2
BITMAP
05F0
E440
BF80
A4F0
B590
B5F0
BF90
B4F0
E490
85F0
06A0
0110
ENDCHAR
STARTCHAR 567A
ENCODING 22138
SWIDTH 720 0
DWIDTH 12 0
BBX 12 12 0 -2
BITMAP
0430
1FC0
EA80
AA80
BFF0
A4A0
BFA0
A4A0
EEA0
95A0
2520
0620
ENDCHAR
STARTCHAR 5680
ENCODING 22144
SWIDTH 720 0
DWIDTH 12 0
BBX 12 12 0 -2
BITMAP
0100
1FF0
F490
A6A0
A9D0
AFE0
AAA0
AFE0
E000
9FF0
0080
0380
ENDCHAR
STARTCHAR 5686
ENCODING 22150
SWIDTH 720 0
DWIDTH 12 0
BBX 12 12 0 -2
BITMAP
0240
EFF0
A240
A100
BFF0
A440
A7C0
E000
9FF0
17D0
1450
17F0
ENDCHAR
STARTCHAR 5687
ENCODING 22151
SWIDTH 720 0
DWIDTH 12 0
BBX 12 12 0 -2
BITMAP
0440
E440
AEE0
A440
BFF0
A540
AD60
AFE0
F7D0
9550
2550
0EC0
ENDCHAR
STARTCHAR 568A
ENCODING 22154
SWIDTH 720 0
DWIDTH 12 0
BBX 12 12 0 -2
BITMAP
0100
07C0
E440
A7C0
A440
AFE0
A920
AFE0
E440
9FF0
0440
1840
ENDCHAR
STARTCHAR 568F
ENCODING 22159
SWIDTH 720 0
DWIDTH 12 0
BBX 12 12 0 -2
BITMAP
0100
EFE0
A100
BFF0
B550
A7C0
A540
EFF0
9110
11C0
1900
27F0
ENDCHAR
STARTCHAR 5694
ENCODING 22164
SWIDTH 720 0
DWIDTH 12 0
BBX 12 12 0 -2
BITMAP
0100
EFE0
A100
BFF0
B550
A7C0
A220
EFF0
9110
11C0
1900
27F0
ENDCHAR
STARTCHAR 56A0
ENCODING 22176
SWIDTH 720 0
DWIDTH 12 0
BBX 12 12 0 -2
BITMAP
1F10
F550
B550
BD50
A450
AA50
BF50
A450
FF50
9510
0E10
1F30
ENDCHAR
STARTCHAR 56A2
ENCODING 22178
SWIDTH 720 0
DWIDTH 12 0
BBX 12 12 0 -2
BITMAP
0400
FFF0
2480
FFE0
9120
7FC0
1100
FFF0
3400
54E0
9300
78F0
ENDCHAR
STARTCHAR 56A5
ENCODING 22181
SWIDTH 720 0
DWIDTH 12 0
BBX 12 12 0 -2
BITMAP
0440
1FF0
E440
A7C0
A440
BFF0
A4C0
BFD0
E470
8AA0
0A90
1250
ENDCHAR
STARTCHAR 56AE
ENCODING 22190
SWIDTH 720 0
DWIDTH 12 0
BBX 12 12 0 -2
BITMAP
2EF0
FAA0
6EE0
F8A0
2E90
CAA0
0400
FFF0
8010
9F90
9090
9FB0
ENDCHAR
STARTCHAR 56B4
ENCODING 22196
SWIDTH 720 0
DWIDTH 12 0
BBX 12 12 0 -2
BITMAP
3DE0
2520
7FF0
4080
5E80
48F0
7F20
55A0
5E40
5440
BCA0
8520
ENDCHAR
STARTCHAR 56B6
ENCODING 22198
SWIDTH 720 0
DWIDTH 12 0
BBX 12 12 0 -2
BITMAP
0EE0
0AA0
EEE0
AAA0
AEE0
AAA0
AEE0
BAB0
EFF0
8240
0180
0E60
ENDCHAR
STARTCHAR 56BC
ENCODING 22204
SWIDTH 720 0
DWIDTH 12 0
BBX 12 12 0 -2
BITMAP
00E0
EF20
B110
BDF0
A490
BDF0
A420
BDF0
E020
A920
3D20
6460
ENDCHAR
STARTCHAR 56C0
ENCODING 22208
SWIDTH 720 0
DWIDTH 12 0
BBX 12 12 0 -2
BITMAP
0440
1FF0
E440
BFF0
B550
BFF0
B520
BFD0
E420
9FF0
04A0
0460
ENDCHAR
STARTCHAR 56C1
ENCODING 22209
SWIDTH 720 0
DWIDTH 12 0
BBX 12 12 0 -2
BITMAP
0FF0
0240
E3C0
A240
A7E0
A040
BFF0
AAA0
EEE0
8AA0
1FE0
0220
ENDCHAR
STARTCHAR 56C2
ENCODING 22210
SWIDTH 720 0
DWIDTH 12 0
BBX 12 12 0 -2
BITMAP
79E0
4920
FFF0
0C00
3FC0
2040
3FC0
2040
3FC0
F9F0
4920
79E0
ENDCHAR
STARTCHAR 56C3
ENCODING 22211
SWIDTH 720 0
DWIDTH 12 0
BBX 12 12 0 -2
BITMAP
0490
1FA0
EAF0
AAA0
AAA0
B5F0
A4A0
BFA0
E4F0
8EA0
15A0
24F0
ENDCHAR
STARTCHAR 56C8
ENCODING 22216
SWIDTH 720 0
DWIDTH 12 0
BBX 12 12 0 -2
BITMAP
0440
1FF0
E440
BEF0
AA50
BBD0
A450
BFB0
E000
9FF0
0620
1FD0
ENDCHAR
STARTCHAR 56CE
ENCODING 22222
SWIDTH 720 0
DWIDTH 12 0
BBX 12 12 0 -2
BITMAP
1CA0
1510
F510
BFF0
B550
B5F0
BD50
B5F0
F520
9DE0
1520
23E0
ENDCHAR
STARTCHAR 56D1
ENCODING 22225
SWIDTH 720 0
DWIDTH 12 0
BBX 12 12 0 -2
BITMAP
1FF0
1100
FD70
B100
B7F0
B550
B7F0
FD50
97D0
1110
2150
27B0
ENDCHAR
STARTCHAR 56D3
ENCODING 22227
SWIDTH 720 0
DWIDTH 12 0
BBX 12 12 0 -2
BITMAP
0400
E4F0
BF50
A450
BF50
A5B0
BF00
AFF0
EAA0
8D60
0820
0FE0
ENDCHAR
STARTCHAR 56D7
ENCODING 22231
SWIDTH 720 0
DWIDTH 12 0
BBX 12 12 0 -2
BITMAP
FFF0
8010
8010
8010
8010
8010
8010
8010
8010
8010
FFF0
8000
ENDCHAR
STARTCHAR 56D8
ENCODING 22232
SWIDTH 720 0
DWIDTH 12 0
BBX 12 12 0 -2
BITMAP
FFF0
8010
9F90
9090
9090
9F90
9010
9010
9050
8FD0
8010
8030
ENDCHAR
STARTCHAR 56DA
ENCODING 22234
SWIDTH 720 0
DWIDTH 12 0
BBX 12 12 0 -2
BITMAP
FFE0
8020
8420
8420
8420
8420
8A20
8A20
9120
A0A0
8020
FFE0
ENDCHAR
STARTCHAR 56DB
ENCODING 22235
SWIDTH 720 0
DWIDTH 12 0
BBX 12 12 0 -2
BITMAP
0000
FFE0
8A20
8A20
8A20
8A20
9220
E1E0
8020
8020
FFE0
8000
ENDCHAR
STARTCHAR 56DE
ENCODING 22238
SWIDTH 720 0
DWIDTH 12 0
BBX 12 12 0 -2
BITMAP
FFE0
8020
8020
9F20
9120
9120
9120
9F20
9020
8020
FFE0
8000
ENDCHAR
STARTCHAR 56E0
ENCODING 22240
SWIDTH 720 0
DWIDTH 12 0
BBX 12 12 0 -2
BITMAP
FFF0
8010
8410
8410
BFD0
8410
8410
8A10
9110
A0D0
8010
FFF0
ENDCHAR
STARTCHAR 56E3
ENCODING 22243
SWIDTH 720 0
DWIDTH 12 0
BBX 12 12 0 -2
BITMAP
FFF0
8110
8110
BFD0
8110
9110
8910
8910
8110
8710
8010
FFF0
ENDCHAR
STARTCHAR 56EE
ENCODING 22254
SWIDTH 720 0
DWIDTH 12 0
BBX 12 12 0 -2
BITMAP
FFF0
8010
8A10
8A10
92D0
B390
9210
9210
9250
93D0
8010
FFF0
ENDCHAR
STARTCHAR 56F0
ENCODING 22256
SWIDTH 720 0
DWIDTH 12 0
BBX 12 12 0 -2
BITMAP
FFE0
8020
8420
BFA0
8420
8E20
8E20
9520
A4A0
8420
8020
FFE0
ENDCHAR
STARTCHAR 56F2
ENCODING 22258
SWIDTH 720 0
DWIDTH 12 0
BBX 12 12 0 -2
BITMAP
FFF0
8910
8910
BFD0
8910
8910
BFD0
8910
8910
9110
8010
FFF0
ENDCHAR
STARTCHAR 56F3
ENCODING 22259
SWIDTH 720 0
DWIDTH 12 0
BBX 12 12 0 -2
BITMAP
FFF0
8010
A450
9250
8090
9910
8610
8510
8890
B090
8010
FFF0
ENDCHAR
STARTCHAR 56F9
ENCODING 22265
SWIDTH 720 0
DWIDTH 12 0
BBX 12 12 0 -2
BITMAP
FFF0
8410
8410
8A10
9110
E0D0
BF90
8890
8890
8B90
8810
FFF0
ENDCHAR
STARTCHAR 56FA
ENCODING 22266
SWIDTH 720 0
DWIDTH 12 0
BBX 12 12 0 -2
BITMAP
FFE0
8020
8420
BFE0
8420
8420
9FA0
90A0
90A0
9FA0
8020
FFE0
ENDCHAR
STARTCHAR 56FD
ENCODING 22269
SWIDTH 720 0
DWIDTH 12 0
BBX 12 12 0 -2
BITMAP
FFE0
8020
BFA0
8420
8420
9F20
8420
8520
84A0
BFA0
8020
FFE0
ENDCHAR
STARTCHAR 56FF
ENCODING 22271
SWIDTH 720 0
DWIDTH 12 0
BBX 12 12 0 -2
BITMAP
FFF0
8410
BFD0
8810
8F90
B890
8F90
8890
8F90
8890
8990
FFF0
ENDCHAR
STARTCHAR 5700
ENCODING 22272
SWIDTH 720 0
DWIDTH 12 0
BBX 12 12 0 -2
BITMAP
FFF0
8910
8910
B1D0
8410
BFD0
8410
8790
8890
8890
9310
FFF0
ENDCHAR
STARTCHAR 5703
ENCODING 22275
SWIDTH 720 0
DWIDTH 12 0
BBX 12 12 0 -2
BITMAP
FFE0
8520
BFA0
8420
BFA0
A4A0
BFA0
A4A0
BFA0
A4A0
A4A0
FFE0
ENDCHAR
STARTCHAR 5704
ENCODING 22276
SWIDTH 720 0
DWIDTH 12 0
BBX 12 12 0 -2
BITMAP
FFF0
8010
BFD0
8410
9F90
8490
BFD0
9F90
9090
9F90
8010
FFF0
ENDCHAR
STARTCHAR 5708
ENCODING 22280
SWIDTH 720 0
DWIDTH 12 0
BBX 12 12 0 -2
BITMAP
FFE0
9520
A4A0
DF60
8A20
FFE0
91A0
BF60
D0A0
8FA0
8020
FFE0
ENDCHAR
STARTCHAR 5709
ENCODING 22281
SWIDTH 720 0
DWIDTH 12 0
BBX 12 12 0 -2
BITMAP
FFE0
8420
9F20
8420
BFA0
9120
BFA0
8420
9F20
8420
8420
FFE0
ENDCHAR
STARTCHAR 570B
ENCODING 22283
SWIDTH 720 0
DWIDTH 12 0
BBX 12 12 0 -2
BITMAP
FFF0
8290
8250
FFF0
8210
BA50
AA50
B990
8150
FAD0
8450
FFF0
ENDCHAR
STARTCHAR 570D
ENCODING 22285
SWIDTH 720 0
DWIDTH 12 0
BBX 12 12 0 -2
BITMAP
FFE0
8420
9F20
8520
BFE0
9120
9F20
BFE0
A420
FFE0
8420
FFE0
ENDCHAR
STARTCHAR 570F
ENCODING 22287
SWIDTH 720 0
DWIDTH 12 0
BBX 12 12 0 -2
BITMAP
FFF0
9490
BFD0
8410
FFF0
8910
9F90
E170
9F10
9090
8F90
FFF0
ENDCHAR
STARTCHAR 5712
ENCODING 22290
SWIDTH 720 0
DWIDTH 12 0
BBX 12 12 0 -2
BITMAP
FFF0
8410
9F90
8410
BFD0
9090
9F90
8C10
9750
A490
8450
FFF0
ENDCHAR
STARTCHAR 5713
ENCODING 22291
SWIDTH 720 0
DWIDTH 12 0
BBX 12 12 0 -2
BITMAP
FFE0
8020
9F20
9120
BFA0
A0A0
BFA0
A0A0
BFA0
8A20
B1A0
FFE0
ENDCHAR
STARTCHAR 5716
ENCODING 22294
SWIDTH 720 0
DWIDTH 12 0
BBX 12 12 0 -2
BITMAP
FFE0
BFA0
A0A0
BFA0
8420
FFE0
A0A0
AEA0
AAA0
BFA0
8020
FFE0
ENDCHAR
STARTCHAR 5718
ENCODING 22296
SWIDTH 720 0
DWIDTH 12 0
BBX 12 12 0 -2
BITMAP
FFE0
8420
FFE0
A4A0
BFA0
A4A0
FFE0
84A0
FFE0
8920
8520
FFE0
ENDCHAR
STARTCHAR 571C
ENCODING 22300
SWIDTH 720 0
DWIDTH 12 0
BBX 12 12 0 -2
BITMAP
FFE0
8020
BFA0
AAA0
FFE0
9120
9F20
B5A0
9620
B9A0
8020
FFE0
ENDCHAR
STARTCHAR 571F
ENCODING 22303
SWIDTH 720 0
DWIDTH 12 0
BBX 12 12 0 -2
BITMAP
0400
0400
0400
0400
7FC0
0400
0400
0400
0400
0400
0400
FFE0
ENDCHAR
STARTCHAR 5726
ENCODING 22310
SWIDTH 720 0
DWIDTH 12 0
BBX 12 12 0 -2
BITMAP
2780
2080
2080
F080
2080
2080
2180
3140
E240
0220
0420
1810
ENDCHAR
STARTCHAR 5727
ENCODING 22311
SWIDTH 720 0
DWIDTH 12 0
BBX 12 12 0 -2
BITMAP
7FF0
4000
4100
4100
4100
4100
4FE0
4100
4100
4100
8100
9FF0
ENDCHAR
STARTCHAR 5728
ENCODING 22312
SWIDTH 720 0
DWIDTH 12 0
BBX 12 12 0 -2
BITMAP
0400
0400
FFF0
0800
1100
2100
EFE0
2100
2100
2100
2100
2FF0
ENDCHAR
STARTCHAR 572D
ENCODING 22317
SWIDTH 720 0
DWIDTH 12 0
BBX 12 12 0 -2
BITMAP
0400
0400
7FC0
0400
0400
FFE0
0400
0400
7FC0
0400
0400
FFE0
ENDCHAR
STARTCHAR 5730
ENCODING 22320
SWIDTH 720 0
DWIDTH 12 0
BBX 12 12 0 -2
BITMAP
0080
2480
2480
24F0
2F90
F490
2490
2490
24B0
3480
C410
03F0
ENDCHAR
STARTCHAR 5737
ENCODING 22327
SWIDTH 720 0
DWIDTH 12 0
BBX 12 12 0 -2
BITMAP
2000
2FF0
2100
F100
2100
21C0
2120
3110
C100
0100
0100
0100
ENDCHAR
STARTCHAR 5738
ENCODING 22328
SWIDTH 720 0
DWIDTH 12 0
BBX 12 12 0 -2
BITMAP
2080
2080
2080
F490
2490
2490
2490
2490
3490
C490
07F0
0400
ENDCHAR
STARTCHAR 573B
ENCODING 22331
SWIDTH 720 0
DWIDTH 12 0
BBX 12 12 0 -2
BITMAP
20E0
2780
2400
F400
27F0
2480
2480
3480
E480
0880
0880
1080
ENDCHAR
STARTCHAR 5740
ENCODING 22336
SWIDTH 720 0
DWIDTH 12 0
BBX 12 12 0 -2
BITMAP
2080
2080
2080
F080
24F0
2480
2480
2480
3480
E480
0480
1FF0
ENDCHAR
STARTCHAR 5742
ENCODING 22338
SWIDTH 720 0
DWIDTH 12 0
BBX 12 12 0 -2
BITMAP
27F0
2400
2400
F7E0
2620
2620
2540
3540
E480
0880
0940
0630
ENDCHAR
STARTCHAR 5747
ENCODING 22343
SWIDTH 720 0
DWIDTH 12 0
BBX 12 12 0 -2
BITMAP
2200
2200
2200
F3F0
2410
2010
2310
3050
E090
0310
0020
00E0
ENDCHAR
STARTCHAR 574A
ENCODING 22346
SWIDTH 720 0
DWIDTH 12 0
BBX 12 12 0 -2
BITMAP
2100
2100
2FF0
2100
F100
21E0
2120
2120
3220
E220
0420
18C0
ENDCHAR
STARTCHAR 574E
ENCODING 22350
SWIDTH 720 0
DWIDTH 12 0
BBX 12 12 0 -2
BITMAP
0200
2200
2200
23F0
F490
24A0
2880
2080
30C0
E140
0220
0C10
ENDCHAR
STARTCHAR 574F
ENCODING 22351
SWIDTH 720 0
DWIDTH 12 0
BBX 12 12 0 -2
BITMAP
2000
27F0
2080
F080
21C0
22A0
2C90
2090
3080
E080
0080
0080
ENDCHAR
STARTCHAR 5750
ENCODING 22352
SWIDTH 720 0
DWIDTH 12 0
BBX 12 12 0 -2
BITMAP
0400
2480
2480
2480
5540
4E40
8420
0400
7FC0
0400
0400
FFE0
ENDCHAR
STARTCHAR 5751
ENCODING 22353
SWIDTH 720 0
DWIDTH 12 0
BBX 12 12 0 -2
BITMAP
0080
2080
27F0
2000
FBC0
2240
2240
2240
3240
E250
0450
1870
ENDCHAR
STARTCHAR 5761
ENCODING 22369
SWIDTH 720 0
DWIDTH 12 0
BBX 12 12 0 -2
BITMAP
2080
2080
27F0
F490
24A0
27E0
2420
3620
C540
0480
0940
0630
ENDCHAR
STARTCHAR 5764
ENCODING 22372
SWIDTH 720 0
DWIDTH 12 0
BBX 12 12 0 -2
BITMAP
2080
2080
27F0
F490
2490
27F0
2490
2490
37F0
E480
0080
0080
ENDCHAR
STARTCHAR 5766
ENCODING 22374
SWIDTH 720 0
DWIDTH 12 0
BBX 12 12 0 -2
BITMAP
27E0
2420
2420
2420
F7E0
2420
2420
2420
37E0
C000
0000
0FF0
ENDCHAR
STARTCHAR 5769
ENCODING 22377
SWIDTH 720 0
DWIDTH 12 0
BBX 12 12 0 -2
BITMAP
2440
2440
2440
FFF0
2440
2440
27C0
3440
E440
0440
07C0
0400
ENDCHAR
STARTCHAR 576A
ENCODING 22378
SWIDTH 720 0
DWIDTH 12 0
BBX 12 12 0 -2
BITMAP
2000
2FF0
2490
F290
2290
22A0
2FF0
2080
3080
E080
0080
0080
ENDCHAR
STARTCHAR 577F
ENCODING 22399
SWIDTH 720 0
DWIDTH 12 0
BBX 12 12 0 -2
BITMAP
2220
2220
2420
F420
2DF0
2420
2520
34A0
E4A0
0420
0420
0460
ENDCHAR
STARTCHAR 5782
ENCODING 22402
SWIDTH 720 0
DWIDTH 12 0
BBX 12 12 0 -2
BITMAP
01C0
7E00
0400
7FC0
2480
FFF0
2480
2480
7FC0
0400
0400
FFE0
ENDCHAR
STARTCHAR 5788
ENCODING 22408
SWIDTH 720 0
DWIDTH 12 0
BBX 12 12 0 -2
BITMAP
1280
1240
3FE0
6200
A200
2120
20E0
0400
7FC0
0400
0400
FFE0
ENDCHAR
STARTCHAR 5789
ENCODING 22409
SWIDTH 720 0
DWIDTH 12 0
BBX 12 12 0 -2
BITMAP
2200
2200
27E0
F420
2BA0
20A0
20A0
37A0
C460
0400
0410
03F0
ENDCHAR
STARTCHAR 578B
ENCODING 22411
SWIDTH 720 0
DWIDTH 12 0
BBX 12 12 0 -2
BITMAP
7E90
2490
2490
FE90
2490
2410
4C70
0200
7FE0
0200
0200
FFF0
ENDCHAR
STARTCHAR 5793
ENCODING 22419
SWIDTH 720 0
DWIDTH 12 0
BBX 12 12 0 -2
BITMAP
0080
2080
27F0
2100
F240
2D80
2120
2240
3480
C100
0280
0C60
ENDCHAR
STARTCHAR 57A0
ENCODING 22432
SWIDTH 720 0
DWIDTH 12 0
BBX 12 12 0 -2
BITMAP
27E0
2420
27E0
F420
27E0
2420
2500
3530
E540
0480
0740
0C30
ENDCHAR
STARTCHAR 57A2
ENCODING 22434
SWIDTH 720 0
DWIDTH 12 0
BBX 12 12 0 -2
BITMAP
2070
2780
2400
F400
27F0
2400
2400
25F0
3510
E510
0510
09F0
ENDCHAR
STARTCHAR 57A3
ENCODING 22435
SWIDTH 720 0
DWIDTH 12 0
BBX 12 12 0 -2
BITMAP
0FF0
2000
27E0
2420
F420
27E0
2420
2420
37E0
E400
0000
1FF0
ENDCHAR
STARTCHAR 57A4
ENCODING 22436
SWIDTH 720 0
DWIDTH 12 0
BBX 12 12 0 -2
BITMAP
2FF0
2100
2120
F210
27F0
2010
2080
3080
C7F0
0080
0080
0FF0
ENDCHAR
STARTCHAR 57AA
ENCODING 22442
SWIDTH 720 0
DWIDTH 12 0
BBX 12 12 0 -2
BITMAP
2420
2220
2240
FFF0
2240
2240
2FF0
3240
C240
0440
0440
0840
ENDCHAR
STARTCHAR 57B0
ENCODING 22448
SWIDTH 720 0
DWIDTH 12 0
BBX 12 12 0 -2
BITMAP
2100
21E0
2100
F100
27F0
2000
27F0
3100
C1C0
0120
0100
0100
ENDCHAR
STARTCHAR 57B3
ENCODING 22451
SWIDTH 720 0
DWIDTH 12 0
BBX 12 12 0 -2
BITMAP
0200
22F0
2400
2A00
F2F0
2420
2C20
2420
3420
C420
0420
0460
ENDCHAR
STARTCHAR 57C0
ENCODING 22464
SWIDTH 720 0
DWIDTH 12 0
BBX 12 12 0 -2
BITMAP
01C0
7E00
0400
7FC0
1520
F5C0
1500
F520
14E0
7FC0
0400
FFE0
ENDCHAR
STARTCHAR 57C3
ENCODING 22467
SWIDTH 720 0
DWIDTH 12 0
BBX 12 12 0 -2
BITMAP
2100
2120
2210
F7F0
2210
23E0
2480
3080
C7F0
0080
0140
0630
ENDCHAR
STARTCHAR 57C6
ENCODING 22470
SWIDTH 720 0
DWIDTH 12 0
BBX 12 12 0 -2
BITMAP
21E0
2620
2040
F7F0
2490
27F0
2490
3490
C7F0
0410
0410
0830
ENDCHAR
STARTCHAR 57CB
ENCODING 22475
SWIDTH 720 0
DWIDTH 12 0
BBX 12 12 0 -2
BITMAP
27F0
2490
27F0
2490
F490
27F0
2080
3080
C7F0
0080
0080
0FF0
ENDCHAR
STARTCHAR 57CE
ENCODING 22478
SWIDTH 720 0
DWIDTH 12 0
BBX 12 12 0 -2
BITMAP
00A0
2090
2080
2FF0
F880
2880
2EA0
3AA0
CA40
1250
14D0
2130
ENDCHAR
STARTCHAR 57D2
ENCODING 22482
SWIDTH 720 0
DWIDTH 12 0
BBX 12 12 0 -2
BITMAP
2070
2F80
24A0
2490
F910
2040
2FF0
2040
3440
C240
0040
01C0
ENDCHAR
STARTCHAR 57D3
ENCODING 22483
SWIDTH 720 0
DWIDTH 12 0
BBX 12 12 0 -2
BITMAP
20C0
2780
2250
2160
F780
2040
2FF0
2040
3440
C240
0040
01C0
ENDCHAR
ENDFONT
